<svg width="31" height="52" viewBox="0 0 31 52" fill="none" xmlns="http://www.w3.org/2000/svg">
<path d="M12.579 49.2544C12.5458 50.3584 13.414 51.2804 14.518 51.3136C15.6221 51.3467 16.544 50.4786 16.5772 49.3745L12.579 49.2544ZM17.4561 0.62854C16.6988 -0.175616 15.4331 -0.213654 14.6289 0.543581L1.5244 12.8834C0.720248 13.6407 0.68221 14.9064 1.43945 15.7106C2.19668 16.5148 3.46244 16.5528 4.2666 15.7956L15.915 4.82679L26.8838 16.4752C27.641 17.2794 28.9068 17.3174 29.711 16.5602C30.5151 15.803 30.5531 14.5372 29.7959 13.733L17.4561 0.62854ZM16.5772 49.3745L17.9991 2.05971L14.0009 1.93956L12.579 49.2544L16.5772 49.3745Z" fill="black"/>
</svg>
