<svg width="20" height="20" viewBox="0 0 20 20" fill="none" xmlns="http://www.w3.org/2000/svg">
<path opacity="0.3" fill-rule="evenodd" clip-rule="evenodd" d="M19.5798 9.88709C19.5836 11.3568 19.2402 12.8067 18.5776 14.1186C17.7919 15.6906 16.584 17.0129 15.0893 17.9373C13.5946 18.8616 11.872 19.3516 10.1146 19.3523C8.78386 19.3558 7.46946 19.0746 6.259 18.5296C6.01588 18.4201 5.74079 18.3975 5.48784 18.4818L1.43319 19.8334C0.651433 20.094 -0.0923058 19.3502 0.16828 18.5685L1.51983 14.5138C1.60415 14.2609 1.58157 13.9858 1.4721 13.7427C0.927069 12.5322 0.645907 11.2178 0.649376 9.88709C0.650056 8.12964 1.14002 6.40708 2.06439 4.91236C2.98875 3.41764 4.31102 2.20979 5.88307 1.4241C7.19496 0.761463 8.64482 0.418075 10.1146 0.421907H10.6713C12.9924 0.549956 15.1846 1.52962 16.8283 3.17334C18.472 4.81705 19.4517 7.00929 19.5798 9.33032V9.88709ZM5.94989 8.43946C5.94989 7.99666 6.30885 7.6377 6.75165 7.6377H13.9675C14.4103 7.6377 14.7692 7.99666 14.7692 8.43946C14.7692 8.88226 14.4103 9.24122 13.9675 9.24122H6.75165C6.30885 9.24122 5.94989 8.88226 5.94989 8.43946ZM6.75165 11.6465C6.30885 11.6465 5.94989 12.0055 5.94989 12.4482C5.94989 12.891 6.30885 13.25 6.75165 13.25H13.9675C14.4103 13.25 14.7692 12.891 14.7692 12.4482C14.7692 12.0055 14.4103 11.6465 13.9675 11.6465H6.75165Z" fill="white"/>
</svg>
