<svg width="44" height="41" viewBox="0 0 44 41" fill="none" xmlns="http://www.w3.org/2000/svg">
<path d="M0.523477 26.1991C0.519678 27.3515 0.787684 28.4885 1.30573 29.5179C1.82379 30.5472 2.57728 31.4399 3.50504 32.1234V20.2903C2.57976 20.9726 1.82783 21.8629 1.30991 22.8893C0.792 23.9157 0.52261 25.0495 0.523477 26.1991ZM41.024 20.2825V32.1157C44.973 29.3878 44.9319 22.9553 41.024 20.2825ZM33.2594 12.2852H11.2697C9.623 12.2874 8.04442 12.9426 6.88005 14.1069C5.71567 15.2713 5.06053 16.8499 5.05828 18.4966V33.9025C5.05889 35.5497 5.71348 37.1293 6.87819 38.2942C8.04289 39.459 9.62242 40.1138 11.2697 40.1146H33.2594C34.9068 40.114 36.4865 39.4593 37.6514 38.2944C38.8162 37.1296 39.4709 35.5498 39.4715 33.9025V18.4966C39.4693 16.8497 38.814 15.271 37.6495 14.1067C36.485 12.9423 34.9062 12.2872 33.2594 12.2852ZM11.6273 22.0685C11.7716 17.3724 18.5859 17.3654 18.7317 22.0685C18.5828 26.7624 11.7732 26.7531 11.6273 22.0685ZM31.0777 31.8907C29.9898 33.1722 28.6408 34.2065 27.1208 34.9244C25.6007 35.6422 23.9449 36.0271 22.2641 36.0531C20.5836 36.0269 18.928 35.6421 17.4083 34.9242C15.8886 34.2063 14.5397 33.1721 13.4521 31.8907C13.3318 31.7312 13.2778 31.5315 13.3012 31.3331C13.3246 31.1348 13.4237 30.9531 13.5778 30.826C13.7319 30.6989 13.9291 30.6362 14.1283 30.651C14.3275 30.6658 14.5133 30.7569 14.6469 30.9054C15.5883 32.0116 16.7547 32.9043 18.0683 33.5242C19.3819 34.144 20.8126 34.4766 22.2649 34.4999C23.7174 34.4776 25.1483 34.1453 26.462 33.5253C27.7757 32.9052 28.9417 32.0118 29.8821 30.9046C30.0153 30.7543 30.2017 30.6616 30.4019 30.646C30.6021 30.6304 30.8006 30.6931 30.9555 30.821C31.1104 30.9488 31.2096 31.1317 31.2323 31.3313C31.2549 31.5308 31.2 31.7314 31.0777 31.8907ZM29.346 25.6172C24.6522 25.4683 24.6615 18.6579 29.346 18.5121C34.043 18.6572 34.0492 25.4714 29.346 25.6172Z" fill="#8A31EF"/>
<path d="M17.1784 22.0671C17.1784 21.5368 16.9677 21.0283 16.5928 20.6533C16.2178 20.2784 15.7093 20.0677 15.179 20.0677C14.6488 20.0677 14.1402 20.2784 13.7653 20.6533C13.3903 21.0283 13.1797 21.5368 13.1797 22.0671C13.1797 22.5973 13.3903 23.1059 13.7653 23.4808C14.1402 23.8558 14.6488 24.0664 15.179 24.0664C15.7093 24.0664 16.2178 23.8558 16.5928 23.4808C16.9677 23.1059 17.1784 22.5973 17.1784 22.0671ZM29.3459 20.0638C28.8157 20.0638 28.3071 20.2745 27.9322 20.6494C27.5572 21.0244 27.3466 21.5329 27.3466 22.0632C27.3466 22.5934 27.5572 23.102 27.9322 23.4769C28.3071 23.8519 28.8157 24.0625 29.3459 24.0625C29.8762 24.0625 30.3847 23.8519 30.7597 23.4769C31.1346 23.102 31.3453 22.5934 31.3453 22.0632C31.3453 21.5329 31.1346 21.0244 30.7597 20.6494C30.3847 20.2745 29.8762 20.0638 29.3459 20.0638ZM21.4882 6.38186V10.7305H23.0414V6.38263C23.7731 6.19362 24.4107 5.74426 24.8348 5.11878C25.2588 4.49329 25.4402 3.73463 25.3449 2.98497C25.2497 2.23532 24.8843 1.54614 24.3173 1.04661C23.7502 0.547077 23.0205 0.271484 22.2648 0.271484C21.5091 0.271484 20.7794 0.547077 20.2123 1.04661C19.6453 1.54614 19.2799 2.23532 19.1847 2.98497C19.0894 3.73463 19.2708 4.49329 19.6948 5.11878C20.1189 5.74426 20.7565 6.19362 21.4882 6.38263V6.38186Z" fill="#8A31EF"/>
</svg>
