<svg width="1517" height="473" viewBox="0 0 1517 473" fill="none" xmlns="http://www.w3.org/2000/svg">
<path d="M326.06 187.051C348.765 187.051 367.725 189.629 382.939 194.785C398.153 199.942 410.325 207.443 419.454 217.053C428.582 226.662 435.137 238.383 438.882 252.212C442.626 266.04 444.499 281.275 444.499 298.151V458.475C433.498 460.819 418.049 463.631 398.621 466.913C378.959 470.194 355.318 471.836 327.464 471.836C309.91 471.836 293.993 470.194 279.714 467.147C265.436 464.1 253.031 458.944 242.731 451.912C232.433 444.88 224.474 435.738 219.09 424.255C213.473 412.769 210.898 398.939 210.898 382.298C210.898 366.359 214.176 352.999 220.496 341.983C226.815 330.966 235.475 322.059 246.008 315.496C256.776 308.934 268.948 304.246 282.757 301.199C296.567 298.386 310.846 296.745 325.592 296.745C335.657 296.745 344.552 297.214 352.276 298.151C359.999 299.089 366.319 300.028 371.235 301.434V294.167C371.235 281.042 367.257 270.494 359.298 262.524C351.34 254.555 337.529 250.57 318.102 250.57C304.994 250.57 292.119 251.508 279.481 253.383C266.841 255.259 255.839 257.836 246.476 261.352L236.646 199.238C241.094 197.832 246.711 196.426 253.499 194.785C260.287 193.145 267.543 191.973 275.501 190.567C283.46 189.394 291.651 188.223 300.546 187.519C308.271 187.519 316.931 187.051 326.06 187.051ZM332.145 412.534C339.636 412.534 346.892 412.301 353.914 412.065C360.702 411.832 366.319 411.128 370.533 410.424V352.062C367.49 351.358 362.809 350.656 356.489 349.952C350.404 349.248 344.552 349.015 339.403 349.015C332.145 349.015 325.358 349.483 319.038 350.421C312.718 351.358 307.101 352.999 302.185 355.343C297.27 357.688 293.525 360.969 290.716 365.187C287.908 369.407 286.502 374.564 286.502 380.657C286.502 392.846 290.482 401.049 298.674 405.737C306.866 410.191 318.102 412.534 332.145 412.534Z" fill="#F5EBFE"/>
<path d="M766.572 330.263C766.572 352.061 763.295 371.516 756.975 389.329C750.655 406.909 741.293 421.911 729.354 434.333C717.417 446.756 702.436 456.366 684.882 462.928C667.326 469.727 647.43 473.007 624.96 473.007C615.596 473.007 606.001 472.539 595.701 471.601C585.636 470.664 575.572 469.727 565.74 468.319C555.91 466.913 546.547 465.273 537.653 463.397C528.758 461.522 520.8 459.412 514.012 457.538V77.3563L591.02 64.9336V200.412C599.681 196.661 608.575 193.614 617.938 191.739C627.3 189.629 637.131 188.691 647.898 188.691C667.093 188.691 684.179 191.974 698.925 198.771C713.672 205.568 726.077 214.943 736.142 227.366C746.207 239.788 753.698 254.79 758.847 272.134C763.996 289.479 766.572 308.934 766.572 330.263ZM687.924 328.155C687.924 278.464 669.667 253.619 633.152 253.619C625.194 253.619 617.47 254.556 609.746 256.664C602.021 258.774 595.701 261.353 590.786 264.4V404.566C594.53 405.268 599.446 405.972 605.298 406.441C611.15 406.909 617.47 407.144 624.492 407.144C645.559 407.144 661.241 399.877 672.007 385.345C682.54 371.047 687.924 352.061 687.924 328.155Z" fill="#F5EBFE"/>
<path d="M1057.76 457.057C1044.65 460.807 1027.8 464.323 1007.2 467.605C986.602 470.886 964.835 472.527 942.13 472.527C918.957 472.527 899.764 469.48 884.548 463.152C869.334 457.057 857.162 448.15 848.034 437.134C839.14 425.883 832.82 412.523 828.84 397.053C825.095 381.583 823.223 364.472 823.223 345.956V194.539H900.232V336.815C900.232 361.66 903.508 379.473 910.062 390.49C916.615 401.507 928.787 407.131 946.811 407.131C952.428 407.131 958.28 406.897 964.367 406.429C970.452 405.96 976.069 405.256 980.985 404.554V194.539H1057.99V457.057H1057.76Z" fill="#F5EBFE"/>
<path d="M1238.44 471.366C1215.97 471.133 1197.95 468.554 1183.9 464.101C1169.86 459.647 1158.86 453.319 1150.9 445.115C1142.71 436.912 1137.32 427.301 1134.28 415.582C1131.24 404.097 1129.83 390.971 1129.83 376.438V77.3563L1206.84 64.9336V361.203C1206.84 368 1207.31 374.33 1208.48 379.72C1209.42 385.345 1211.52 389.798 1214.33 393.783C1217.14 397.534 1221.59 400.581 1226.97 403.16C1232.59 405.503 1239.84 407.144 1249.21 407.847L1238.44 471.366Z" fill="#F5EBFE"/>
<path d="M1398.54 187.051C1421.25 187.051 1440.2 189.629 1455.43 194.785C1470.64 199.942 1482.81 207.443 1491.94 217.053C1501.07 226.662 1507.62 238.383 1511.36 252.212C1515.11 266.04 1516.98 281.275 1516.98 298.151V458.475C1505.98 460.819 1490.54 463.631 1471.1 466.913C1451.44 470.194 1427.8 471.836 1399.95 471.836C1382.39 471.836 1366.48 470.194 1352.2 467.147C1337.92 464.1 1325.51 458.944 1315.22 451.912C1304.92 444.88 1296.96 435.738 1291.34 424.255C1285.72 412.769 1283.15 398.939 1283.15 382.298C1283.15 366.359 1286.42 352.999 1292.74 341.983C1299.06 330.966 1307.73 322.059 1318.26 315.496C1329.02 308.934 1341.2 304.246 1355.01 301.199C1368.82 298.386 1383.1 296.745 1397.84 296.745C1407.91 296.745 1416.8 297.214 1424.53 298.151C1432.25 299.089 1438.57 300.028 1443.48 301.434V294.167C1443.48 281.042 1439.5 270.494 1431.54 262.524C1423.59 254.555 1409.78 250.57 1390.35 250.57C1377.24 250.57 1364.37 251.508 1351.73 253.383C1339.09 255.259 1327.86 257.836 1318.73 261.352L1308.9 199.238C1313.34 197.832 1318.96 196.426 1325.75 194.785C1332.54 193.145 1339.79 191.973 1347.75 190.567C1355.71 189.394 1364.14 188.223 1372.8 187.519C1380.75 187.519 1389.65 187.051 1398.54 187.051ZM1404.63 412.534C1412.12 412.534 1419.38 412.301 1426.4 412.065C1433.19 411.832 1438.8 411.128 1443.02 410.424V352.062C1439.97 351.358 1435.29 350.656 1428.97 349.952C1422.89 349.248 1417.04 349.015 1411.89 349.015C1404.63 349.015 1397.84 349.483 1391.52 350.421C1385.2 351.358 1379.58 352.999 1374.67 355.343C1369.75 357.688 1366.01 360.969 1363.2 365.187C1360.39 369.407 1358.99 374.564 1358.99 380.657C1358.99 392.846 1362.97 401.049 1371.16 405.737C1379.35 410.191 1390.58 412.534 1404.63 412.534Z" fill="#F5EBFE"/>
<path d="M164.563 0C132.028 0 105.812 26.2518 105.812 58.832C105.812 91.4123 132.028 117.664 164.563 117.664C197.099 117.664 223.316 91.4123 223.316 58.832C223.316 26.2518 197.099 0 164.563 0Z" fill="#F5EBFE"/>
<path d="M77.0086 192.181V5.37109C57.581 10.2933 41.8984 18.9658 29.7268 31.8573C9.83089 52.4835 0 80.3761 0 115.535V461.729H77.0086V256.403H172.041V192.181H77.0086Z" fill="#F5EBFE"/>
</svg>
