<svg width="122" height="38" viewBox="0 0 122 38" fill="none" xmlns="http://www.w3.org/2000/svg">
<g clip-path="url(#clip0_2746_613)">
<path d="M26.2225 15.0273C28.0484 15.0273 29.5732 15.2345 30.7968 15.6487C32.0203 16.063 32.9992 16.6656 33.7334 17.4377C34.4675 18.2097 34.9946 19.1513 35.2958 20.2622C35.5969 21.3732 35.7476 22.5972 35.7476 23.953V36.8331C34.8628 37.0214 33.6204 37.2473 32.058 37.511C30.4767 37.7746 28.5755 37.9065 26.3354 37.9065C24.9236 37.9065 23.6435 37.7746 22.4952 37.5298C21.347 37.285 20.3493 36.8708 19.521 36.3058C18.6928 35.7409 18.0527 35.0065 17.6197 34.0839C17.168 33.1612 16.9609 32.0501 16.9609 30.7132C16.9609 29.4327 17.2245 28.3594 17.7328 27.4743C18.241 26.5892 18.9375 25.8737 19.7845 25.3464C20.6505 24.8193 21.6294 24.4426 22.7399 24.1978C23.8506 23.9719 24.9989 23.84 26.1848 23.84C26.9943 23.84 27.7096 23.8777 28.3308 23.953C28.9519 24.0283 29.4602 24.1037 29.8555 24.2167V23.6328C29.8555 22.5784 29.5356 21.731 28.8955 21.0908C28.2555 20.4505 27.1448 20.1304 25.5824 20.1304C24.5283 20.1304 23.4929 20.2057 22.4765 20.3563C21.46 20.5071 20.5751 20.7141 19.8222 20.9966L19.0316 16.0065C19.3893 15.8935 19.8411 15.7806 20.3869 15.6487C20.9328 15.517 21.5164 15.4228 22.1564 15.3098C22.7965 15.2156 23.4553 15.1215 24.1706 15.065C24.7918 15.065 25.4883 15.0273 26.2225 15.0273ZM26.7118 33.1423C27.3142 33.1423 27.8978 33.1235 28.4625 33.1046C29.0084 33.0859 29.4602 33.0293 29.799 32.9728V28.284C29.5543 28.2275 29.1779 28.1711 28.6696 28.1145C28.1802 28.058 27.7096 28.0392 27.2955 28.0392C26.7118 28.0392 26.166 28.0769 25.6577 28.1522C25.1494 28.2275 24.6977 28.3594 24.3023 28.5476C23.9071 28.736 23.6059 28.9996 23.38 29.3385C23.1542 29.6775 23.0411 30.0918 23.0411 30.5813C23.0411 31.5606 23.3612 32.2196 24.02 32.5962C24.6788 32.954 25.5824 33.1423 26.7118 33.1423Z" fill="white"/>
<path d="M61.6473 26.5329C61.6473 28.2841 61.3838 29.8471 60.8755 31.2782C60.3672 32.6905 59.6143 33.8957 58.6542 34.8937C57.6942 35.8917 56.4894 36.6638 55.0776 37.191C53.6658 37.7372 52.0657 38.0007 50.2586 38.0007C49.5056 38.0007 48.7339 37.9631 47.9055 37.8878C47.0961 37.8125 46.2867 37.7372 45.496 37.6241C44.7054 37.5111 43.9525 37.3794 43.2372 37.2286C42.5219 37.078 41.8818 36.9085 41.3359 36.7579V6.21482L47.5291 5.2168V16.1009C48.2256 15.7995 48.9409 15.5547 49.6939 15.4041C50.4468 15.2346 51.2374 15.1593 52.1034 15.1593C53.647 15.1593 55.0211 15.423 56.2071 15.969C57.393 16.5151 58.3906 17.2683 59.2001 18.2663C60.0095 19.2643 60.6119 20.4695 61.0261 21.8629C61.4402 23.2564 61.6473 24.8193 61.6473 26.5329ZM55.3223 26.3635C55.3223 22.3715 53.8541 20.3754 50.9174 20.3754C50.2774 20.3754 49.6562 20.4507 49.0351 20.6201C48.4138 20.7896 47.9055 20.9968 47.5103 21.2416V32.5023C47.8114 32.5587 48.2067 32.6152 48.6773 32.6529C49.148 32.6905 49.6562 32.7094 50.221 32.7094C51.9152 32.7094 53.1764 32.1256 54.0422 30.9581C54.8893 29.8094 55.3223 28.2841 55.3223 26.3635Z" fill="white"/>
<path d="M85.065 36.7191C84.0109 37.0204 82.6555 37.3028 80.999 37.5665C79.3424 37.8301 77.5918 37.962 75.7659 37.962C73.9022 37.962 72.3587 37.7172 71.135 37.2088C69.9115 36.7191 68.9326 36.0036 68.1985 35.1185C67.4832 34.2147 66.9749 33.1414 66.6549 31.8985C66.3537 30.6557 66.2031 29.281 66.2031 27.7935V15.6289H72.3964V27.0591C72.3964 29.0551 72.6598 30.4862 73.1869 31.3713C73.7139 32.2563 74.6928 32.7082 76.1423 32.7082C76.5941 32.7082 77.0647 32.6894 77.5542 32.6518C78.0436 32.6141 78.4953 32.5576 78.8907 32.5011V15.6289H85.0839V36.7191H85.065Z" fill="white"/>
<path d="M99.5978 37.8689C97.7907 37.8501 96.3412 37.643 95.2118 37.2852C94.0822 36.9274 93.1975 36.419 92.5575 35.7599C91.8987 35.1009 91.4657 34.3288 91.221 33.3873C90.9763 32.4646 90.8633 31.41 90.8633 30.2425V6.21482L97.0565 5.2168V29.0186C97.0565 29.5646 97.0941 30.0731 97.1883 30.5062C97.2636 30.9581 97.433 31.3159 97.6589 31.636C97.8847 31.9373 98.2424 32.1821 98.6754 32.3893C99.1272 32.5776 99.7107 32.7094 100.464 32.7658L99.5978 37.8689Z" fill="white"/>
<path d="M112.476 15.0273C114.302 15.0273 115.826 15.2345 117.05 15.6487C118.274 16.063 119.252 16.6656 119.987 17.4377C120.721 18.2097 121.248 19.1513 121.548 20.2622C121.85 21.3732 122.001 22.5972 122.001 23.953V36.8331C121.116 37.0214 119.874 37.2473 118.311 37.511C116.729 37.7746 114.829 37.9065 112.589 37.9065C111.177 37.9065 109.897 37.7746 108.748 37.5298C107.6 37.285 106.602 36.8708 105.774 36.3058C104.946 35.7409 104.306 35.0065 103.854 34.0839C103.402 33.1612 103.195 32.0501 103.195 30.7132C103.195 29.4327 103.459 28.3594 103.967 27.4743C104.475 26.5892 105.172 25.8737 106.019 25.3464C106.885 24.8193 107.864 24.4426 108.974 24.1978C110.085 23.9719 111.233 23.84 112.419 23.84C113.229 23.84 113.944 23.8777 114.565 23.953C115.186 24.0283 115.695 24.1037 116.089 24.2167V23.6328C116.089 22.5784 115.769 21.731 115.13 21.0908C114.49 20.4505 113.379 20.1304 111.817 20.1304C110.763 20.1304 109.727 20.2057 108.711 20.3563C107.694 20.5071 106.791 20.7141 106.057 20.9966L105.266 16.0065C105.624 15.8935 106.075 15.7806 106.621 15.6487C107.167 15.517 107.751 15.4228 108.391 15.3098C109.031 15.2156 109.709 15.1215 110.405 15.065C111.045 15.065 111.76 15.0273 112.476 15.0273ZM112.965 33.1423C113.567 33.1423 114.151 33.1235 114.716 33.1046C115.262 33.0859 115.713 33.0293 116.053 32.9728V28.284C115.807 28.2275 115.431 28.1711 114.923 28.1145C114.433 28.058 113.963 28.0392 113.549 28.0392C112.965 28.0392 112.419 28.0769 111.911 28.1522C111.403 28.2275 110.951 28.3594 110.556 28.5476C110.16 28.736 109.859 28.9996 109.633 29.3385C109.407 29.6775 109.294 30.0918 109.294 30.5813C109.294 31.5606 109.614 32.2196 110.273 32.5962C110.932 32.954 111.836 33.1423 112.965 33.1423Z" fill="white"/>
<path d="M13.2327 0C10.6161 0 8.50781 2.10902 8.50781 4.72646C8.50781 7.3439 10.6161 9.45293 13.2327 9.45293C15.8492 9.45293 17.9576 7.3439 17.9576 4.72646C17.9576 2.10902 15.8492 0 13.2327 0Z" fill="white"/>
<path d="M6.19318 15.4396V0.431641C4.63077 0.827082 3.36955 1.52381 2.39068 2.5595C0.790619 4.21657 0 6.45741 0 9.28198V37.0947H6.19318V20.5991H13.8358V15.4396H6.19318Z" fill="white"/>
</g>
<defs>
<clipPath id="clip0_2746_613">
<rect width="122" height="38" fill="white"/>
</clipPath>
</defs>
</svg>
