<svg width="48" height="70" viewBox="0 0 48 70" fill="none" xmlns="http://www.w3.org/2000/svg">
<path d="M31.5674 17.3701C31.3263 17.2197 31.0762 17.1323 30.8424 17.1169C30.6086 17.1015 30.3995 17.1587 30.2365 17.2825L18.1669 26.4529L2.67225 1.85883C2.45951 1.53376 2.17505 1.26016 1.86466 1.08207C1.55427 0.903993 1.23602 0.831796 0.961151 0.877109C0.686281 0.922422 0.470786 1.08261 0.349361 1.33187C0.227937 1.58114 0.207648 1.90498 0.291763 2.25126L14.7507 51.7522C14.823 52.0256 14.9573 52.2999 15.1395 52.5468C15.3218 52.7937 15.5454 53.0044 15.7875 53.1569C16.0295 53.3095 16.2812 53.3985 16.5165 53.4148C16.7518 53.4311 16.9623 53.374 17.1262 53.2495L29.0155 44.2162L44.9563 68.5259C45.1742 68.8454 45.4608 69.1111 45.7704 69.2809C46.0801 69.4507 46.395 69.5147 46.6651 69.4628C46.9352 69.4108 47.145 69.246 47.2611 68.9943C47.3771 68.7427 47.3928 68.4189 47.3056 68.0743L32.6073 18.7617C32.5326 18.4896 32.397 18.2175 32.2143 17.973C32.0316 17.7285 31.8084 17.5205 31.5674 17.3701Z" fill="white"/>
</svg>
