<svg width="189" height="59" viewBox="0 0 189 59" fill="none" xmlns="http://www.w3.org/2000/svg">
<path fill-rule="evenodd" clip-rule="evenodd" d="M20.5033 0.246094C16.4498 0.246094 13.1836 3.50694 13.1836 7.55386C13.1836 11.6008 16.4498 14.8616 20.5033 14.8616C24.5568 14.8616 27.8232 11.6008 27.8232 7.55386C27.8232 3.50694 24.5568 0.246094 20.5033 0.246094ZM95.5053 41.2702C95.5053 43.9778 95.097 46.3944 94.3096 48.6071C93.5222 50.7907 92.3558 52.6541 90.8684 54.1972C89.3811 55.7402 87.5147 56.934 85.3276 57.7491C83.1403 58.5935 80.6616 59.001 77.862 59.001C76.6954 59.001 75.4999 58.9428 74.2166 58.8264C72.9626 58.7099 71.7088 58.5935 70.4838 58.4187C69.2591 58.244 68.0926 58.0403 66.9845 57.8073C65.8763 57.5744 64.8848 57.3123 64.0391 57.0795V9.85558L73.6334 8.3125V25.1408C74.7125 24.6749 75.8206 24.2964 76.9871 24.0635C78.1536 23.8014 79.3783 23.685 80.7199 23.685C83.1113 23.685 85.24 24.0927 87.0773 24.937C88.9145 25.7812 90.4601 26.9458 91.7141 28.4889C92.9681 30.0319 93.9013 31.8953 94.5428 34.0498C95.1844 36.2042 95.5053 38.6208 95.5053 41.2702ZM85.7067 41.0083C85.7067 34.836 83.432 31.7498 78.8826 31.7498C77.8911 31.7498 76.9288 31.8663 75.9665 32.1282C75.004 32.3903 74.2166 32.7105 73.6043 33.0891V50.4996C74.0708 50.5869 74.6832 50.6743 75.4123 50.7325C76.1414 50.7907 76.9288 50.8199 77.8037 50.8199C80.4284 50.8199 82.3822 49.9173 83.7236 48.1121C85.0359 46.3362 85.7067 43.9778 85.7067 41.0083ZM40.6213 23.4805C43.4501 23.4805 45.8123 23.8008 47.7078 24.4412C49.6034 25.0818 51.1198 26.0134 52.2572 27.2072C53.3944 28.4008 54.2111 29.8566 54.6777 31.5744C55.1441 33.2921 55.3775 35.1845 55.3775 37.2807V57.1952C54.0069 57.4863 52.0821 57.8357 49.6617 58.2434C47.2119 58.6509 44.2666 58.8548 40.7962 58.8548C38.6092 58.8548 36.6261 58.6509 34.8472 58.2724C33.0682 57.8939 31.5227 57.2535 30.2394 56.38C28.9564 55.5065 27.9648 54.371 27.294 52.9445C26.5942 51.5179 26.2734 49.8 26.2734 47.7329C26.2734 45.7531 26.6818 44.0936 27.4691 42.7252C28.2565 41.3568 29.3354 40.2504 30.6478 39.4352C31.9893 38.6201 33.5058 38.0378 35.2262 37.6592C36.9469 37.3099 38.7258 37.1061 40.563 37.1061C41.817 37.1061 42.9252 37.1643 43.8875 37.2807C44.8498 37.3972 45.6372 37.5138 46.2496 37.6884V36.7858C46.2496 35.1555 45.754 33.8453 44.7624 32.8554C43.7709 31.8655 42.0503 31.3705 39.6298 31.3705C37.9967 31.3705 36.3927 31.4869 34.8181 31.7198C33.2433 31.9529 31.8725 32.273 30.7061 32.7097L29.4813 24.9943C30.0355 24.8197 30.7353 24.645 31.581 24.4412C32.2842 24.2718 33.0277 24.1426 33.8283 24.0034L33.8283 24.0034L33.8283 24.0034L33.8284 24.0034L33.8285 24.0034L33.8286 24.0034L33.8296 24.0032C33.9915 23.9751 34.1556 23.9466 34.3222 23.9172C35.3138 23.7716 36.3344 23.6261 37.4425 23.5387C37.9037 23.5387 38.3916 23.5253 38.8998 23.5114C39.4523 23.4963 40.0289 23.4805 40.6213 23.4805ZM41.3795 51.4887C42.3127 51.4887 43.2167 51.4597 44.0916 51.4305C44.9373 51.4015 45.6372 51.314 46.1621 51.2266V43.9772C45.783 43.8898 45.1998 43.8025 44.4124 43.7151C43.6543 43.6277 42.9252 43.5987 42.2836 43.5987C41.3795 43.5987 40.5338 43.6569 39.7464 43.7733C38.959 43.8898 38.2592 44.0936 37.6467 44.3847C37.0344 44.676 36.5678 45.0835 36.2178 45.6075C35.8679 46.1316 35.6928 46.7722 35.6928 47.5291C35.6928 49.0431 36.1887 50.0621 37.2093 50.6444C38.2299 51.1976 39.6298 51.4887 41.3795 51.4887ZM125.484 58.3288C128.05 57.9211 130.15 57.4843 131.783 57.0186H131.812V24.4102H122.218V50.497C121.605 50.5842 120.906 50.6716 120.147 50.7298C119.389 50.7881 118.66 50.8171 117.96 50.8171C115.715 50.8171 114.198 50.1185 113.382 48.75C112.565 47.3816 112.157 45.1689 112.157 42.0828V24.4102H102.562V43.2183C102.562 45.5183 102.796 47.6437 103.262 49.5653C103.758 51.4869 104.546 53.1464 105.654 54.5438C106.791 55.9122 108.307 57.0186 110.203 57.7756C112.099 58.5617 114.49 58.9402 117.377 58.9402C120.206 58.9402 122.918 58.7363 125.484 58.3288ZM154.297 58.7972C151.498 58.7682 149.252 58.4479 147.502 57.8947C145.752 57.3415 144.382 56.5555 143.39 55.5364C142.37 54.5175 141.699 53.3237 141.32 51.868C140.941 50.4414 140.766 48.8109 140.766 47.0058V9.85558L150.36 8.3125V45.1134C150.36 45.9576 150.418 46.7439 150.564 47.4135C150.681 48.1121 150.943 48.6653 151.293 49.1602C151.643 49.6262 152.197 50.0047 152.868 50.325C153.568 50.6161 154.472 50.8199 155.638 50.9072L154.297 58.7972ZM181.332 24.4412C179.434 23.8008 177.073 23.4805 174.244 23.4805C173.675 23.4805 173.105 23.4958 172.552 23.5108L172.551 23.5108C172.028 23.5249 171.518 23.5387 171.036 23.5387C169.957 23.6261 168.908 23.7716 167.916 23.9172C167.749 23.9466 167.585 23.9752 167.422 24.0034C166.622 24.1426 165.878 24.2718 165.175 24.4412C164.329 24.645 163.629 24.8197 163.075 24.9943L164.3 32.7097C165.437 32.273 166.837 31.9529 168.412 31.7198C169.986 31.4869 171.59 31.3705 173.224 31.3705C175.644 31.3705 177.365 31.8655 178.356 32.8554C179.347 33.8453 179.843 35.1555 179.843 36.7858V37.6884C179.231 37.5138 178.443 37.3972 177.481 37.2807C176.519 37.1643 175.411 37.1061 174.157 37.1061C172.32 37.1061 170.541 37.3099 168.82 37.6592C167.099 38.0378 165.583 38.6201 164.242 39.4352C162.929 40.2504 161.85 41.3568 161.063 42.7252C160.275 44.0936 159.867 45.7531 159.867 47.7329C159.867 49.8 160.188 51.5179 160.888 52.9445C161.588 54.371 162.579 55.5065 163.862 56.38C165.146 57.2535 166.691 57.8939 168.47 58.2724C170.249 58.6509 172.232 58.8548 174.419 58.8548C177.89 58.8548 180.834 58.6509 183.284 58.2434C185.705 57.8357 187.629 57.4863 189 57.1952V37.2807C189 35.1845 188.767 33.2921 188.3 31.5744C187.834 29.8566 187.018 28.4008 185.88 27.2072C184.742 26.0134 183.227 25.0818 181.332 24.4412ZM177.714 51.4305C176.84 51.4597 175.936 51.4887 175.002 51.4887C173.253 51.4887 171.853 51.1976 170.832 50.6444C169.812 50.0621 169.316 49.0431 169.316 47.5291C169.316 46.7722 169.491 46.1316 169.841 45.6075C170.191 45.0835 170.657 44.676 171.27 44.3847C171.882 44.0936 172.582 43.8898 173.369 43.7733C174.157 43.6569 175.002 43.5987 175.906 43.5987C176.548 43.5987 177.277 43.6277 178.035 43.7151C178.823 43.8025 179.406 43.8898 179.786 43.9772V51.2266C179.26 51.314 178.561 51.4015 177.714 51.4305ZM9.59443 0.914062V24.1185H21.4344V32.0958H9.59443V57.6002H0V14.5979C0 10.2307 1.22482 6.76609 3.70363 4.20402C5.22008 2.60271 7.17396 1.52547 9.59443 0.914062Z" fill="url(#paint0_linear_2746_950)"/>
<defs>
<linearGradient id="paint0_linear_2746_950" x1="-3.8933" y1="11.2182" x2="185.109" y2="58.9992" gradientUnits="userSpaceOnUse">
<stop stop-color="#9643F5"/>
<stop offset="0.455249" stop-color="#B16FFC"/>
<stop offset="1" stop-color="#7C2DD6"/>
</linearGradient>
</defs>
</svg>
