<svg width="38" height="30" viewBox="0 0 38 30" fill="none" xmlns="http://www.w3.org/2000/svg">
<path fill-rule="evenodd" clip-rule="evenodd" d="M33.436 0H3.71511C2.37566 0 1.19586 0.718401 0.541983 1.78892C0.752788 1.84826 0.957364 1.94349 1.14692 2.07619L18.5756 14.2762L36.0042 2.07619C36.1937 1.9435 36.3983 1.84826 36.6091 1.78892C35.9553 0.718401 34.7754 0 33.436 0ZM37.1511 6.15596L19.7225 18.356C19.0338 18.8381 18.1173 18.8381 17.4286 18.356L0 6.15596V26.0058C0 28.0491 1.6718 29.7209 3.71511 29.7209H33.436C35.4793 29.7209 37.1511 28.0491 37.1511 26.0058V6.15596Z" fill="white"/>
</svg>
