<svg width="85" height="68" viewBox="0 0 85 68" fill="none" xmlns="http://www.w3.org/2000/svg">
<path d="M36.8754 0.542969L23.9118 47.6783L19.5906 30.0025C25.2213 30.0025 29.8044 31.6392 33.3399 34.9124C36.8754 38.1857 38.6432 42.7029 38.6432 48.4638C38.6432 54.0939 36.81 58.6765 33.1435 62.2116C29.6079 65.6158 25.1558 67.318 19.787 67.318C14.2873 67.318 9.70417 65.6158 6.03768 62.2116C2.50214 58.6765 0.734375 54.0939 0.734375 48.4638C0.734375 46.7617 0.865321 45.1251 1.12721 43.5539C1.3891 41.8518 1.91289 39.8878 2.69856 37.662C3.48424 35.4362 4.59728 32.4902 6.03768 28.8241L17.43 0.542969H36.8754ZM83.2303 0.542969L70.2666 47.6783L65.9454 30.0025C71.5761 30.0025 76.1592 31.6392 79.6947 34.9124C83.2303 38.1857 84.998 42.7029 84.998 48.4638C84.998 54.0939 83.1648 58.6765 79.4983 62.2116C75.9628 65.6158 71.5106 67.318 66.1418 67.318C60.6421 67.318 56.059 65.6158 52.3925 62.2116C48.857 58.6765 47.0892 54.0939 47.0892 48.4638C47.0892 46.7617 47.2202 45.1251 47.4821 43.5539C47.7439 41.8518 48.2677 39.8878 49.0534 37.662C49.8391 35.4362 50.9521 32.4902 52.3925 28.8241L63.7848 0.542969H83.2303Z" fill="#C6F806"/>
</svg>
