<svg width="1521" height="1161" viewBox="0 0 1521 1161" fill="none" xmlns="http://www.w3.org/2000/svg">
<g opacity="0.23">
<mask id="mask0_5074_239" style="mask-type:alpha" maskUnits="userSpaceOnUse" x="0" y="0" width="1521" height="1161">
<line x1="758.498" y1="3.06147e-08" x2="758.498" y2="1161" stroke="white"/>
<line x1="709.924" y1="3.06147e-08" x2="709.924" y2="1161" stroke="white"/>
<line x1="1487.14" y1="3.06147e-08" x2="1487.14" y2="1161" stroke="white"/>
<line x1="661.346" y1="3.06147e-08" x2="661.346" y2="1161" stroke="white"/>
<line x1="1438.57" y1="3.06147e-08" x2="1438.57" y2="1161" stroke="white"/>
<line x1="612.771" y1="3.06147e-08" x2="612.771" y2="1161" stroke="white"/>
<line x1="1389.99" y1="3.06147e-08" x2="1389.99" y2="1161" stroke="white"/>
<line x1="564.193" y1="3.06147e-08" x2="564.193" y2="1161" stroke="white"/>
<line x1="1341.41" y1="3.06147e-08" x2="1341.41" y2="1161" stroke="white"/>
<line x1="515.615" y1="3.06147e-08" x2="515.615" y2="1161" stroke="white"/>
<line x1="1292.84" y1="3.06147e-08" x2="1292.84" y2="1161" stroke="white"/>
<line x1="467.043" y1="3.06147e-08" x2="467.043" y2="1161" stroke="white"/>
<line x1="1244.26" y1="3.06147e-08" x2="1244.26" y2="1161" stroke="white"/>
<line x1="418.465" y1="3.06147e-08" x2="418.465" y2="1161" stroke="white"/>
<line x1="1195.69" y1="3.06147e-08" x2="1195.69" y2="1161" stroke="white"/>
<line x1="369.887" y1="3.06147e-08" x2="369.887" y2="1161" stroke="white"/>
<line x1="1147.11" y1="3.06147e-08" x2="1147.11" y2="1161" stroke="white"/>
<line x1="321.312" y1="3.06147e-08" x2="321.312" y2="1161" stroke="white"/>
<line x1="1098.54" y1="3.06147e-08" x2="1098.54" y2="1161" stroke="white"/>
<line x1="272.734" y1="3.06147e-08" x2="272.734" y2="1161" stroke="white"/>
<line x1="1049.96" y1="3.06147e-08" x2="1049.96" y2="1161" stroke="white"/>
<line x1="224.16" y1="3.06147e-08" x2="224.16" y2="1161" stroke="white"/>
<line x1="1001.38" y1="3.06147e-08" x2="1001.38" y2="1161" stroke="white"/>
<line x1="175.584" y1="3.06147e-08" x2="175.584" y2="1161" stroke="white"/>
<line x1="952.805" y1="3.06147e-08" x2="952.805" y2="1161" stroke="white"/>
<line x1="127.008" y1="3.06147e-08" x2="127.008" y2="1161" stroke="white"/>
<line x1="904.227" y1="3.06147e-08" x2="904.227" y2="1161" stroke="white"/>
<line x1="78.4297" y1="3.06147e-08" x2="78.4296" y2="1161" stroke="white"/>
<line x1="855.652" y1="3.06147e-08" x2="855.652" y2="1161" stroke="white"/>
<line x1="29.8555" y1="2.9301e-08" x2="29.8554" y2="1161" stroke="white"/>
<line x1="807.076" y1="3.06147e-08" x2="807.076" y2="1161" stroke="white"/>
<line x1="1520.04" y1="1078.38" x2="-5.07735e-08" y2="1078.38" stroke="white"/>
<line x1="1520.04" y1="993.496" x2="-5.07735e-08" y2="993.496" stroke="white"/>
<line x1="1520.04" y1="908.613" x2="-5.07735e-08" y2="908.613" stroke="white"/>
<line x1="1520.04" y1="823.727" x2="-5.07735e-08" y2="823.726" stroke="white"/>
<line x1="1520.04" y1="738.836" x2="-5.07735e-08" y2="738.836" stroke="white"/>
<line x1="1520.04" y1="653.953" x2="-5.07735e-08" y2="653.953" stroke="white"/>
<line x1="1520.04" y1="569.062" x2="-5.07735e-08" y2="569.062" stroke="white"/>
<line x1="1520.04" y1="484.18" x2="-5.07735e-08" y2="484.18" stroke="white"/>
<line x1="1520.04" y1="399.293" x2="-5.07735e-08" y2="399.293" stroke="white"/>
<line x1="1520.04" y1="314.406" x2="-5.07735e-08" y2="314.406" stroke="white"/>
<line x1="1520.04" y1="229.52" x2="-5.07735e-08" y2="229.519" stroke="white"/>
<line x1="1520.04" y1="144.633" x2="-5.07735e-08" y2="144.633" stroke="white"/>
<line x1="1520.04" y1="59.7461" x2="-5.07735e-08" y2="59.7459" stroke="white"/>
</mask>
<g mask="url(#mask0_5074_239)">
<g filter="url(#filter0_f_5074_239)">
<ellipse cx="760.023" cy="580.498" rx="670.961" ry="477.045" fill="url(#paint0_radial_5074_239)"/>
</g>
</g>
</g>
<defs>
<filter id="filter0_f_5074_239" x="-302.337" y="-287.947" width="2124.72" height="1736.89" filterUnits="userSpaceOnUse" color-interpolation-filters="sRGB">
<feFlood flood-opacity="0" result="BackgroundImageFix"/>
<feBlend mode="normal" in="SourceGraphic" in2="BackgroundImageFix" result="shape"/>
<feGaussianBlur stdDeviation="195.7" result="effect1_foregroundBlur_5074_239"/>
</filter>
<radialGradient id="paint0_radial_5074_239" cx="0" cy="0" r="1" gradientUnits="userSpaceOnUse" gradientTransform="translate(760.023 580.498) rotate(90) scale(477.045 670.961)">
<stop stop-color="#D9D9D9" stop-opacity="0.4"/>
<stop offset="1" stop-color="#D9D9D9" stop-opacity="0.13"/>
</radialGradient>
</defs>
</svg>
