<svg width="38" height="38" viewBox="0 0 38 38" fill="none" xmlns="http://www.w3.org/2000/svg">
<path d="M37.0956 27.7149V33.2876C37.0977 33.8049 36.9918 34.317 36.7845 34.791C36.5773 35.265 36.2733 35.6905 35.8921 36.0402C35.5109 36.39 35.0608 36.6562 34.5707 36.822C34.0807 36.9877 33.5614 37.0493 33.0462 37.0027C27.3301 36.3816 21.8395 34.4284 17.0154 31.3C12.5273 28.448 8.72209 24.6428 5.87012 20.1547C2.73081 15.3087 0.777151 9.79134 0.167421 4.04965C0.121002 3.53598 0.182049 3.01826 0.346676 2.52947C0.511303 2.04068 0.775902 1.59153 1.12363 1.2106C1.47135 0.829677 1.89459 0.525328 2.36638 0.316934C2.83817 0.10854 3.34819 0.000665807 3.86396 0.000180094H9.43662C10.3381 -0.00869242 11.2121 0.310538 11.8956 0.898369C12.5791 1.4862 13.0256 2.30252 13.1517 3.19518C13.3869 4.97855 13.8231 6.7296 14.452 8.41491C14.7019 9.07977 14.756 9.80234 14.6079 10.497C14.4597 11.1917 14.1156 11.8293 13.6161 12.3343L11.257 14.6934C13.9014 19.3439 17.7519 23.1944 22.4024 25.8388L24.7615 23.4797C25.2665 22.9803 25.9041 22.6361 26.5988 22.4879C27.2935 22.3398 28.016 22.3939 28.6809 22.6438C30.3662 23.2727 32.1173 23.7089 33.9006 23.9441C34.803 24.0714 35.627 24.5259 36.2161 25.2211C36.8052 25.9164 37.1182 26.8039 37.0956 27.7149Z" fill="white"/>
</svg>
