<svg width="199" height="175" viewBox="0 0 199 175" fill="none" xmlns="http://www.w3.org/2000/svg">
<path d="M150.555 125.242C153.193 131.852 152.956 138.839 150.485 144.879L198.234 127.972L157.323 12.4281C154.11 3.35534 144.174 -1.40415 135.129 1.79985L19.9439 42.5841L36.9033 90.4816C31.1744 88.1169 24.5954 87.7722 18.3023 90.0004C4.41898 94.9162 -2.6844 110.432 2.81787 124.289C7.81606 136.879 21.8523 143.616 34.7495 139.617C41.5257 137.517 46.7858 132.935 49.9059 127.206L66.6712 174.556L113.874 157.843C108.439 154.86 104.032 149.943 101.797 143.631C96.866 129.704 104.407 114.398 118.597 109.971C131.487 105.949 145.535 112.662 150.555 125.242Z" fill="white"/>
</svg>
