<svg width="184" height="193" viewBox="0 0 184 193" fill="none" xmlns="http://www.w3.org/2000/svg">
<path d="M34.3996 83.5103C27.7578 86.0656 22.7918 90.9875 20.0397 96.9038L0.000641591 50.3825L112.574 1.89159C121.413 -1.91602 131.657 2.14064 135.452 10.9539L183.792 123.178L137.126 143.279C142.754 145.876 147.477 150.469 150.118 156.6C155.944 170.126 149.387 185.88 135.481 191.259C122.848 196.146 108.368 190.425 102.538 178.245C99.4752 171.846 99.2632 164.873 101.346 158.692L55.2139 178.564L35.4041 132.575C41.2851 134.536 47.8868 134.428 54.0372 131.779C67.6057 125.934 73.7122 110.001 67.3189 96.5823C61.5112 84.3918 47.0409 78.6464 34.3996 83.5103Z" fill="white"/>
</svg>
