<svg width="646" height="322" fill="none" xmlns="http://www.w3.org/2000/svg"><g clip-path="url(#a)"><rect width="646" height="322" rx="22" fill="#2D1D3F"/><rect x="38.5" y="30.5" width="404" height="265" rx="11.5" stroke="#fff"/><rect x="52.5" y="46.5" width="179" height="110" rx="5.5" stroke="#fff"/><rect x="52.5" y="171.5" width="179" height="110" rx="5.5" stroke="#fff"/><rect x="247.5" y="46.5" width="180" height="110" rx="5.5" stroke="#fff"/><rect x="247.5" y="171.5" width="180" height="110" rx="5.5" stroke="#fff"/><path d="M142.5 96.5c2.14 0 3.966-.757 5.48-2.27 1.513-1.514 2.27-3.34 2.27-5.48 0-2.14-.757-3.966-2.27-5.48-1.514-1.513-3.341-2.27-5.48-2.27-2.139 0-3.966.757-5.48 2.27-1.513 1.514-2.27 3.34-2.27 5.48 0 2.14.757 3.966 2.27 5.48 1.514 1.513 3.341 2.27 5.48 2.27Z" fill="#fff"/><path d="M156.638 104.684a20.85 20.85 0 0 0-.283-2.2 17.125 17.125 0 0 0-.535-2.19 10.38 10.38 0 0 0-.868-1.968 7.091 7.091 0 0 0-1.251-1.635 5.282 5.282 0 0 0-1.726-1.08c-.68-.268-1.43-.403-2.251-.403-.121 0-.403.145-.847.434-.444.29-.945.612-1.504.969-.558.356-1.285.68-2.179.968a8.712 8.712 0 0 1-2.695.434 8.71 8.71 0 0 1-2.694-.434c-.895-.289-1.621-.612-2.18-.968-.558-.357-1.059-.68-1.503-.969-.444-.29-.727-.434-.848-.434-.82 0-1.571.135-2.25.404a5.257 5.257 0 0 0-1.726 1.08 7.091 7.091 0 0 0-1.251 1.634c-.363.64-.652 1.296-.868 1.968a17.128 17.128 0 0 0-.534 2.19c-.142.787-.236 1.52-.283 2.2a30.264 30.264 0 0 0-.071 2.089c0 1.614.491 2.889 1.474 3.825.982.934 2.287 1.402 3.915 1.402h17.64c1.628 0 2.933-.468 3.915-1.402.983-.936 1.474-2.211 1.474-3.825 0-.713-.024-1.41-.071-2.089ZM142.5 226.5c2.14 0 3.966-.757 5.48-2.27 1.513-1.514 2.27-3.34 2.27-5.48 0-2.139-.757-3.966-2.27-5.48-1.514-1.513-3.341-2.27-5.48-2.27-2.139 0-3.966.757-5.48 2.27-1.513 1.514-2.27 3.341-2.27 5.48 0 2.14.757 3.966 2.27 5.48 1.514 1.513 3.341 2.27 5.48 2.27Z" fill="#fff"/><path d="M156.638 234.684a20.85 20.85 0 0 0-.283-2.2 17.125 17.125 0 0 0-.535-2.19 10.368 10.368 0 0 0-.868-1.968 7.094 7.094 0 0 0-1.251-1.635 5.276 5.276 0 0 0-1.726-1.079c-.68-.269-1.43-.404-2.251-.404-.121 0-.403.145-.847.434-.444.289-.945.612-1.504.969-.558.356-1.285.679-2.179.968a8.724 8.724 0 0 1-2.695.434 8.723 8.723 0 0 1-2.694-.434c-.895-.289-1.621-.612-2.18-.968-.558-.357-1.059-.68-1.503-.969-.444-.289-.727-.434-.848-.434-.82 0-1.571.135-2.25.404a5.271 5.271 0 0 0-1.726 1.079 7.094 7.094 0 0 0-1.251 1.635 10.46 10.46 0 0 0-.868 1.968 17.128 17.128 0 0 0-.534 2.19c-.142.787-.236 1.52-.283 2.2a30.264 30.264 0 0 0-.071 2.089c0 1.614.491 2.889 1.474 3.825.982.934 2.287 1.402 3.915 1.402h17.64c1.628 0 2.933-.468 3.915-1.402.983-.936 1.474-2.211 1.474-3.825 0-.713-.024-1.41-.071-2.089ZM337.5 96.5c2.14 0 3.966-.757 5.48-2.27 1.513-1.514 2.27-3.34 2.27-5.48 0-2.14-.757-3.966-2.27-5.48-1.514-1.513-3.341-2.27-5.48-2.27-2.139 0-3.966.757-5.48 2.27-1.513 1.514-2.27 3.34-2.27 5.48 0 2.14.757 3.966 2.27 5.48 1.514 1.513 3.341 2.27 5.48 2.27Z" fill="#fff"/><path d="M351.638 104.684a20.85 20.85 0 0 0-.283-2.2 17.125 17.125 0 0 0-.535-2.19 10.38 10.38 0 0 0-.868-1.968 7.091 7.091 0 0 0-1.251-1.635 5.282 5.282 0 0 0-1.726-1.08c-.68-.268-1.43-.403-2.251-.403-.121 0-.403.145-.847.434-.444.29-.945.612-1.504.969-.558.356-1.285.68-2.179.968a8.712 8.712 0 0 1-2.695.434 8.71 8.71 0 0 1-2.694-.434c-.895-.289-1.621-.612-2.18-.968-.558-.357-1.059-.68-1.503-.969-.444-.29-.727-.434-.848-.434-.82 0-1.571.135-2.25.404a5.257 5.257 0 0 0-1.726 1.08 7.091 7.091 0 0 0-1.251 1.634c-.363.64-.652 1.296-.868 1.968a17.128 17.128 0 0 0-.534 2.19c-.142.787-.236 1.52-.283 2.2a30.264 30.264 0 0 0-.071 2.089c0 1.614.491 2.889 1.474 3.825.982.934 2.287 1.402 3.915 1.402h17.64c1.628 0 2.933-.468 3.915-1.402.983-.936 1.474-2.211 1.474-3.825 0-.713-.024-1.41-.071-2.089ZM337.5 226.5c2.14 0 3.966-.757 5.48-2.27 1.513-1.514 2.27-3.34 2.27-5.48 0-2.139-.757-3.966-2.27-5.48-1.514-1.513-3.341-2.27-5.48-2.27-2.139 0-3.966.757-5.48 2.27-1.513 1.514-2.27 3.341-2.27 5.48 0 2.14.757 3.966 2.27 5.48 1.514 1.513 3.341 2.27 5.48 2.27Z" fill="#fff"/><path d="M351.638 234.684a20.85 20.85 0 0 0-.283-2.2 17.125 17.125 0 0 0-.535-2.19 10.368 10.368 0 0 0-.868-1.968 7.094 7.094 0 0 0-1.251-1.635 5.276 5.276 0 0 0-1.726-1.079c-.68-.269-1.43-.404-2.251-.404-.121 0-.403.145-.847.434-.444.289-.945.612-1.504.969-.558.356-1.285.679-2.179.968a8.724 8.724 0 0 1-2.695.434 8.723 8.723 0 0 1-2.694-.434c-.895-.289-1.621-.612-2.18-.968-.558-.357-1.059-.68-1.503-.969-.444-.289-.727-.434-.848-.434-.82 0-1.571.135-2.25.404a5.271 5.271 0 0 0-1.726 1.079 7.094 7.094 0 0 0-1.251 1.635 10.46 10.46 0 0 0-.868 1.968 17.128 17.128 0 0 0-.534 2.19c-.142.787-.236 1.52-.283 2.2a30.264 30.264 0 0 0-.071 2.089c0 1.614.491 2.889 1.474 3.825.982.934 2.287 1.402 3.915 1.402h17.64c1.628 0 2.933-.468 3.915-1.402.983-.936 1.474-2.211 1.474-3.825 0-.713-.024-1.41-.071-2.089Z" fill="#fff"/><rect x="376.282" y="105" width="254" height="287" rx="12" transform="rotate(15 376.282 105)" fill="#463856"/><rect x="429.697" y="145.194" width="161" height="12" rx="6" transform="rotate(15 429.697 145.194)" fill="#fff" fill-opacity=".27"/><rect x="416.24" y="195.422" width="161" height="12" rx="6" transform="rotate(15 416.24 195.422)" fill="#fff" fill-opacity=".27"/><rect x="402.781" y="245.649" width="161" height="12" rx="6" transform="rotate(15 402.781 245.649)" fill="#fff" fill-opacity=".27"/><rect x="389.323" y="295.878" width="161" height="12" rx="6" transform="rotate(15 389.323 295.878)" fill="#fff" fill-opacity=".27"/><rect x="424.781" y="163.546" width="130" height="12" rx="6" transform="rotate(15 424.781 163.546)" fill="#fff" fill-opacity=".27"/><rect x="411.322" y="213.774" width="100" height="12" rx="6" transform="rotate(15 411.322 213.774)" fill="#fff" fill-opacity=".27"/><rect x="397.864" y="264.002" width="139" height="12" rx="6" transform="rotate(15 397.864 264.002)" fill="#fff" fill-opacity=".27"/><rect x="384.405" y="314.23" width="75" height="12" rx="6" transform="rotate(15 384.405 314.23)" fill="#fff" fill-opacity=".27"/><path d="m410.692 148.311-9.953 5.544-2.658-4.444" stroke="#C6F806" stroke-linecap="round" stroke-linejoin="round"/><rect x="396.244" y="136.747" width="22" height="22" rx="3.5" transform="rotate(15 396.244 136.747)" stroke="#C6F806"/><path d="m397.233 198.54-9.953 5.544-2.658-4.444" stroke="#C6F806" stroke-linecap="round" stroke-linejoin="round"/><rect x="382.786" y="186.976" width="22" height="22" rx="3.5" transform="rotate(15 382.786 186.976)" stroke="#C6F806"/><path d="m383.775 248.768-9.953 5.543-2.658-4.444" stroke="#C6F806" stroke-linecap="round" stroke-linejoin="round"/><rect x="369.327" y="237.203" width="22" height="22" rx="3.5" transform="rotate(15 369.327 237.203)" stroke="#C6F806"/><path d="m370.316 298.996-9.953 5.544-2.658-4.444" stroke="#C6F806" stroke-linecap="round" stroke-linejoin="round"/><rect x="355.869" y="287.432" width="22" height="22" rx="3.5" transform="rotate(15 355.869 287.432)" stroke="#C6F806"/><path d="M150 151a5 5 0 0 1 5-5h82a5 5 0 0 1 5 5v46a5 5 0 0 1-5 5h-80.246a4.999 4.999 0 0 0-3.124 1.096L150 206v-55Z" fill="#463856"/><rect x="158" y="154" width="76" height="7" rx="3.5" fill="#fff" fill-opacity=".27"/><rect x="158" y="165" width="55" height="7" rx="3.5" fill="#fff" fill-opacity=".27"/><rect x="158" y="176" width="67" height="7" rx="3.5" fill="#fff" fill-opacity=".27"/><rect x="158" y="187" width="72" height="7" rx="3.5" fill="#fff" fill-opacity=".27"/></g><defs><clipPath id="a"><rect width="646" height="322" rx="22" fill="#fff"/></clipPath></defs></svg>