<svg width="646" height="322" fill="none" xmlns="http://www.w3.org/2000/svg"><g clip-path="url(#a)"><rect width="646" height="322" rx="22" fill="#2D1D3F"/><path d="M47 324.996c14.5-33.5 29.5-132 127.5-132 73.5 0 72.958 60.599 141 56.5 83-5 75.672-74.894 113-101.5 47-33.5 133 22.501 162-23.499 23.2-36.8 30.333-34.17 54.5-30.503" stroke="url(#b)"/><path d="M174.501 192.996c-98 0-113.001 98.5-127.501 132h598l.001-231.002c-24.167-3.667-31.3-6.297-54.5 30.503-29 46-115-10.001-162 23.499-37.328 26.606-30 96.5-113 101.5-68.042 4.099-67.5-56.5-141-56.5Z" fill="url(#c)"/><rect x="34" y="152" width="240.285" height="128.242" rx="12" fill="#463856"/><rect x="50.699" y="168.699" width="101.594" height="92.144" rx="5.5" stroke="#fff"/><path d="M100.642 215c1.588 0 2.943-.537 4.066-1.611 1.123-1.074 1.684-2.371 1.684-3.889 0-1.518-.561-2.814-1.684-3.889-1.124-1.074-2.479-1.611-4.066-1.611-1.587 0-2.943.537-4.066 1.611-1.123 1.075-1.684 2.371-1.684 3.889 0 1.518.561 2.815 1.684 3.889 1.124 1.074 2.479 1.611 4.066 1.611Z" fill="#fff"/><path d="M111.131 220.808a14.217 14.217 0 0 0-.209-1.562 11.893 11.893 0 0 0-.397-1.554 7.246 7.246 0 0 0-.644-1.396 5.059 5.059 0 0 0-.929-1.16 3.912 3.912 0 0 0-1.28-.766 4.68 4.68 0 0 0-1.67-.287c-.09 0-.299.103-.629.308-.329.205-.701.435-1.115.688-.414.252-.954.482-1.617.687a6.744 6.744 0 0 1-2 .308 6.741 6.741 0 0 1-1.998-.308c-.664-.205-1.203-.435-1.618-.687-.414-.253-.786-.483-1.115-.688-.33-.205-.54-.308-.629-.308a4.68 4.68 0 0 0-1.67.287c-.504.19-.93.446-1.28.766s-.659.706-.928 1.16c-.27.453-.484.919-.644 1.396-.16.478-.292.996-.397 1.554a13.983 13.983 0 0 0-.21 1.562c-.034.482-.052.976-.052 1.482 0 1.146.365 2.051 1.093 2.715.729.663 1.697.995 2.905.995h13.088c1.208 0 2.176-.332 2.905-.995.729-.664 1.093-1.569 1.093-2.715 0-.506-.017-1-.053-1.482Z" fill="#fff"/><rect x="167.643" y="168.199" width="91.794" height="9.449" rx="4.725" fill="#fff" fill-opacity=".27"/><rect x="311" y="143" width="91.794" height="9.449" rx="4.725" fill="#fff" fill-opacity=".27"/><rect x="167.643" y="184.398" width="70.196" height="9.449" rx="4.725" fill="#fff" fill-opacity=".27"/><rect x="311" y="159.199" width="70.196" height="9.449" rx="4.725" fill="#fff" fill-opacity=".27"/><rect x="101" y="112" width="31" height="9" rx="4.5" fill="#fff" fill-opacity=".27"/><rect x="101" y="124" width="43" height="3" rx="1.5" fill="#fff" fill-opacity=".27"/><rect x="101" y="129" width="43" height="3" rx="1.5" fill="#fff" fill-opacity=".27"/><rect x="167.642" y="200.597" width="83.695" height="9.449" rx="4.725" fill="#fff" fill-opacity=".27"/><rect x="167.642" y="216.796" width="49.947" height="9.449" rx="4.725" fill="#fff" fill-opacity=".27"/><rect x="167.642" y="235.695" width="26.998" height="25.648" rx="4" fill="#fff" fill-opacity=".27"/><rect x="200.04" y="235.695" width="26.998" height="25.648" rx="4" fill="#fff" fill-opacity=".27"/><rect x="232.438" y="235.695" width="26.998" height="25.648" rx="4" fill="#fff" fill-opacity=".27"/><rect x="480" y="47" width="240.285" height="128.242" rx="12" fill="#463856"/><rect x="496.698" y="63.699" width="101.594" height="92.144" rx="5.5" stroke="#fff"/><path d="M546.642 110c1.588 0 2.943-.537 4.066-1.611 1.123-1.074 1.684-2.371 1.684-3.889 0-1.518-.561-2.814-1.684-3.889-1.124-1.074-2.479-1.611-4.066-1.611-1.587 0-2.943.537-4.065 1.611-1.124 1.075-1.685 2.371-1.685 3.889 0 1.518.561 2.815 1.685 3.889 1.123 1.074 2.478 1.611 4.065 1.611Z" fill="#fff"/><path d="M557.131 115.808a14.217 14.217 0 0 0-.209-1.562 11.893 11.893 0 0 0-.397-1.554 7.246 7.246 0 0 0-.644-1.396 5.059 5.059 0 0 0-.929-1.16 3.912 3.912 0 0 0-1.28-.766 4.68 4.68 0 0 0-1.67-.287c-.09 0-.299.103-.629.308-.329.205-.701.435-1.115.688-.414.252-.954.482-1.617.687a6.744 6.744 0 0 1-2 .308 6.736 6.736 0 0 1-1.998-.308c-.664-.205-1.203-.435-1.618-.687-.414-.253-.786-.483-1.115-.688-.33-.205-.539-.308-.629-.308-.609 0-1.165.096-1.67.287-.504.19-.93.446-1.28.766-.349.32-.659.706-.928 1.16-.27.453-.484.919-.644 1.396-.16.478-.292.996-.397 1.554a13.963 13.963 0 0 0-.21 1.562c-.034.482-.052.976-.052 1.482 0 1.146.365 2.051 1.093 2.715.729.663 1.697.995 2.905.995h13.088c1.208 0 2.176-.332 2.905-.995.729-.664 1.093-1.569 1.093-2.715 0-.506-.017-1-.053-1.482Z" fill="#fff"/><rect x="613.642" y="63.199" width="91.794" height="9.449" rx="4.725" fill="#fff" fill-opacity=".27"/><rect x="613.642" y="79.398" width="70.196" height="9.449" rx="4.725" fill="#fff" fill-opacity=".27"/><rect x="613.642" y="95.597" width="83.695" height="9.449" rx="4.725" fill="#fff" fill-opacity=".27"/><rect x="613.642" y="111.796" width="49.947" height="9.449" rx="4.725" fill="#fff" fill-opacity=".27"/><rect x="613.642" y="130.695" width="26.998" height="25.648" rx="4" fill="#fff" fill-opacity=".27"/><circle cx="395" cy="197" r="3" fill="#C6F806"/><mask id="d" fill="#fff"><path d="M364 36.32a79.316 79.316 0 0 0-31.533-63.31 79.32 79.32 0 0 0-69.528-12.972l12.418 43.568a34.016 34.016 0 0 1 43.34 32.714H364Z"/></mask><path d="M364 36.32a79.316 79.316 0 0 0-31.533-63.31 79.32 79.32 0 0 0-69.528-12.972l12.418 43.568a34.016 34.016 0 0 1 43.34 32.714H364Z" stroke="#D9D9D9" stroke-width="2" mask="url(#d)"/><mask id="e" fill="#fff"><path d="M256.006-37.636A79.32 79.32 0 0 0 212.11 4.301l41.445 18.286A34.02 34.02 0 0 1 272.382 4.6l-16.376-42.236Z"/></mask><path d="M256.006-37.636A79.32 79.32 0 0 0 212.11 4.301l41.445 18.286A34.02 34.02 0 0 1 272.382 4.6l-16.376-42.236Z" stroke="#D9D9D9" stroke-width="2" mask="url(#e)"/><mask id="f" fill="#fff"><path d="M209.231 11.844a79.322 79.322 0 0 0 69.109 103.542l3.621-45.155a34.015 34.015 0 0 1-25.577-15.025 34.024 34.024 0 0 1-4.064-29.384l-43.089-13.978Z"/></mask><path d="M209.231 11.844a79.322 79.322 0 0 0 69.109 103.542l3.621-45.155a34.015 34.015 0 0 1-25.577-15.025 34.024 34.024 0 0 1-4.064-29.384l-43.089-13.978Z" stroke="#C6F806" stroke-width="2" mask="url(#f)"/><mask id="g" fill="#fff"><path d="M284.68 115.639a79.319 79.319 0 0 0 78.99-72.09l-45.111-4.129a34.019 34.019 0 0 1-33.879 30.92v45.299Z"/></mask><path d="M284.68 115.639a79.319 79.319 0 0 0 78.99-72.09l-45.111-4.129a34.019 34.019 0 0 1-33.879 30.92v45.299Z" stroke="#D9D9D9" stroke-width="2" mask="url(#g)"/><path d="M227.211 66.606a2.667 2.667 0 1 0 5.334 0 2.667 2.667 0 0 0-5.334 0Zm2.667 0h-.5v44.802h1V66.606h-.5Zm-10 54.802v-.5H152v1h67.878v-.5Zm10-10h-.5a9.5 9.5 0 0 1-9.5 9.5v1c5.799 0 10.5-4.701 10.5-10.5h-.5Z" fill="#C6F806"/><path d="m419.958 215.988-10.116-10.022a17.401 17.401 0 0 0 2.716-9.353c0-9.728-7.96-17.613-17.779-17.613-9.819 0-17.779 7.885-17.779 17.613s7.959 17.612 17.779 17.612c3.777 0 7.276-1.17 10.155-3.158l9.995 9.903a3.562 3.562 0 0 0 2.515 1.03c.91 0 1.82-.342 2.515-1.03a3.5 3.5 0 0 0-.001-4.982Zm-25.179-7.469c-6.637 0-12.018-5.33-12.018-11.906 0-6.575 5.381-11.905 12.018-11.905 6.637 0 12.018 5.33 12.018 11.905 0 6.576-5.381 11.906-12.018 11.906Z" fill="#fff"/></g><defs><linearGradient id="b" x1="446" y1="136.5" x2="330" y2="245.5" gradientUnits="userSpaceOnUse"><stop stop-color="#C6F806" stop-opacity=".29"/><stop offset=".481" stop-color="#C6F806"/><stop offset="1" stop-color="#C6F806" stop-opacity=".33"/></linearGradient><linearGradient id="c" x1="346.5" y1="132.496" x2="346" y2="324.996" gradientUnits="userSpaceOnUse"><stop stop-color="#C6F806" stop-opacity=".25"/><stop offset="1" stop-color="#C6F806" stop-opacity="0"/></linearGradient><clipPath id="a"><rect width="646" height="322" rx="22" fill="#fff"/></clipPath></defs></svg>