<svg width="646" height="322" fill="none" xmlns="http://www.w3.org/2000/svg"><g clip-path="url(#a)"><rect width="646" height="322" rx="22" fill="#2D1D3F"/><rect x="21.566" y="154.833" width="225.531" height="330.589" rx="11.5" transform="rotate(-7.97 21.566 154.833)" stroke="#fff"/><rect x="126.455" y="169.983" width="106.247" height="98.586" rx="5.5" transform="rotate(-7.97 126.455 169.983)" stroke="#fff"/><rect x="56.596" y="302.422" width="60.284" height="55.906" rx="5.5" transform="rotate(-7.97 56.596 302.422)" stroke="#fff"/><rect x="188.816" y="283.911" width="60.284" height="55.906" rx="5.5" transform="rotate(-7.97 188.816 283.911)" stroke="#fff"/><rect x="122.706" y="293.166" width="60.284" height="55.906" rx="5.5" transform="rotate(-7.97 122.706 293.166)" stroke="#fff"/><rect x="43.283" y="210.961" width="68.944" height="13.132" rx="6.566" transform="rotate(-7.97 43.283 210.961)" fill="#fff" fill-opacity=".27"/><rect x="46.167" y="231.553" width="41.586" height="6.566" rx="3.283" transform="rotate(-7.97 46.167 231.553)" fill="#fff" fill-opacity=".27"/><rect x="47.532" y="241.308" width="41.586" height="6.566" rx="3.283" transform="rotate(-7.97 47.532 241.308)" fill="#fff" fill-opacity=".27"/><rect x="35.676" y="164.511" width="19.698" height="6.566" rx="3.283" transform="rotate(-7.97 35.676 164.511)" fill="#fff" fill-opacity=".27"/><rect x="210.164" y="140.08" width="19.698" height="6.566" rx="3.283" transform="rotate(-7.97 210.164 140.08)" fill="#fff" fill-opacity=".27"/><rect x="97.452" y="155.863" width="12.038" height="6.566" rx="3.283" transform="rotate(-7.97 97.452 155.863)" fill="#fff" fill-opacity=".27"/><rect x="111.54" y="153.888" width="12.038" height="6.566" rx="3.283" transform="rotate(-7.97 111.54 153.888)" fill="#fff" fill-opacity=".27"/><rect x="125.629" y="151.917" width="12.038" height="6.566" rx="3.283" transform="rotate(-7.97 125.629 151.917)" fill="#fff" fill-opacity=".27"/><rect x="435.187" y="-149.43" width="232.417" height="340.669" rx="11.5" transform="rotate(8.205 435.187 -149.43)" stroke="#fff"/><rect x="534.638" y="-104.329" width="109.507" height="101.613" rx="5.5" transform="rotate(8.205 534.638 -104.329)" stroke="#fff"/><rect x="427.488" y="6.68" width="62.147" height="57.636" rx="5.5" transform="rotate(8.205 427.488 6.68)" stroke="#fff"/><rect x="510.434" y="110.923" width="102.741" height="65.53" rx="5.5" transform="rotate(8.205 510.434 110.923)" stroke="#fff"/><rect x="563.648" y="26.315" width="62.147" height="57.636" rx="5.5" transform="rotate(8.205 563.648 26.315)" stroke="#fff"/><rect x="495.568" y="16.498" width="62.147" height="57.636" rx="5.5" transform="rotate(8.205 495.568 16.498)" stroke="#fff"/><rect x="412.257" y="108.789" width="80.061" height="6.766" rx="3.383" transform="rotate(8.205 412.257 108.789)" fill="#fff" fill-opacity=".27"/><rect x="410.81" y="118.836" width="80.061" height="6.766" rx="3.383" transform="rotate(8.205 410.81 118.836)" fill="#fff" fill-opacity=".27"/><rect x="409.2" y="129.996" width="80.061" height="6.766" rx="3.383" transform="rotate(8.205 409.2 129.996)" fill="#fff" fill-opacity=".27"/><rect x="407.591" y="141.156" width="80.061" height="6.766" rx="3.383" transform="rotate(8.205 407.591 141.156)" fill="#fff" fill-opacity=".27"/><rect x="196" y="64" width="254" height="287" rx="12" fill="#463856"/><path d="m251.677 233.844-.023.024c-.315-.689-.514-1.47-.595-2.334.081.852.303 1.622.618 2.31Zm7.49-10.069a2.777 2.777 0 1 0 0-5.553 2.777 2.777 0 0 0 0 5.553Z" fill="#fff"/><path d="M267.556 213.999h-9.777c-4.247 0-6.778 2.532-6.778 6.778v9.777c0 1.272.221 2.38.653 3.313 1.003 2.217 3.15 3.465 6.125 3.465h9.777c4.246 0 6.778-2.531 6.778-6.778v-9.777c0-4.246-2.532-6.778-6.778-6.778Zm4.876 12.25c-.91-.782-2.38-.782-3.29 0l-4.853 4.165c-.91.782-2.38.782-3.29 0l-.397-.327c-.828-.723-2.146-.793-3.08-.163l-4.363 2.928c-.257-.653-.408-1.411-.408-2.298v-9.777c0-3.29 1.738-5.028 5.028-5.028h9.777c3.29 0 5.028 1.738 5.028 5.028v5.6l-.152-.128Z" fill="#fff"/><rect x="210.5" y="80.5" width="224" height="95" rx="5.5" stroke="#C6F806"/><rect x="291" y="113" width="63" height="12" rx="6" fill="#fff" fill-opacity=".27"/><rect x="279" y="129" width="87" height="2" rx="1" fill="#fff" fill-opacity=".27"/><rect x="286" y="134" width="73" height="2" rx="1" fill="#fff" fill-opacity=".27"/><rect x="284" y="139" width="77" height="2" rx="1" fill="#fff" fill-opacity=".27"/><rect x="218" y="87" width="12" height="2" rx="1" fill="#fff" fill-opacity=".27"/><rect x="414" y="87" width="12" height="2" rx="1" fill="#fff" fill-opacity=".27"/><rect x="280" y="87" width="12" height="2" rx="1" fill="#fff" fill-opacity=".27"/><rect x="298" y="87" width="12" height="2" rx="1" fill="#fff" fill-opacity=".27"/><rect x="316" y="87" width="12" height="2" rx="1" fill="#fff" fill-opacity=".27"/><rect x="334" y="87" width="12" height="2" rx="1" fill="#fff" fill-opacity=".27"/><rect x="352" y="87" width="12" height="2" rx="1" fill="#fff" fill-opacity=".27"/><rect x="311" y="144" width="23" height="7" rx="3.5" fill="#fff" fill-opacity=".27"/><rect x="210.5" y="194.5" width="105" height="63" rx="5.5" stroke="#fff" stroke-opacity=".26"/><rect x="210.5" y="271.5" width="224" height="63" rx="5.5" stroke="#fff" stroke-opacity=".26"/><rect x="329.5" y="194.5" width="105" height="16" rx="5.5" stroke="#fff" stroke-opacity=".26"/><rect x="329.5" y="217.5" width="105" height="16" rx="5.5" stroke="#fff" stroke-opacity=".26"/><rect x="329.5" y="240.5" width="105" height="16" rx="5.5" stroke="#fff" stroke-opacity=".26"/></g><defs><clipPath id="a"><rect width="646" height="322" rx="22" fill="#fff"/></clipPath></defs></svg>