<svg width="646" height="322" fill="none" xmlns="http://www.w3.org/2000/svg"><g clip-path="url(#a)"><rect width="646" height="322" rx="22" fill="#2D1D3F"/><path d="m393.785 287.834-.035.044c-.676-1.11-1.172-2.403-1.485-3.858a12.307 12.307 0 0 0 1.52 3.814Zm10.744-18.678a4.767 4.767 0 1 0-1.118-9.469 4.767 4.767 0 0 0 1.118 9.469Z" fill="#fff"/><path d="m416.862 250.797-16.671 1.97c-7.241.855-11.048 5.682-10.192 12.923l1.969 16.67c.256 2.169.857 4.014 1.781 5.518 2.157 3.578 6.069 5.274 11.142 4.675l16.67-1.969c7.241-.856 11.048-5.682 10.193-12.924l-.538-4.555-1.431-12.115c-.856-7.241-5.682-11.048-12.923-10.193Zm10.782 19.906c-1.709-1.15-4.215-.854-5.61.663l-7.436 8.079c-1.394 1.516-3.901 1.812-5.61.663l-.742-.477c-1.558-1.067-3.82-.921-5.285.341l-6.85 5.872c-.569-1.062-.981-2.324-1.159-3.836l-1.969-16.671c-.663-5.61 1.951-8.924 7.561-9.586l16.67-1.97c5.61-.662 8.924 1.952 9.587 7.562l1.128 9.548-.285-.188Z" fill="#fff"/><rect x="315.251" y="228.725" width="181" height="108.887" rx="5.5" transform="rotate(-6.737 315.251 228.725)" stroke="#fff" stroke-opacity=".26"/><path d="m332.78 183.931-.035.045c-.676-1.11-1.172-2.403-1.485-3.859a12.297 12.297 0 0 0 1.52 3.814Zm10.744-18.677a4.768 4.768 0 1 0-1.12-9.47 4.768 4.768 0 0 0 1.12 9.47Z" fill="#fff"/><path d="m355.857 146.895-16.671 1.969c-7.241.856-11.048 5.682-10.193 12.923l1.97 16.671c.256 2.168.857 4.013 1.781 5.518 2.157 3.577 6.069 5.274 11.142 4.674l16.67-1.969c7.241-.855 11.048-5.682 10.193-12.923l-.538-4.555-1.431-12.115c-.856-7.241-5.682-11.048-12.923-10.193Zm10.782 19.906c-1.709-1.15-4.215-.854-5.61.662l-7.436 8.08c-1.395 1.516-3.901 1.812-5.61.662l-.742-.477c-1.558-1.066-3.82-.92-5.285.342l-6.85 5.872c-.569-1.062-.981-2.325-1.159-3.837l-1.97-16.67c-.662-5.61 1.952-8.924 7.562-9.587l16.67-1.969c5.61-.663 8.924 1.951 9.587 7.561l1.128 9.549-.285-.188Z" fill="#fff"/><rect x="303.403" y="128.42" width="84" height="89" rx="5.5" transform="rotate(-6.737 303.403 128.42)" stroke="#fff" stroke-opacity=".26"/><path d="m369.593 77.883-.035.044c-.676-1.11-1.171-2.403-1.484-3.859a12.328 12.328 0 0 0 1.519 3.815Zm10.744-18.678a4.767 4.767 0 1 0-1.118-9.468 4.767 4.767 0 0 0 1.118 9.468Z" fill="#fff"/><path d="M392.67 40.846 376 42.816c-7.241.855-11.048 5.681-10.193 12.923l1.969 16.67c.256 2.168.858 4.014 1.782 5.518 2.157 3.578 6.069 5.274 11.141 4.675l16.671-1.97c7.241-.855 11.048-5.682 10.193-12.923l-.539-4.555-1.431-12.115c-.855-7.241-5.682-11.048-12.923-10.193Zm10.783 19.906c-1.709-1.15-4.216-.854-5.61.662l-7.437 8.08c-1.394 1.516-3.9 1.812-5.609.662l-.743-.477c-1.558-1.066-3.82-.92-5.284.342l-6.851 5.872c-.569-1.062-.98-2.325-1.159-3.837l-1.969-16.67c-.663-5.61 1.951-8.924 7.561-9.587l16.671-1.969c5.61-.663 8.924 1.952 9.586 7.561l1.128 9.549-.284-.188Z" fill="#fff"/><rect x="291.555" y="28.119" width="181" height="89" rx="5.5" transform="rotate(-6.737 291.555 28.12)" stroke="#fff" stroke-opacity=".26"/><path d="m429.11 172.553-.035.044c-.676-1.11-1.172-2.403-1.485-3.859a12.312 12.312 0 0 0 1.52 3.815Zm10.744-18.678a4.768 4.768 0 1 0-1.12-9.47 4.768 4.768 0 0 0 1.12 9.47Z" fill="#fff"/><path d="m452.187 135.516-16.671 1.969c-7.241.856-11.048 5.682-10.192 12.923l1.969 16.671c.256 2.168.857 4.013 1.781 5.518 2.157 3.578 6.069 5.274 11.142 4.675l16.67-1.97c7.241-.855 11.048-5.682 10.193-12.923l-.538-4.555-1.431-12.115c-.856-7.241-5.682-11.048-12.923-10.193Zm10.782 19.906c-1.709-1.15-4.215-.854-5.61.662l-7.436 8.08c-1.394 1.516-3.901 1.812-5.61.662l-.742-.477c-1.558-1.066-3.82-.92-5.285.342l-6.85 5.872c-.569-1.062-.981-2.325-1.159-3.837l-1.97-16.67c-.662-5.61 1.952-8.924 7.562-9.587l16.67-1.969c5.61-.663 8.924 1.951 9.587 7.561l1.128 9.549-.285-.188Z" fill="#fff"/><rect x="399.733" y="117.041" width="84" height="89" rx="5.5" transform="rotate(-6.737 399.733 117.041)" stroke="#fff" stroke-opacity=".26"/><path d="m584.459 265.31-.036.045c-.675-1.11-1.171-2.403-1.484-3.859a12.297 12.297 0 0 0 1.52 3.814Zm10.743-18.677a4.768 4.768 0 1 0-1.118-9.47 4.768 4.768 0 0 0 1.118 9.47Z" fill="#fff"/><path d="m607.535 228.274-16.67 1.969c-7.241.855-11.048 5.682-10.193 12.923l1.97 16.671c.256 2.168.857 4.013 1.781 5.518 2.157 3.577 6.069 5.274 11.142 4.674l16.67-1.969c7.241-.855 11.048-5.682 10.193-12.923l-.538-4.555-1.431-12.115c-.856-7.241-5.682-11.048-12.924-10.193Zm10.783 19.906c-1.709-1.15-4.215-.854-5.61.662l-7.436 8.08c-1.395 1.516-3.901 1.812-5.61.662l-.742-.477c-1.558-1.066-3.821-.92-5.285.342l-6.85 5.872c-.57-1.062-.981-2.325-1.159-3.837l-1.97-16.67c-.662-5.61 1.952-8.924 7.562-9.587l16.67-1.969c5.61-.663 8.924 1.951 9.587 7.561l1.128 9.549-.285-.188Z" fill="#fff"/><rect x="505.924" y="206.202" width="181" height="108.887" rx="5.5" transform="rotate(-6.737 505.924 206.202)" stroke="#fff" stroke-opacity=".26"/><path d="m563.89 91.179-.035.044c-.675-1.11-1.171-2.403-1.484-3.859a12.328 12.328 0 0 0 1.519 3.815ZM574.634 72.5a4.769 4.769 0 1 0-1.12-9.47 4.769 4.769 0 0 0 1.12 9.47Z" fill="#fff"/><path d="m586.967 54.142-16.67 1.97c-7.241.855-11.048 5.681-10.193 12.922l1.969 16.67c.257 2.17.858 4.015 1.782 5.519 2.157 3.578 6.069 5.274 11.142 4.674l16.67-1.969c7.241-.855 11.048-5.682 10.193-12.923l-.538-4.555-1.431-12.115c-.856-7.241-5.683-11.048-12.924-10.193Zm10.783 19.906c-1.709-1.15-4.216-.854-5.61.662l-7.436 8.08c-1.395 1.516-3.901 1.812-5.61.662l-.743-.477c-1.558-1.066-3.82-.92-5.284.342l-6.85 5.872c-.57-1.062-.981-2.325-1.16-3.837l-1.969-16.67c-.662-5.61 1.952-8.924 7.561-9.587l16.671-1.969c5.61-.663 8.924 1.951 9.587 7.561l1.127 9.549-.284-.188Z" fill="#fff"/><rect x="478.944" y="-22.212" width="181" height="217" rx="5.5" transform="rotate(-6.737 478.944 -22.212)" stroke="#fff" stroke-opacity=".26"/><rect x="37" y="173" width="47.078" height="31.003" rx="6" fill="#C6F806"/><rect x="93.263" y="173" width="47.078" height="31.003" rx="6" fill="#fff"/><rect opacity=".7" x="37" y="206.3" width="47.078" height="31.003" rx="6" fill="#C6F806"/><rect opacity=".7" x="93.263" y="206.3" width="47.078" height="31.003" rx="6" fill="#fff"/><rect opacity=".4" x="37" y="239.6" width="47.078" height="31.003" rx="6" fill="#C6F806"/><rect opacity=".4" x="93.263" y="239.6" width="47.078" height="31.003" rx="6" fill="#fff"/><rect opacity=".2" x="37" y="272.899" width="47.078" height="31.003" rx="6" fill="#C6F806"/><rect opacity=".2" x="93.263" y="272.899" width="47.078" height="31.003" rx="6" fill="#fff"/><rect x="160" y="216" width="115" height="18" rx="6" fill="#fff" fill-opacity=".26"/><rect x="160" y="240" width="114" height="14" rx="6" fill="#fff" fill-opacity=".26"/><rect x="160" y="259" width="110" height="11" rx="5.5" fill="#fff" fill-opacity=".26"/><rect x="160" y="275" width="105" height="8" rx="4" fill="#fff" fill-opacity=".26"/><rect x="160" y="288" width="102" height="6" rx="3" fill="#fff" fill-opacity=".26"/><rect x="160" y="299" width="99" height="5" rx="2.5" fill="#fff" fill-opacity=".26"/><rect x="33" y="34" width="80.061" height="6.766" rx="3.383" fill="#fff" fill-opacity=".27"/><rect x="33" y="44.047" width="80.061" height="6.766" rx="3.383" fill="#fff" fill-opacity=".27"/><rect x="33" y="55.207" width="80.061" height="6.766" rx="3.383" fill="#fff" fill-opacity=".27"/><rect x="33" y="66.367" width="80.061" height="6.766" rx="3.383" fill="#fff" fill-opacity=".27"/><rect x="137" y="34" width="80.061" height="6.766" rx="3.383" fill="#fff" fill-opacity=".27"/><rect x="137" y="44.047" width="80.061" height="6.766" rx="3.383" fill="#fff" fill-opacity=".27"/><rect x="137" y="55.207" width="80.061" height="6.766" rx="3.383" fill="#fff" fill-opacity=".27"/><rect x="137" y="66.367" width="80.061" height="6.766" rx="3.383" fill="#fff" fill-opacity=".27"/><rect x="199.5" y="90.5" width="74" height="64" rx="5.5" stroke="#fff" stroke-opacity=".26"/><rect x="37.5" y="90.5" width="74" height="64" rx="5.5" stroke="#fff" stroke-opacity=".26"/><rect x="118.5" y="90.5" width="74" height="64" rx="5.5" stroke="#fff" stroke-opacity=".26"/><path d="M80.475 122.068h-.351a5.684 5.684 0 0 0-3.745-5.201h2.907a.691.691 0 0 0 .758.514.69.69 0 0 0 .607-.688.694.694 0 0 0-1.365-.173H75.1v-.347a.171.171 0 0 0-.05-.122.172.172 0 0 0-.123-.051h-1.04a.172.172 0 0 0-.123.051.171.171 0 0 0-.05.122v.347h-4.186a.691.691 0 0 0-.76-.514.69.69 0 0 0-.605.687.696.696 0 0 0 .606.688.691.691 0 0 0 .759-.514h2.906a5.686 5.686 0 0 0-3.745 5.201h-.35a.172.172 0 0 0-.123.051.171.171 0 0 0-.05.122v1.041a.172.172 0 0 0 .173.173h1.04a.17.17 0 0 0 .122-.051.171.171 0 0 0 .051-.122v-1.041a.171.171 0 0 0-.05-.122.172.172 0 0 0-.123-.051h-.343a5.344 5.344 0 0 1 4.677-5.156v.302a.172.172 0 0 0 .173.173h1.04c.047 0 .09-.018.123-.051a.171.171 0 0 0 .051-.122v-.302a5.344 5.344 0 0 1 4.677 5.156h-.343a.172.172 0 0 0-.122.051.171.171 0 0 0-.05.122v1.041a.172.172 0 0 0 .173.173h1.04a.17.17 0 0 0 .122-.051.171.171 0 0 0 .051-.122v-1.041a.171.171 0 0 0-.05-.122.172.172 0 0 0-.123-.051Z" fill="#6D6D6D"/><path d="M74.908 118.176a.176.176 0 0 0-.082-.08.176.176 0 0 0-.21.05.172.172 0 0 0-.037.107v5.62a.173.173 0 0 0 .104.158.693.693 0 1 1-.554 0 .173.173 0 0 0 .103-.158v-5.62a.172.172 0 0 0-.133-.168.176.176 0 0 0-.113.011.176.176 0 0 0-.082.08l-3.294 6.588a.175.175 0 0 0 0 .155l1.262 2.523h5.068l1.262-2.523a.171.171 0 0 0 0-.155l-3.294-6.588Zm2.445 9.612h-5.895a.174.174 0 0 0-.174.173v1.041c0 .095.078.173.174.173h5.895a.174.174 0 0 0 .173-.173v-1.041a.174.174 0 0 0-.173-.173Zm-5.548 2.951c0 .046.019.09.051.123.033.032.077.05.123.05h4.854c.046 0 .09-.018.123-.05a.175.175 0 0 0 .05-.123v-1.214h-5.2v1.214Zm89.508-8.671h-.351a5.683 5.683 0 0 0-3.745-5.201h2.907a.689.689 0 0 0 .758.514.694.694 0 1 0-.758-.861h-4.186v-.347a.17.17 0 0 0-.051-.122.17.17 0 0 0-.122-.051h-1.041a.17.17 0 0 0-.122.051.17.17 0 0 0-.051.122v.347h-4.186a.689.689 0 0 0-.758-.514.693.693 0 1 0 .758.861h2.907a5.684 5.684 0 0 0-3.745 5.201h-.351a.17.17 0 0 0-.122.051.17.17 0 0 0-.051.122v1.041c0 .046.018.09.051.122a.17.17 0 0 0 .122.051h1.041a.17.17 0 0 0 .122-.051.17.17 0 0 0 .051-.122v-1.041a.17.17 0 0 0-.051-.122.17.17 0 0 0-.122-.051h-.343a5.345 5.345 0 0 1 4.677-5.156v.302c0 .046.018.09.051.122a.17.17 0 0 0 .122.051h1.041a.17.17 0 0 0 .122-.051.17.17 0 0 0 .051-.122v-.302a5.343 5.343 0 0 1 4.677 5.156h-.343a.17.17 0 0 0-.122.051.17.17 0 0 0-.051.122v1.041c0 .046.018.09.051.122a.17.17 0 0 0 .122.051h1.041a.17.17 0 0 0 .122-.051.17.17 0 0 0 .051-.122v-1.041a.17.17 0 0 0-.051-.122.17.17 0 0 0-.122-.051Z" fill="#6D6D6D"/><path d="M155.746 118.176a.177.177 0 0 0-.082-.08.175.175 0 0 0-.209.05.169.169 0 0 0-.038.107v5.62a.175.175 0 0 0 .103.158.694.694 0 1 1-.553 0 .173.173 0 0 0 .075-.064.168.168 0 0 0 .029-.094v-5.62a.175.175 0 0 0-.247-.157.177.177 0 0 0-.082.08l-3.294 6.588a.175.175 0 0 0 0 .155l1.261 2.523h5.069l1.262-2.523a.175.175 0 0 0 0-.155l-3.294-6.588Zm2.444 9.612h-5.894a.174.174 0 0 0-.174.173v1.041c0 .095.078.173.174.173h5.894a.174.174 0 0 0 .174-.173v-1.041a.174.174 0 0 0-.174-.173Zm-5.547 2.951c0 .046.019.09.051.123.033.032.077.05.123.05h4.854c.046 0 .09-.018.123-.05a.177.177 0 0 0 .05-.123v-1.214h-5.201v1.214Zm89.67-8.671h-.351a5.683 5.683 0 0 0-3.745-5.201h2.907a.689.689 0 0 0 .758.514.694.694 0 1 0-.758-.861h-4.186v-.347a.17.17 0 0 0-.051-.122.17.17 0 0 0-.122-.051h-1.041a.17.17 0 0 0-.122.051.17.17 0 0 0-.051.122v.347h-4.186a.689.689 0 0 0-.758-.514.693.693 0 1 0 .758.861h2.907a5.684 5.684 0 0 0-3.745 5.201h-.351a.17.17 0 0 0-.122.051.17.17 0 0 0-.051.122v1.041c0 .046.018.09.051.122a.17.17 0 0 0 .122.051h1.041a.17.17 0 0 0 .122-.051.17.17 0 0 0 .051-.122v-1.041a.17.17 0 0 0-.051-.122.17.17 0 0 0-.122-.051h-.343a5.345 5.345 0 0 1 4.677-5.156v.302c0 .046.018.09.051.122a.17.17 0 0 0 .122.051h1.041a.17.17 0 0 0 .122-.051.17.17 0 0 0 .051-.122v-.302a5.343 5.343 0 0 1 4.677 5.156h-.343a.17.17 0 0 0-.122.051.17.17 0 0 0-.051.122v1.041c0 .046.018.09.051.122a.17.17 0 0 0 .122.051h1.041a.17.17 0 0 0 .122-.051.17.17 0 0 0 .051-.122v-1.041a.17.17 0 0 0-.051-.122.17.17 0 0 0-.122-.051Z" fill="#6D6D6D"/><path d="M236.746 118.176a.177.177 0 0 0-.082-.08.175.175 0 0 0-.209.05.169.169 0 0 0-.038.107v5.62a.175.175 0 0 0 .103.158.694.694 0 1 1-.553 0 .173.173 0 0 0 .075-.064.168.168 0 0 0 .029-.094v-5.62a.175.175 0 0 0-.247-.157.177.177 0 0 0-.082.08l-3.294 6.588a.175.175 0 0 0 0 .155l1.261 2.523h5.069l1.262-2.523a.175.175 0 0 0 0-.155l-3.294-6.588Zm2.444 9.612h-5.894a.174.174 0 0 0-.174.173v1.041c0 .095.078.173.174.173h5.894a.174.174 0 0 0 .174-.173v-1.041a.174.174 0 0 0-.174-.173Zm-5.547 2.951c0 .046.019.09.051.123.033.032.077.05.123.05h4.854c.046 0 .09-.018.123-.05a.177.177 0 0 0 .05-.123v-1.214h-5.201v1.214Z" fill="#6D6D6D"/></g><defs><clipPath id="a"><rect width="646" height="322" rx="22" fill="#fff"/></clipPath></defs></svg>