<svg width="646" height="322" fill="none" xmlns="http://www.w3.org/2000/svg"><g clip-path="url(#a)"><rect x="8" width="646" height="322" rx="22" fill="#2D1D3F"/><rect x="116.5" y="149.5" width="225.531" height="330.589" rx="11.5" stroke="#fff"/><rect x="319" y="19" width="254" height="287" rx="12" fill="#463856"/><path d="m374.677 188.844-.023.024c-.315-.689-.514-1.47-.595-2.334.081.852.303 1.622.618 2.31Zm7.49-10.069a2.777 2.777 0 1 0 0-5.553 2.777 2.777 0 0 0 0 5.553Z" fill="#C6F806"/><path d="M390.556 168.999h-9.777c-4.247 0-6.778 2.532-6.778 6.778v9.777c0 1.272.221 2.38.653 3.313 1.003 2.217 3.15 3.465 6.125 3.465h9.777c4.246 0 6.778-2.531 6.778-6.778v-9.777c0-4.246-2.532-6.778-6.778-6.778Zm4.876 12.25c-.91-.782-2.38-.782-3.29 0l-4.853 4.165c-.91.782-2.38.782-3.29 0l-.397-.327c-.828-.723-2.146-.793-3.08-.163l-4.363 2.928c-.257-.653-.408-1.411-.408-2.298v-9.777c0-3.29 1.738-5.028 5.028-5.028h9.777c3.29 0 5.028 1.738 5.028 5.028v5.6l-.152-.128Z" fill="#C6F806"/><rect x="333.5" y="35.5" width="224" height="95" rx="5.5" stroke="#C6F806"/><rect x="414" y="68" width="63" height="12" rx="6" fill="#fff" fill-opacity=".27"/><rect x="402" y="84" width="87" height="2" rx="1" fill="#fff" fill-opacity=".27"/><rect x="409" y="89" width="73" height="2" rx="1" fill="#fff" fill-opacity=".27"/><rect x="407" y="94" width="77" height="2" rx="1" fill="#fff" fill-opacity=".27"/><rect x="341" y="42" width="12" height="2" rx="1" fill="#fff" fill-opacity=".27"/><rect x="537" y="42" width="12" height="2" rx="1" fill="#fff" fill-opacity=".27"/><rect x="403" y="42" width="12" height="2" rx="1" fill="#fff" fill-opacity=".27"/><rect x="421" y="42" width="12" height="2" rx="1" fill="#fff" fill-opacity=".27"/><rect x="439" y="42" width="12" height="2" rx="1" fill="#fff" fill-opacity=".27"/><rect x="457" y="42" width="12" height="2" rx="1" fill="#fff" fill-opacity=".27"/><rect x="475" y="42" width="12" height="2" rx="1" fill="#fff" fill-opacity=".27"/><rect x="434" y="99" width="23" height="7" rx="3.5" fill="#C6F806"/><rect x="333.5" y="149.5" width="105" height="63" rx="5.5" stroke="#fff" stroke-opacity=".26"/><rect x="333.5" y="226.5" width="224" height="63" rx="5.5" stroke="#fff" stroke-opacity=".26"/><rect x="452.5" y="149.5" width="105" height="16" rx="5.5" stroke="#C6F806"/><rect x="452.5" y="172.5" width="105" height="16" rx="5.5" stroke="#fff" stroke-opacity=".26"/><rect x="452.5" y="195.5" width="105" height="16" rx="5.5" stroke="#fff" stroke-opacity=".26"/><path d="m177.754 87.11-18.717 6.814c-9.358 3.408-12.333 9.79-8.926 19.149l4.259 11.697c4.258 11.698 9.789 12.334 19.148 8.927l1.169-.426a2.818 2.818 0 0 1 2.213.255l5.213 3.401a3.541 3.541 0 0 0 3.369.522 3.539 3.539 0 0 0 2.246-2.566l1.805-5.957a2.486 2.486 0 0 1 1.531-1.617l1.17-.426c9.358-3.407 12.334-9.79 8.927-19.148l-4.259-11.698c-3.407-9.358-9.79-12.334-19.148-8.927Zm-8.789 30.227a1.854 1.854 0 0 1 1.015 1.049 1.862 1.862 0 0 1-.494 2.057 1.869 1.869 0 0 1-2.098.276l-6.382-2.975a1.87 1.87 0 0 1-.903-2.48l2.975-6.383a1.882 1.882 0 0 1 1.05-1.014 1.86 1.86 0 0 1 1.459.051c.227.106.431.256.598.443a1.85 1.85 0 0 1 .475 1.38c-.017.25-.085.494-.199.717l-2.184 4.691 4.688 2.188Zm9.082-12.602-.704 12.622a1.869 1.869 0 0 1-1.242 1.687 1.884 1.884 0 0 1-1.442-.082 1.87 1.87 0 0 1-1.044-1.816l.704-12.622a1.866 1.866 0 0 1 3.728.211Zm13.513 1.885-2.975 6.382a1.868 1.868 0 0 1-3.383-1.577l2.185-4.69-4.689-2.188a1.872 1.872 0 0 1-1.138-1.784 1.868 1.868 0 0 1 2.715-1.599l6.382 2.976a1.849 1.849 0 0 1 .966 1.052 1.86 1.86 0 0 1-.063 1.428Z" fill="#C6F806"/><circle cx="130" cy="162" r="3" fill="#fff"/><circle cx="139" cy="162" r="3" fill="#fff"/><circle cx="148" cy="162" r="3" fill="#fff"/><rect x="133" y="179" width="105" height="5" rx="2.5" fill="#fff" fill-opacity=".26"/><rect x="133" y="254" width="134" height="5" rx="2.5" fill="#fff" fill-opacity=".26"/><rect x="140" y="188" width="62" height="5" rx="2.5" fill="#fff" fill-opacity=".26"/><rect x="142" y="263" width="79" height="5" rx="2.5" fill="#fff" fill-opacity=".26"/><rect x="148" y="212" width="62" height="5" rx="2.5" fill="#fff" fill-opacity=".26"/><rect x="152" y="287" width="79" height="5" rx="2.5" fill="#fff" fill-opacity=".26"/><rect x="148" y="220" width="71" height="5" rx="2.5" fill="#fff" fill-opacity=".26"/><rect x="152" y="295" width="91" height="5" rx="2.5" fill="#fff" fill-opacity=".26"/><rect x="148" y="228" width="71" height="5" rx="2.5" fill="#fff" fill-opacity=".26"/><rect x="152" y="303" width="96" height="5" rx="2.5" fill="#fff" fill-opacity=".26"/><rect x="140" y="196" width="76" height="5" rx="2.5" fill="#fff" fill-opacity=".26"/><rect x="142" y="271" width="97" height="5" rx="2.5" fill="#fff" fill-opacity=".26"/><rect x="140" y="236" width="76" height="5" rx="2.5" fill="#fff" fill-opacity=".26"/><rect x="142" y="311" width="97" height="5" rx="2.5" fill="#fff" fill-opacity=".26"/><rect x="140" y="204" width="67" height="5" rx="2.5" fill="#fff" fill-opacity=".26"/><rect x="142" y="279" width="85" height="5" rx="2.5" fill="#fff" fill-opacity=".26"/><rect x="140" y="244" width="67" height="5" rx="2.5" fill="#fff" fill-opacity=".26"/><rect x="140" y="319" width="67" height="5" rx="2.5" fill="#fff" fill-opacity=".26"/><path d="m224.237 227-2.6 7H221l2.6-7h.637Zm.718 1.391L229 230.36v.814l-4.045 1.968v-.717l3.501-1.645-3.501-1.654v-.735ZM254.237 302l-2.6 7H251l2.6-7h.637Zm.718 1.391L259 305.36v.814l-4.045 1.968v-.717l3.501-1.645-3.501-1.654v-.735ZM243.237 178l-2.6 7H240l2.6-7h.637Zm.718 1.391L248 181.36v.814l-4.045 1.968v-.717l3.501-1.645-3.501-1.654v-.735ZM273.237 253l-2.6 7H270l2.6-7h.637Zm.718 1.391L278 256.36v.814l-4.045 1.968v-.717l3.501-1.645-3.501-1.654v-.735ZM211.237 243l-2.6 7H208l2.6-7h.637Zm.718 1.391L216 246.36v.814l-4.045 1.968v-.717l3.501-1.645-3.501-1.654v-.735ZM241.237 318l-2.6 7H238l2.6-7h.637Zm.718 1.391L246 321.36v.814l-4.045 1.968v-.717l3.501-1.645-3.501-1.654v-.735ZM131 184l-4-2.072v-.856l4-2.072v.755l-3.462 1.731 3.462 1.741V184Zm0 75-4-2.072v-.856l4-2.072v.755l-3.462 1.731 3.462 1.741V259Zm7-66-4-2.072v-.856l4-2.072v.755l-3.462 1.731 3.462 1.741V193Zm0 75-4-2.072v-.856l4-2.072v.755l-3.462 1.731 3.462 1.741V268Zm8-51-4-2.072v-.856l4-2.072v.755l-3.462 1.731 3.462 1.741V217Zm0 75-4-2.072v-.856l4-2.072v.755l-3.462 1.731 3.462 1.741V292Z" fill="#fff"/></g><defs><clipPath id="a"><rect width="646" height="322" rx="22" fill="#fff"/></clipPath></defs></svg>