<svg width="646" height="322" fill="none" xmlns="http://www.w3.org/2000/svg"><g clip-path="url(#a)"><rect width="646" height="322" rx="22" fill="#2D1D3F"/><path d="M229.208 36.5h40.602c13.257 0 24.481 9.775 26.356 22.858l.082.626.001.004 4.332 34.02.04.315.302.098a170.131 170.131 0 0 1 24.849 10.283l.284.145.251-.196 27.06-21.042c10.62-8.218 25.507-7.41 34.873 1.809l.442.445.006.006 28.547 28.547.006.006c9.396 9.098 10.499 23.96 2.55 34.695l-.386.508-21.044 27.097-.194.251.145.283a170.83 170.83 0 0 1 10.283 24.831l.097.302.315.04 34.076 4.332h.004c13.134 1.576 23.114 12.616 23.406 25.806l.007.63V273.8c0 13.256-9.775 24.48-22.859 26.355l-.626.082h-.004l-34.004 4.332-.316.04-.097.303a166.883 166.883 0 0 1-10.282 24.829l-.146.283.195.252 21.044 27.078c8.236 10.619 7.411 25.488-1.809 34.871l-.446.442-.005.006-28.548 28.547-.006.006c-9.099 9.395-23.961 10.497-34.696 2.548l-.508-.384-27.099-21.043-.251-.196-.283.145a170.731 170.731 0 0 1-24.832 10.283l-.301.098-.04.314-4.332 34.075-.001.003c-1.601 13.342-12.97 23.431-26.438 23.431h-40.602c-13.257 0-24.482-9.774-26.356-22.894l-.082-.627v-.003l-4.332-34.003-.041-.315-.302-.097-1.613-.53a166.656 166.656 0 0 1-23.217-9.753l-.284-.145-.252.195-27.08 21.043c-10.619 8.218-25.488 7.409-34.871-1.793l-.442-.444-.006-.005-28.548-28.547-.006-.006-.44-.437c-8.988-9.132-9.931-23.693-2.108-34.258l.384-.508 21.044-27.097.196-.251-.145-.283a170.764 170.764 0 0 1-10.283-24.831l-.099-.302-.314-.04-34.076-4.332h-.003C42.589 298.636 32.5 287.268 32.5 273.8v-40.6c0-13.256 9.775-24.48 22.86-26.355l.625-.082h.004l34.022-4.332.314-.04.099-.302c2.801-8.621 6.235-16.934 10.282-24.83l.146-.283-.196-.252-21.044-27.078c-8.235-10.619-7.41-25.506 1.81-34.889l.446-.443.005-.004 28.548-28.53.006-.005c9.116-9.396 23.98-10.481 34.698-2.55l.507.385 27.08 21.043.251.196.283-.145c7.896-4.047 16.21-7.482 24.85-10.283l.301-.098.041-.314 4.332-34.075v-.003c1.576-13.134 12.617-23.114 25.808-23.423l.63-.008Zm20.301 125.875c-50.249 0-91.129 40.878-91.129 91.125s40.88 91.125 91.129 91.125 91.129-40.878 91.129-91.125-40.88-91.125-91.129-91.125Z" stroke="#fff"/><rect x="273" y="80.245" width="254" height="287" rx="12" transform="rotate(-6.385 273 80.245)" fill="#463856"/><rect x="337.394" y="98.195" width="161" height="12" rx="6" transform="rotate(-6.385 337.394 98.195)" fill="#fff" fill-opacity=".27"/><rect x="343.177" y="149.872" width="161" height="12" rx="6" transform="rotate(-6.385 343.177 149.872)" fill="#fff" fill-opacity=".27"/><rect x="348.96" y="201.549" width="161" height="12" rx="6" transform="rotate(-6.385 348.96 201.549)" fill="#fff" fill-opacity=".27"/><rect x="354.742" y="253.227" width="161" height="12" rx="6" transform="rotate(-6.385 354.742 253.227)" fill="#fff" fill-opacity=".27"/><rect x="360.525" y="304.904" width="161" height="12" rx="6" transform="rotate(-6.385 360.525 304.904)" fill="#786E84"/><rect x="339.508" y="117.076" width="130" height="12" rx="6" transform="rotate(-6.385 339.508 117.076)" fill="#fff" fill-opacity=".27"/><rect x="345.29" y="168.754" width="100" height="12" rx="6" transform="rotate(-6.385 345.29 168.754)" fill="#fff" fill-opacity=".27"/><rect x="351.073" y="220.432" width="139" height="12" rx="6" transform="rotate(-6.385 351.073 220.432)" fill="#fff" fill-opacity=".27"/><rect x="356.855" y="272.109" width="75" height="12" rx="6" transform="rotate(-6.385 356.855 272.109)" fill="#fff" fill-opacity=".27"/><rect x="362.638" y="323.786" width="117" height="12" rx="6" transform="rotate(-6.385 362.638 323.786)" fill="#786E84"/><path d="m320.834 108.028-7.246 8.791-4.095-3.169" stroke="#C6F806" stroke-linecap="round" stroke-linejoin="round"/><rect x="303.165" y="102.527" width="22" height="22" rx="3.5" transform="rotate(-6.385 303.165 102.527)" stroke="#C6F806"/><path d="m326.617 159.705-7.246 8.792-4.096-3.169" stroke="#C6F806" stroke-linecap="round" stroke-linejoin="round"/><rect x="308.947" y="154.205" width="22" height="22" rx="3.5" transform="rotate(-6.385 308.947 154.205)" stroke="#C6F806"/><path d="m332.399 211.383-7.246 8.791-4.096-3.169" stroke="#C6F806" stroke-linecap="round" stroke-linejoin="round"/><rect x="314.73" y="205.883" width="22" height="22" rx="3.5" transform="rotate(-6.385 314.73 205.883)" stroke="#C6F806"/><path d="m338.182 263.061-7.247 8.791-4.095-3.169" stroke="#C6F806" stroke-linecap="round" stroke-linejoin="round"/><rect x="320.512" y="257.56" width="22" height="22" rx="3.5" transform="rotate(-6.385 320.512 257.56)" stroke="#C6F806"/><path d="m343.964 314.738-7.246 8.791-4.096-3.169" stroke="#C6F806" stroke-linecap="round" stroke-linejoin="round"/><rect x="326.295" y="309.237" width="22" height="22" rx="3.5" transform="rotate(-6.385 326.295 309.237)" stroke="#C6F806"/><circle cx="230.276" cy="248.276" r="21.877" transform="rotate(-16.838 230.276 248.276)" fill="#fff"/><path d="m234.869 240.253-8.725 16.298m-3.787-12.512 16.298 8.725" stroke="#222" stroke-width="4" stroke-linecap="round" stroke-linejoin="round"/><circle cx="526.95" cy="47.949" r="25.551" transform="rotate(17.15 526.95 47.95)" fill="#C6F806"/><path d="m537.317 45.113-14.232 7.684-3.376-6.53" stroke="#202020" stroke-width="4" stroke-linecap="round" stroke-linejoin="round"/></g><defs><clipPath id="a"><rect width="646" height="322" rx="22" fill="#fff"/></clipPath></defs></svg>