<svg width="652" height="652" viewBox="0 0 652 652" fill="none" xmlns="http://www.w3.org/2000/svg">
<g clip-path="url(#clip0_3550_2152)">
<g style="mix-blend-mode:screen" opacity="0.3" filter="url(#filter0_f_3550_2152)">
<path style="mix-blend-mode:screen" d="M326 44.8591C168.985 44.8591 41.6978 171.297 41.6978 327.266C41.6978 483.235 168.985 609.673 326 609.673C483.016 609.673 610.302 483.235 610.302 327.266C610.302 171.297 483.016 44.8591 326 44.8591Z" fill="url(#paint0_radial_3550_2152)"/>
</g>
<path opacity="0.5" d="M259.523 195.694C259.523 226.115 278.841 267.113 333.273 267.592H334.231C388.664 267.096 407.981 226.115 407.981 195.694C407.981 174.888 402.809 164.197 389.308 141.328C375.808 118.44 376.088 101.817 376.088 86.6638C376.088 77.5415 373.693 71.5275 371.775 68.2059C371.218 67.2239 370.411 66.4069 369.436 65.838C368.461 65.2691 367.352 64.9685 366.223 64.9668H301.265C300.136 64.9687 299.027 65.2694 298.052 65.8383C297.077 66.4072 296.27 67.2241 295.712 68.2059C293.812 71.5266 291.399 77.5424 291.399 86.6638C291.399 101.817 291.681 118.457 278.18 141.328C264.68 164.214 259.507 174.906 259.507 195.694H259.523Z" fill="url(#paint1_radial_3550_2152)" stroke="url(#paint2_radial_3550_2152)" stroke-width="0.682326" stroke-miterlimit="10"/>
<path opacity="0.5" d="M259.523 195.694C259.523 226.115 278.841 267.113 333.273 267.592H334.231C388.664 267.096 407.981 226.115 407.981 195.694C407.981 174.888 402.809 164.197 389.308 141.328C375.808 118.44 376.088 101.817 376.088 86.6638C376.088 77.5415 373.693 71.5275 371.775 68.2059C371.218 67.2239 370.411 66.4069 369.436 65.838C368.461 65.2691 367.352 64.9685 366.223 64.9668H301.265C300.136 64.9687 299.027 65.2694 298.052 65.8383C297.077 66.4072 296.27 67.2241 295.712 68.2059C293.812 71.5266 291.399 77.5424 291.399 86.6638C291.399 101.817 291.681 118.457 278.18 141.328C264.68 164.214 259.507 174.906 259.507 195.694H259.523Z" fill="url(#paint3_radial_3550_2152)"/>
<path style="mix-blend-mode:screen" opacity="0.8" d="M259.523 195.694C259.523 226.115 278.841 267.113 333.273 267.592H334.231C388.664 267.096 407.981 226.115 407.981 195.694C407.981 174.888 402.809 164.197 389.308 141.328C375.808 118.44 376.088 101.817 376.088 86.6638C376.088 77.5415 373.693 71.5266 371.775 68.2059C371.218 67.2239 370.411 66.4069 369.436 65.838C368.461 65.2691 367.352 64.9685 366.223 64.9668H301.265C300.136 64.9687 299.027 65.2694 298.052 65.8383C297.077 66.4072 296.27 67.2241 295.712 68.2059C293.812 71.5266 291.399 77.5424 291.399 86.6638C291.399 101.817 291.681 118.457 278.18 141.328C264.68 164.214 259.507 174.906 259.507 195.694H259.523Z" stroke="url(#paint4_radial_3550_2152)" stroke-width="1.14669" stroke-miterlimit="10"/>
<path style="mix-blend-mode:multiply" opacity="0.5" d="M365.81 72.0896C367.165 74.5687 368.967 79.2625 368.967 86.6487V87.5736C368.967 103.173 368.967 120.855 383.178 144.948C396.281 167.14 400.859 176.609 400.859 195.695C400.859 219.523 386.813 259.993 334.182 260.455H333.356C280.725 259.993 266.678 219.523 266.678 195.695C266.678 176.609 271.256 167.14 284.36 144.948C298.588 120.855 298.571 103.173 298.571 87.5736V86.6487C298.571 79.2625 300.372 74.5687 301.727 72.0905H365.827L365.81 72.0896Z" stroke="url(#paint5_linear_3550_2152)" stroke-width="1.70581" stroke-miterlimit="10"/>
<path style="mix-blend-mode:screen" opacity="0.5" d="M364.207 76.8223C365.497 79.1858 367.199 83.6304 367.199 90.6536V91.5292C367.199 106.352 367.199 123.141 380.7 146.028C393.143 167.114 397.505 176.103 397.505 194.231C397.505 216.869 384.169 255.305 334.166 255.735H333.373C283.369 255.289 270.034 216.869 270.034 194.231C270.034 176.103 274.396 167.114 286.839 146.028C300.34 123.141 300.34 106.352 300.34 91.5292V90.6536C300.34 83.6474 302.042 79.1858 303.331 76.8223H364.224H364.207Z" stroke="url(#paint6_linear_3550_2152)" stroke-width="1.62052" stroke-miterlimit="10"/>
<path d="M375.38 78.7346C375.38 78.7346 369.184 72.6534 335.688 71.8109C302.192 70.9845 291.881 74.5042 291.881 74.5042C291.881 74.5042 293.038 70.5713 294.459 70.0757C294.542 66.4897 294.773 57.682 294.773 57.682C294.773 57.682 295.087 55.98 297.335 53.7994C295.021 51.3203 290.311 48.6763 297.813 41.4057C296.013 39.4725 294.062 36.1006 298.772 31.5404C296.624 29.2433 295.764 24.6328 300.11 20.4356C304.44 16.2383 305.845 16.9822 305.845 16.9822C305.845 16.9822 317.891 0.57326 333.573 0.953278C349.255 1.34941 357.303 4.42366 366.953 20.4687C369.217 21.7907 370.952 23.0796 370.704 25.5909C373.86 26.3841 372.687 30.8458 372.687 30.8458C372.687 30.8458 376.157 33.2756 375.892 36.6797C375.628 40.0837 371.183 41.9506 371.183 41.9506C371.183 41.9506 375.034 43.1238 375.132 46.5449C375.232 49.9661 371.282 52.3779 371.282 52.3779C371.282 52.3779 375.281 54.4599 374.654 58.7557C374.025 63.0525 370.274 64.5726 370.274 64.5726C370.274 64.5726 380.9 69.6957 375.397 78.7185L375.38 78.7346Z" fill="url(#paint7_linear_3550_2152)"/>
<path style="mix-blend-mode:screen" opacity="0.3" d="M373.463 75.2623C373.463 75.2623 369.117 75.3287 368.869 73.5603C368.622 71.7919 369.662 67.7605 369.662 67.7605C369.662 67.7605 369.398 66.4546 367.531 65.942C371.067 65.5629 374.091 67.2147 373.479 75.2623H373.463ZM372.917 61.7286C372.917 61.7286 375.017 60.1915 374.603 58.0601C374.19 55.9279 370.555 55.6142 370.555 55.6142C370.555 55.6142 370.968 57.9767 365.267 60.0095C367.366 60.4729 368.753 63.8599 368.753 63.8599L372.917 61.7286ZM374.438 48.1285C375.116 46.7904 373.265 43.4025 370.786 43.6839C371.397 45.2201 369.282 47.2851 365.961 48.79C368.357 49.6656 369.084 52.9863 369.084 52.9863C369.084 52.9863 373.761 49.4505 374.438 48.1285ZM374.852 36.4949C374.801 33.8509 371.431 32.4796 371.431 32.4796L371.761 33.6689C371.761 33.6689 371.414 35.7187 366.903 37.7837C367.514 38.9247 370.158 41.6341 370.158 41.6341C370.158 41.6341 374.917 39.172 374.868 36.5119L374.852 36.4949ZM368.919 26.8779C368.919 26.8779 369.927 28.9599 368.886 30.3482C370.34 30.9756 371.166 30.6951 371.166 30.6951C371.166 30.6951 373.133 29.8687 372.24 27.9023C371.348 25.9359 368.919 26.8779 368.919 26.8779Z" fill="url(#paint8_linear_3550_2152)"/>
<path style="mix-blend-mode:screen" d="M368.707 25.5929C368.707 25.5929 368.921 23.8416 364.476 22.8494C360.031 21.8581 353.14 22.3376 353.14 22.3376L368.69 25.609L368.707 25.5929Z" fill="url(#paint9_linear_3550_2152)"/>
<path style="mix-blend-mode:screen" opacity="0.12" d="M296.044 70.4093C296.044 70.4093 296.044 61.9494 296.408 58.5947C296.772 55.2399 302.175 56.2643 302.175 56.2643C302.175 56.2643 299.184 58.1815 299.134 59.7679C299.101 61.3543 299.201 70.4766 299.201 70.4766L296.028 70.3932L296.044 70.4093ZM300.952 52.811C300.952 52.811 299.383 51.3232 300.109 50.8446C300.836 50.3821 302.621 50.2002 302.621 50.2002C302.621 50.2002 299.052 49.7206 299.383 48.4489C299.712 47.1761 300.936 46.2341 300.936 46.2341C300.936 46.2341 296.375 46.3337 296.54 49.2582C296.705 52.1827 300.969 52.811 300.969 52.811H300.952ZM301.068 40.55C301.283 39.4099 303.976 39.2109 303.976 39.2109C303.976 39.2109 300.076 38.7977 300.06 37.344C300.06 35.8893 301.398 34.3361 301.398 34.3361C301.398 34.3361 296.259 35.3605 296.243 37.7401C296.226 40.1197 300.803 41.7725 302.323 42.1193C301.696 41.6569 301.051 40.55 301.051 40.55H301.068ZM301.596 31.4779L302.985 30.8496C302.985 30.8496 299.696 28.3875 300.688 26.9992C301.696 25.6118 303.447 24.3391 303.447 24.3391C303.447 24.3391 298.952 25.0167 298.341 27.2968C297.73 29.5769 301.596 31.4779 301.596 31.4779ZM317.063 21.4307C317.063 21.4307 310.206 20.6213 305.711 21.3814C301.216 22.1585 301.349 23.9259 301.349 23.9259L317.047 21.4307H317.063Z" fill="url(#paint10_linear_3550_2152)"/>
<path style="mix-blend-mode:screen" opacity="0.3" d="M372.556 66.7865L357.238 63.6971L361.749 66.9855C361.749 66.9855 353.322 65.7128 337.21 65.3157C321.116 64.9196 305.747 68.0592 305.88 63.0034C306.012 57.9456 315.629 58.772 335.608 59.2686C355.586 59.7642 360.94 61.5487 360.94 61.5487C370.888 63.4488 372.574 66.7704 372.574 66.7704L372.556 66.7865ZM342.118 52.3278L359.336 51.0721C359.336 51.0721 351.075 49.717 335.475 49.337C319.876 48.9569 309.515 50.7253 309.515 50.7253C309.515 50.7253 310.109 51.8815 324.387 52.2454C315.744 52.0302 309.267 53.303 305.45 54.3776C304.839 54.5416 305.003 55.4513 305.632 55.4182C312.489 54.9225 326.7 54.0791 339.59 54.3937C357.387 54.8392 368.954 54.5094 368.954 54.5094C363.881 52.5259 342.118 52.3439 342.118 52.3439V52.3278ZM346.729 40.6278L359.353 39.9673C359.353 39.9673 349.157 38.8272 334.088 38.4633C319.017 38.0843 309.813 39.6195 309.813 39.6195C309.813 39.6195 309.151 41.1073 318.67 41.3386C308.507 42.2313 305.863 45.8666 305.863 45.8666C305.863 45.8666 318.554 42.743 337.855 43.2226C357.156 43.7021 364.179 44.7597 364.179 44.7597C356.081 40.678 346.729 40.6278 346.729 40.6278ZM339.259 29.161C346.96 28.1185 357.503 29.7883 357.503 29.7883C357.503 29.7883 354.743 26.9785 335.194 26.4999C315.646 26.0204 309.911 28.8624 309.911 28.8624C309.911 28.8624 311.845 29.1771 328.849 29.5903C320.47 29.3751 309.349 33.688 309.349 33.688C309.349 33.688 321.231 31.0772 335.772 31.4401C350.315 31.804 362.014 32.7953 362.014 32.7953C357.932 30.483 343.225 29.2425 339.259 29.1439V29.161ZM357.965 24.8633C357.965 24.8633 354.264 22.5339 335.343 22.0714C316.422 21.608 313.018 23.691 313.018 23.691C327.775 22.5832 342.779 23.0617 357.965 24.8633Z" fill="url(#paint11_linear_3550_2152)"/>
<path style="mix-blend-mode:screen" opacity="0.3" d="M351.22 14.2824C351.22 14.2824 365.134 21.8676 366.819 20.248C368.505 18.6455 353.831 5.70691 349.699 4.00488C355.285 8.73094 360.094 11.8535 359.913 13.9526C359.747 16.0678 351.203 14.2654 351.203 14.2654L351.22 14.2824Z" fill="url(#paint12_linear_3550_2152)"/>
<path style="mix-blend-mode:screen" opacity="0.3" d="M322.289 13.5574C322.289 13.5574 308.011 20.4318 306.409 18.7469C304.805 17.0609 320.09 4.86627 324.305 3.37842C318.488 7.82301 313.546 10.6992 313.613 12.8144C313.679 14.9296 322.289 13.5574 322.289 13.5574Z" fill="url(#paint13_linear_3550_2152)"/>
<path d="M349 73.5C346.333 94 347.3 140.3 360.5 161.5" stroke="#6C6C6C"/>
<path d="M317.869 74C320.389 94.0341 319.476 139.282 307 160" stroke="#6C6C6C"/>
<g filter="url(#filter1_d_3550_2152)">
<path d="M359.875 161.627L355.018 162.122C355.018 162.122 352.043 154.985 351.25 154.786C350.456 154.588 351.943 167.956 348.672 168.65C345.4 169.344 350.258 151.316 345.499 150.919C340.74 150.523 346.292 172.716 341.533 170.137C336.774 167.559 341.533 152.704 337.171 151.514C332.808 150.324 337.667 174.004 333.205 172.219C328.743 170.435 333.899 151.217 328.842 151.91C323.786 152.605 327.851 174.301 325.273 173.31C322.695 172.318 325.173 151.514 321.406 152.01C317.639 152.505 318.828 171.723 315.358 170.336C311.888 168.948 317.241 154.389 315.259 153.199C313.276 152.01 311.987 170.534 310.104 169.543C308.22 168.551 307.029 160.04 307.029 160.04" stroke="#EBBE86" stroke-width="1.70581" stroke-miterlimit="10" stroke-linecap="round"/>
</g>
<path d="M359.876 161.627L357.794 161.841M357.085 161.908L355.019 162.122C355.019 162.122 354.672 161.296 354.193 160.206M353.216 158.058C352.439 156.422 351.613 154.885 351.266 154.786C350.473 154.588 351.961 167.956 348.688 168.65C345.416 169.344 350.275 151.316 345.516 150.919C340.756 150.523 346.309 172.716 341.55 170.137C336.79 167.559 341.55 152.704 337.187 151.514C332.824 150.324 337.683 174.004 333.221 172.219C328.76 170.435 333.915 151.217 328.859 151.91C323.803 152.605 327.867 174.301 325.289 173.31C322.712 172.318 325.19 151.514 321.423 152.01C317.655 152.505 318.845 171.723 315.375 170.336C311.904 168.948 317.259 154.389 315.275 153.199C313.293 152.01 312.004 170.534 310.12 169.543C309.013 168.964 308.137 165.759 307.608 163.23M307.428 162.089C307.304 161.408 307.189 160.725 307.081 160.04" stroke="#EBEB90" stroke-width="0.682326" stroke-miterlimit="10" stroke-linecap="round"/>
<g style="mix-blend-mode:screen" filter="url(#filter2_f_3550_2152)">
<path style="mix-blend-mode:screen" d="M333.424 115.354C305.142 115.354 282.214 138.821 282.214 167.77C282.214 196.718 305.142 220.186 333.424 220.186C361.706 220.186 384.634 196.718 384.634 167.77C384.634 138.821 361.706 115.354 333.424 115.354Z" fill="url(#paint14_radial_3550_2152)"/>
</g>
<g style="mix-blend-mode:screen" opacity="0.3" filter="url(#filter3_f_3550_2152)">
<path style="mix-blend-mode:screen" d="M333.426 105.819C287.904 105.819 251.001 142.529 251.001 187.814C251.001 233.099 287.904 269.81 333.426 269.81C378.948 269.81 415.852 233.1 415.852 187.814C415.852 142.529 378.948 105.819 333.426 105.819Z" fill="url(#paint15_radial_3550_2152)"/>
</g>
<g filter="url(#filter4_f_3550_2152)">
<path d="M397 195C397.5 207.333 392.1 235.3 366.5 248.5" stroke="white"/>
</g>
<path style="mix-blend-mode:screen" opacity="0.8" d="M362.899 255.173C375.557 247.125 353.612 218.224 336.459 204.624C319.307 191.024 300.552 197.42 274.971 213.829C249.408 230.238 320.645 282.075 362.882 255.19L362.899 255.173Z" fill="url(#paint16_linear_3550_2152)"/>
<g opacity="0.97" filter="url(#filter5_f_3550_2152)">
<path d="M271 208C273.667 222.667 288.9 252.7 328.5 255.5" stroke="white" stroke-width="2"/>
</g>
</g>
<defs>
<filter id="filter0_f_3550_2152" x="0.37915" y="3.54053" width="651.242" height="647.451" filterUnits="userSpaceOnUse" color-interpolation-filters="sRGB">
<feFlood flood-opacity="0" result="BackgroundImageFix"/>
<feBlend mode="normal" in="SourceGraphic" in2="BackgroundImageFix" result="shape"/>
<feGaussianBlur stdDeviation="20.6593" result="effect1_foregroundBlur_3550_2152"/>
</filter>
<filter id="filter1_d_3550_2152" x="292.549" y="136.433" width="81.8071" height="51.3896" filterUnits="userSpaceOnUse" color-interpolation-filters="sRGB">
<feFlood flood-opacity="0" result="BackgroundImageFix"/>
<feColorMatrix in="SourceAlpha" type="matrix" values="0 0 0 0 0 0 0 0 0 0 0 0 0 0 0 0 0 0 127 0" result="hardAlpha"/>
<feOffset/>
<feGaussianBlur stdDeviation="6.81378"/>
<feColorMatrix type="matrix" values="0 0 0 0 1 0 0 0 0 0.45098 0 0 0 0 0 0 0 0 0.85 0"/>
<feBlend mode="normal" in2="BackgroundImageFix" result="effect1_dropShadow_3550_2152"/>
<feBlend mode="normal" in="SourceGraphic" in2="effect1_dropShadow_3550_2152" result="shape"/>
</filter>
<filter id="filter2_f_3550_2152" x="240.895" y="74.0352" width="185.057" height="187.47" filterUnits="userSpaceOnUse" color-interpolation-filters="sRGB">
<feFlood flood-opacity="0" result="BackgroundImageFix"/>
<feBlend mode="normal" in="SourceGraphic" in2="BackgroundImageFix" result="shape"/>
<feGaussianBlur stdDeviation="20.6593" result="effect1_foregroundBlur_3550_2152"/>
</filter>
<filter id="filter3_f_3550_2152" x="209.682" y="64.5007" width="247.488" height="246.627" filterUnits="userSpaceOnUse" color-interpolation-filters="sRGB">
<feFlood flood-opacity="0" result="BackgroundImageFix"/>
<feBlend mode="normal" in="SourceGraphic" in2="BackgroundImageFix" result="shape"/>
<feGaussianBlur stdDeviation="20.6593" result="effect1_foregroundBlur_3550_2152"/>
</filter>
<filter id="filter4_f_3550_2152" x="362.671" y="191.38" width="38.46" height="61.1646" filterUnits="userSpaceOnUse" color-interpolation-filters="sRGB">
<feFlood flood-opacity="0" result="BackgroundImageFix"/>
<feBlend mode="normal" in="SourceGraphic" in2="BackgroundImageFix" result="shape"/>
<feGaussianBlur stdDeviation="1.8" result="effect1_foregroundBlur_3550_2152"/>
</filter>
<filter id="filter5_f_3550_2152" x="265.816" y="203.621" width="66.9544" height="57.0765" filterUnits="userSpaceOnUse" color-interpolation-filters="sRGB">
<feFlood flood-opacity="0" result="BackgroundImageFix"/>
<feBlend mode="normal" in="SourceGraphic" in2="BackgroundImageFix" result="shape"/>
<feGaussianBlur stdDeviation="2.1" result="effect1_foregroundBlur_3550_2152"/>
</filter>
<radialGradient id="paint0_radial_3550_2152" cx="0" cy="0" r="1" gradientUnits="userSpaceOnUse" gradientTransform="translate(321.273 315.031) rotate(180) scale(285.189 284.772)">
<stop offset="0.13" stop-color="#8A31EF"/>
<stop offset="1" stop-color="#8A31EF" stop-opacity="0"/>
</radialGradient>
<radialGradient id="paint1_radial_3550_2152" cx="0" cy="0" r="1" gradientUnits="userSpaceOnUse" gradientTransform="translate(330.596 158.049) rotate(-180) scale(225.082 225.082)">
<stop stop-color="#637987" stop-opacity="0"/>
<stop offset="1" stop-color="#637987"/>
</radialGradient>
<radialGradient id="paint2_radial_3550_2152" cx="0" cy="0" r="1" gradientUnits="userSpaceOnUse" gradientTransform="translate(333.769 166.279) rotate(-180) scale(89.3984)">
<stop stop-color="#637987" stop-opacity="0"/>
<stop offset="1" stop-color="#637987"/>
</radialGradient>
<radialGradient id="paint3_radial_3550_2152" cx="0" cy="0" r="1" gradientUnits="userSpaceOnUse" gradientTransform="translate(334.165 197.577) rotate(180) scale(142.079 142.079)">
<stop stop-color="#637987" stop-opacity="0"/>
<stop offset="1" stop-color="#333D47"/>
</radialGradient>
<radialGradient id="paint4_radial_3550_2152" cx="0" cy="0" r="1" gradientUnits="userSpaceOnUse" gradientTransform="translate(333.769 166.279) rotate(-180) scale(89.795 89.795)">
<stop stop-color="#637987" stop-opacity="0"/>
<stop offset="1" stop-color="#333D47"/>
</radialGradient>
<linearGradient id="paint5_linear_3550_2152" x1="333.769" y1="70.6027" x2="333.769" y2="261.942" gradientUnits="userSpaceOnUse">
<stop stop-color="#637987"/>
<stop offset="1" stop-color="#637987" stop-opacity="0"/>
</linearGradient>
<linearGradient id="paint6_linear_3550_2152" x1="333.769" y1="75.4178" x2="333.769" y2="257.156" gradientUnits="userSpaceOnUse">
<stop stop-color="#637987" stop-opacity="0"/>
<stop offset="1" stop-color="#637987"/>
</linearGradient>
<linearGradient id="paint7_linear_3550_2152" x1="377.787" y1="39.9908" x2="292.777" y2="37.8842" gradientUnits="userSpaceOnUse">
<stop stop-color="#686868"/>
<stop offset="0.2" stop-color="#4A3265"/>
<stop offset="0.33" stop-color="#4E336D"/>
<stop offset="0.53" stop-color="#351658"/>
<stop offset="0.67" stop-color="#1D0A33"/>
<stop offset="0.85" stop-color="#17062C"/>
<stop offset="1" stop-color="#3D1768"/>
</linearGradient>
<linearGradient id="paint8_linear_3550_2152" x1="374.835" y1="51.0568" x2="365.469" y2="50.8246" gradientUnits="userSpaceOnUse">
<stop offset="0.18" stop-color="#A49F9E" stop-opacity="0.3"/>
<stop offset="0.47" stop-color="#8C8381"/>
<stop offset="0.67" stop-color="#958E8C"/>
<stop offset="1" stop-color="#C7C5C5"/>
</linearGradient>
<linearGradient id="paint9_linear_3550_2152" x1="368.73" y1="24.0652" x2="353.102" y2="23.6776" gradientUnits="userSpaceOnUse">
<stop stop-color="#C7C5C5"/>
<stop offset="0.33" stop-color="#958E8C"/>
<stop offset="0.53" stop-color="#8C8381"/>
<stop offset="0.82" stop-color="#A49F9E"/>
<stop offset="1" stop-color="#CCCBCA"/>
</linearGradient>
<linearGradient id="paint10_linear_3550_2152" x1="306.866" y1="20.9635" x2="305.634" y2="70.6709" gradientUnits="userSpaceOnUse">
<stop stop-color="#C7C5C5"/>
<stop offset="0.33" stop-color="#958E8C"/>
<stop offset="0.53" stop-color="#8C8381"/>
<stop offset="0.82" stop-color="#A49F9E" stop-opacity="0.3"/>
</linearGradient>
<linearGradient id="paint11_linear_3550_2152" x1="373.081" y1="45.2136" x2="305.334" y2="43.5343" gradientUnits="userSpaceOnUse">
<stop stop-color="#C7C5C5" stop-opacity="0.2"/>
<stop offset="0.33" stop-color="#958E8C"/>
<stop offset="0.53" stop-color="#8C8381"/>
<stop offset="1" stop-color="#CCCBCA" stop-opacity="0.2"/>
</linearGradient>
<linearGradient id="paint12_linear_3550_2152" x1="367.145" y1="12.4979" x2="349.502" y2="12.0601" gradientUnits="userSpaceOnUse">
<stop stop-color="#C7C5C5"/>
<stop offset="0.33" stop-color="#958E8C"/>
<stop offset="0.53" stop-color="#8C8381"/>
<stop offset="0.82" stop-color="#A49F9E"/>
<stop offset="1" stop-color="#CCCBCA"/>
</linearGradient>
<linearGradient id="paint13_linear_3550_2152" x1="306.424" y1="10.8622" x2="324.067" y2="11.3" gradientUnits="userSpaceOnUse">
<stop stop-color="#C7C5C5"/>
<stop offset="0.33" stop-color="#958E8C"/>
<stop offset="0.53" stop-color="#8C8381"/>
<stop offset="0.82" stop-color="#A49F9E"/>
<stop offset="1" stop-color="#CCCBCA"/>
</linearGradient>
<radialGradient id="paint14_radial_3550_2152" cx="0" cy="0" r="1" gradientUnits="userSpaceOnUse" gradientTransform="translate(333.424 168.902) rotate(180) scale(51.21 52.2341)">
<stop offset="0.13" stop-color="#8A31EF"/>
<stop offset="1" stop-color="#8A31EF" stop-opacity="0"/>
</radialGradient>
<radialGradient id="paint15_radial_3550_2152" cx="0" cy="0" r="1" gradientUnits="userSpaceOnUse" gradientTransform="translate(332.056 184.262) rotate(180) scale(82.6821 82.6821)">
<stop offset="0.13" stop-color="#8A31EF"/>
<stop offset="1" stop-color="#8A31EF" stop-opacity="0"/>
</radialGradient>
<linearGradient id="paint16_linear_3550_2152" x1="295.336" y1="200.991" x2="339.75" y2="270.172" gradientUnits="userSpaceOnUse">
<stop stop-color="#637987" stop-opacity="0"/>
<stop offset="0.58" stop-color="#637987"/>
<stop offset="1" stop-color="#AFBAC1"/>
</linearGradient>
<clipPath id="clip0_3550_2152">
<rect width="652" height="650.105" fill="white" transform="translate(0 0.947754)"/>
</clipPath>
</defs>
</svg>
