<svg width="680" height="413" viewBox="0 0 680 413" fill="none" xmlns="http://www.w3.org/2000/svg">
<g filter="url(#filter0_d_2746_546)">
<path d="M565.686 165.734C557.204 111.441 510.135 69.7696 453.496 69.7696C432.188 69.7696 411.713 75.6649 393.954 86.6605C366.937 41.2549 318.298 13 264.263 13C180.791 13 112.878 80.9129 112.878 164.386C112.878 164.903 112.878 165.439 112.897 165.956C59.2492 174.993 17 221.765 17 277.925C17 340.534 69.1915 391.464 131.801 391.464H548.112C610.721 391.464 662.912 340.534 662.912 277.925C662.912 221.285 619.979 174.217 565.686 165.734Z" fill="url(#paint0_linear_2746_546)"/>
</g>
<defs>
<filter id="filter0_d_2746_546" x="0.4" y="0.4" width="679.112" height="411.665" filterUnits="userSpaceOnUse" color-interpolation-filters="sRGB">
<feFlood flood-opacity="0" result="BackgroundImageFix"/>
<feColorMatrix in="SourceAlpha" type="matrix" values="0 0 0 0 0 0 0 0 0 0 0 0 0 0 0 0 0 0 127 0" result="hardAlpha"/>
<feOffset dy="4"/>
<feGaussianBlur stdDeviation="8.3"/>
<feComposite in2="hardAlpha" operator="out"/>
<feColorMatrix type="matrix" values="0 0 0 0 0 0 0 0 0 0 0 0 0 0 0 0 0 0 0.25 0"/>
<feBlend mode="normal" in2="BackgroundImageFix" result="effect1_dropShadow_2746_546"/>
<feBlend mode="normal" in="SourceGraphic" in2="effect1_dropShadow_2746_546" result="shape"/>
</filter>
<linearGradient id="paint0_linear_2746_546" x1="339.956" y1="13" x2="339.956" y2="391.464" gradientUnits="userSpaceOnUse">
<stop stop-color="#471C77"/>
<stop offset="1" stop-color="#310C5A"/>
</linearGradient>
</defs>
</svg>
