<svg width="423" height="248" viewBox="0 0 423 248" fill="none" xmlns="http://www.w3.org/2000/svg">
<path d="M358.991 99.93C353.441 64.4074 322.645 37.1429 285.588 37.1429C271.647 37.1429 258.25 41 246.631 48.1941C228.955 18.4864 197.131 0 161.778 0C107.164 0 62.7302 44.4336 62.7302 99.0477C62.7302 99.3861 62.7302 99.7369 62.7426 100.075C27.6426 105.988 0 136.589 0 173.333C0 214.297 34.1475 247.619 75.1112 247.619H347.492C388.456 247.619 422.603 214.297 422.603 173.333C422.603 136.276 394.514 105.48 358.991 99.93Z" fill="url(#paint0_linear_2746_544)"/>
<defs>
<linearGradient id="paint0_linear_2746_544" x1="211.302" y1="0" x2="211.302" y2="247.619" gradientUnits="userSpaceOnUse">
<stop stop-color="#471C77"/>
<stop offset="1" stop-color="#310C5A"/>
</linearGradient>
</defs>
</svg>
