<svg width="35" height="83" viewBox="0 0 35 83" fill="none" xmlns="http://www.w3.org/2000/svg">
<path d="M34.7857 31.7873C34.6848 31.5217 34.5385 31.3008 34.3616 31.1471C34.1848 30.9934 33.9837 30.9124 33.779 30.9124H18.6208L21.1621 1.95569C21.1894 1.56815 21.1284 1.1782 20.989 0.848627C20.8496 0.519054 20.6399 0.269035 20.3936 0.138824C20.1473 0.00861415 19.8788 0.00579033 19.6313 0.130808C19.3839 0.255825 19.1718 0.501408 19.0293 0.828017L0.595229 48.9901C0.487432 49.2516 0.428352 49.5512 0.424078 49.8581C0.419804 50.1649 0.470492 50.4679 0.570916 50.7359C0.67134 51.0038 0.817865 51.2269 0.995383 51.3822C1.1729 51.5375 1.37499 51.6195 1.5808 51.6195H16.5125L14.4986 80.6198C14.4788 81.006 14.5462 81.391 14.69 81.7135C14.8339 82.0359 15.0459 82.2775 15.2924 82.3995C15.5389 82.5216 15.8057 82.5172 16.0503 82.3871C16.2949 82.257 16.5034 82.0086 16.6424 81.6814L34.7719 33.5245C34.877 33.2626 34.9337 32.9639 34.9361 32.6587C34.9385 32.3535 34.8867 32.0528 34.7857 31.7873Z" fill="white"/>
</svg>
