<svg width="652" height="652" fill="none" xmlns="http://www.w3.org/2000/svg"><g clip-path="url(#a)"><path opacity=".5" d="M259.523 195.694c0 30.421 19.318 71.419 73.75 71.898h.958c54.433-.496 73.75-41.477 73.75-71.898 0-20.806-5.172-31.497-18.673-54.366-13.5-22.888-13.22-39.511-13.22-54.664 0-9.123-2.395-15.136-4.313-18.458a6.394 6.394 0 0 0-5.552-3.24h-64.958a6.398 6.398 0 0 0-5.553 3.24c-1.9 3.32-4.313 9.336-4.313 18.458 0 15.153.282 31.793-13.219 54.664-13.5 22.886-18.673 33.578-18.673 54.366h.016Z" fill="url(#b)" stroke="url(#c)" stroke-width=".682" stroke-miterlimit="10"/><path opacity=".5" d="M259.523 195.694c0 30.421 19.318 71.419 73.75 71.898h.958c54.433-.496 73.75-41.477 73.75-71.898 0-20.806-5.172-31.497-18.673-54.366-13.5-22.888-13.22-39.511-13.22-54.664 0-9.123-2.395-15.136-4.313-18.458a6.394 6.394 0 0 0-5.552-3.24h-64.958a6.398 6.398 0 0 0-5.553 3.24c-1.9 3.32-4.313 9.336-4.313 18.458 0 15.153.282 31.793-13.219 54.664-13.5 22.886-18.673 33.578-18.673 54.366h.016Z" fill="url(#d)"/><path style="mix-blend-mode:screen" opacity=".8" d="M259.523 195.694c0 30.421 19.318 71.419 73.75 71.898h.958c54.433-.496 73.75-41.477 73.75-71.898 0-20.806-5.172-31.497-18.673-54.366-13.5-22.888-13.22-39.511-13.22-54.664 0-9.123-2.395-15.137-4.313-18.458a6.394 6.394 0 0 0-5.552-3.24h-64.958a6.398 6.398 0 0 0-5.553 3.24c-1.9 3.32-4.313 9.336-4.313 18.458 0 15.153.282 31.793-13.219 54.664-13.5 22.886-18.673 33.578-18.673 54.366h.016Z" stroke="url(#e)" stroke-width="1.147" stroke-miterlimit="10"/><path style="mix-blend-mode:multiply" opacity=".5" d="M365.81 72.09c1.355 2.479 3.157 7.172 3.157 14.559v.925c0 15.599 0 33.281 14.211 57.374 13.103 22.192 17.681 31.661 17.681 50.747 0 23.828-14.046 64.298-66.677 64.76h-.826c-52.631-.462-66.678-40.932-66.678-64.76 0-19.086 4.578-28.555 17.682-50.747 14.228-24.093 14.211-41.775 14.211-57.374v-.925c0-7.386 1.801-12.08 3.156-14.558h64.1l-.017-.001Z" stroke="url(#f)" stroke-width="1.706" stroke-miterlimit="10"/><path style="mix-blend-mode:screen" opacity=".5" d="M364.207 76.822c1.29 2.364 2.992 6.808 2.992 13.832v.875c0 14.823 0 31.612 13.501 54.499 12.443 21.086 16.805 30.075 16.805 48.203 0 22.638-13.336 61.074-63.339 61.504h-.793c-50.004-.446-63.339-38.866-63.339-61.504 0-18.128 4.362-27.117 16.805-48.203 13.501-22.887 13.501-39.676 13.501-54.499v-.875c0-7.007 1.702-11.468 2.991-13.832h60.893-.017Z" stroke="url(#g)" stroke-width="1.621" stroke-miterlimit="10"/><path d="M375.38 78.735s-6.196-6.082-39.692-6.924c-33.496-.827-43.807 2.693-43.807 2.693s1.157-3.933 2.578-4.428a6219 6219 0 0 1 .314-12.394s.314-1.702 2.562-3.883c-2.314-2.479-7.024-5.123.478-12.393-1.8-1.934-3.751-5.305.959-9.866-2.148-2.297-3.008-6.907 1.338-11.104 4.33-4.198 5.735-3.454 5.735-3.454S317.891.573 333.573.953c15.682.396 23.73 3.47 33.38 19.516 2.264 1.322 3.999 2.61 3.751 5.122 3.156.793 1.983 5.255 1.983 5.255s3.47 2.43 3.205 5.834c-.264 3.404-4.709 5.27-4.709 5.27s3.851 1.174 3.949 4.595c.1 3.421-3.85 5.833-3.85 5.833s3.999 2.082 3.372 6.378c-.629 4.297-4.38 5.817-4.38 5.817s10.626 5.123 5.123 14.146l-.017.016Z" fill="url(#h)"/><path style="mix-blend-mode:screen" opacity=".3" d="M373.463 75.262s-4.346.067-4.594-1.702c-.247-1.768.793-5.8.793-5.8s-.264-1.305-2.131-1.818c3.536-.38 6.56 1.273 5.948 9.32h-.016Zm-.546-13.533s2.1-1.538 1.686-3.669c-.413-2.132-4.048-2.446-4.048-2.446s.413 2.363-5.288 4.396c2.099.463 3.486 3.85 3.486 3.85l4.164-2.131Zm1.521-13.6c.678-1.339-1.173-4.726-3.652-4.445.611 1.536-1.504 3.601-4.825 5.106 2.396.876 3.123 4.196 3.123 4.196s4.677-3.535 5.354-4.857Zm.414-11.634c-.051-2.644-3.421-4.015-3.421-4.015l.33 1.189s-.347 2.05-4.858 4.115c.611 1.14 3.255 3.85 3.255 3.85s4.759-2.462 4.71-5.122l-.016-.017Zm-5.933-9.617s1.008 2.082-.033 3.47c1.454.628 2.28.347 2.28.347s1.967-.826 1.074-2.793c-.892-1.966-3.321-1.024-3.321-1.024Z" fill="url(#i)"/><path style="mix-blend-mode:screen" d="M368.707 25.593s.214-1.751-4.231-2.744c-4.445-.99-11.336-.511-11.336-.511l15.55 3.271.017-.016Z" fill="url(#j)"/><path style="mix-blend-mode:screen" opacity=".12" d="M296.044 70.41s0-8.46.364-11.815c.364-3.355 5.767-2.33 5.767-2.33s-2.991 1.916-3.041 3.503c-.033 1.586.067 10.709.067 10.709l-3.173-.084.016.016Zm4.908-17.599s-1.569-1.488-.843-1.966c.727-.463 2.512-.645 2.512-.645s-3.569-.48-3.238-1.751c.329-1.273 1.553-2.215 1.553-2.215s-4.561.1-4.396 3.024c.165 2.925 4.429 3.553 4.429 3.553h-.017Zm.116-12.261c.215-1.14 2.908-1.34 2.908-1.34s-3.9-.412-3.916-1.866c0-1.455 1.338-3.008 1.338-3.008s-5.139 1.025-5.155 3.404c-.017 2.38 4.56 4.032 6.08 4.38-.627-.463-1.272-1.57-1.272-1.57h.017Zm.528-9.072 1.389-.628s-3.289-2.463-2.297-3.85c1.008-1.388 2.759-2.66 2.759-2.66s-4.495.677-5.106 2.957c-.611 2.28 3.255 4.18 3.255 4.18Zm15.467-10.047s-6.857-.81-11.352-.05c-4.495.777-4.362 2.545-4.362 2.545l15.698-2.495h.016Z" fill="url(#k)"/><path style="mix-blend-mode:screen" opacity=".3" d="m372.556 66.787-15.318-3.09 4.511 3.288s-8.427-1.272-24.539-1.67c-16.094-.395-31.463 2.744-31.33-2.312.132-5.057 9.749-4.231 29.728-3.734 19.978.495 25.332 2.28 25.332 2.28 9.948 1.9 11.634 5.221 11.634 5.221l-.018.017Zm-30.438-14.46 17.218-1.255s-8.261-1.355-23.861-1.735c-15.599-.38-25.96 1.388-25.96 1.388s.594 1.157 14.872 1.52c-8.643-.215-15.12 1.058-18.937 2.133-.611.164-.447 1.073.182 1.04 6.857-.495 21.068-1.339 33.958-1.024 17.797.445 29.364.115 29.364.115-5.073-1.983-26.836-2.165-26.836-2.165v-.016Zm4.611-11.7 12.624-.66s-10.196-1.14-25.265-1.504c-15.071-.379-24.275 1.157-24.275 1.157s-.662 1.487 8.857 1.719c-10.163.892-12.807 4.528-12.807 4.528s12.691-3.124 31.992-2.644c19.301.48 26.324 1.537 26.324 1.537-8.098-4.082-17.45-4.132-17.45-4.132Zm-7.47-11.466c7.701-1.043 18.244.627 18.244.627s-2.76-2.81-22.309-3.288c-19.548-.48-25.283 2.362-25.283 2.362s1.934.315 18.938.728c-8.379-.215-19.5 4.098-19.5 4.098s11.882-2.61 26.423-2.248c14.543.364 26.242 1.355 26.242 1.355-4.082-2.312-18.789-3.553-22.755-3.651v.017Zm18.706-4.298s-3.701-2.33-22.622-2.792c-18.921-.463-22.325 1.62-22.325 1.62 14.757-1.108 29.761-.63 44.947 1.172Z" fill="url(#l)"/><path style="mix-blend-mode:screen" opacity=".3" d="M351.22 14.282s13.914 7.586 15.599 5.966c1.686-1.603-12.988-14.541-17.12-16.243 5.586 4.726 10.395 7.849 10.214 9.948-.166 2.115-8.71.312-8.71.312l.017.017Z" fill="url(#m)"/><path style="mix-blend-mode:screen" opacity=".3" d="M322.289 13.557s-14.278 6.875-15.88 5.19c-1.604-1.686 13.681-13.88 17.896-15.369-5.817 4.445-10.759 7.321-10.692 9.436.066 2.116 8.676.743 8.676.743Z" fill="url(#n)"/><path d="M349 73.5c-2.667 20.5-1.7 66.8 11.5 88M317.869 74c2.52 20.034 1.607 65.282-10.869 86" stroke="#6C6C6C"/><path d="m359.875 161.627-4.857.495s-2.975-7.137-3.768-7.336c-.794-.198.693 13.17-2.578 13.864-3.272.694 1.586-17.334-3.173-17.731-4.759-.396.793 21.797-3.966 19.218-4.759-2.578 0-17.433-4.362-18.623-4.363-1.19.496 22.49-3.966 20.705-4.462-1.784.694-21.002-4.363-20.309-5.056.695-.991 22.391-3.569 21.4-2.578-.992-.1-21.796-3.867-21.3-3.767.495-2.578 19.713-6.048 18.326-3.47-1.388 1.883-15.947-.099-17.137-1.983-1.189-3.272 17.335-5.155 16.344-1.884-.992-3.075-9.503-3.075-9.503" stroke="#fff" stroke-width="1.706" stroke-miterlimit="10" stroke-linecap="round" opacity=".3"/><path opacity=".3" d="m359.876 161.627-2.082.214m-.709.067-2.066.214s-.347-.826-.826-1.916m-.977-2.148c-.777-1.636-1.603-3.173-1.95-3.272-.793-.198.695 13.17-2.578 13.864-3.272.694 1.587-17.334-3.172-17.731-4.76-.396.793 21.797-3.966 19.218-4.76-2.578 0-17.433-4.363-18.623-4.363-1.19.496 22.49-3.966 20.705-4.461-1.784.694-21.002-4.362-20.309-5.056.695-.992 22.391-3.57 21.4-2.577-.992-.099-21.796-3.866-21.3-3.768.495-2.578 19.713-6.048 18.326-3.471-1.388 1.884-15.947-.1-17.137-1.982-1.189-3.271 17.335-5.155 16.344-1.107-.579-1.983-3.784-2.512-6.313m-.18-1.141a87.553 87.553 0 0 1-.347-2.049" stroke="#fff" stroke-width=".682" stroke-miterlimit="10" stroke-linecap="round"/><g filter="url(#o)"><path d="M397 195c.5 12.333-4.9 40.3-30.5 53.5" stroke="#fff"/></g><path style="mix-blend-mode:screen" opacity=".8" d="M362.899 255.173c12.658-8.048-9.287-36.949-26.44-50.549-17.152-13.6-35.907-7.204-61.488 9.205-25.563 16.409 45.674 68.246 87.911 41.361l.017-.017Z" fill="url(#p)"/><g opacity=".97" filter="url(#q)"><path d="M271 208c2.667 14.667 17.9 44.7 57.5 47.5" stroke="#fff" stroke-width="2"/></g></g><defs><linearGradient id="f" x1="333.769" y1="70.603" x2="333.769" y2="261.942" gradientUnits="userSpaceOnUse"><stop stop-color="#637987"/><stop offset="1" stop-color="#637987" stop-opacity="0"/></linearGradient><linearGradient id="g" x1="333.769" y1="75.418" x2="333.769" y2="257.156" gradientUnits="userSpaceOnUse"><stop stop-color="#637987" stop-opacity="0"/><stop offset="1" stop-color="#637987"/></linearGradient><linearGradient id="h" x1="377.787" y1="39.991" x2="292.777" y2="37.884" gradientUnits="userSpaceOnUse"><stop stop-color="#686868"/><stop offset=".2" stop-color="#4A3265"/><stop offset=".33" stop-color="#4E336D"/><stop offset=".53" stop-color="#351658"/><stop offset=".67" stop-color="#1D0A33"/><stop offset=".85" stop-color="#17062C"/><stop offset="1" stop-color="#3D1768"/></linearGradient><linearGradient id="i" x1="374.835" y1="51.057" x2="365.469" y2="50.825" gradientUnits="userSpaceOnUse"><stop offset=".18" stop-color="#A49F9E" stop-opacity=".3"/><stop offset=".47" stop-color="#8C8381"/><stop offset=".67" stop-color="#958E8C"/><stop offset="1" stop-color="#C7C5C5"/></linearGradient><linearGradient id="j" x1="368.73" y1="24.065" x2="353.102" y2="23.678" gradientUnits="userSpaceOnUse"><stop stop-color="#C7C5C5"/><stop offset=".33" stop-color="#958E8C"/><stop offset=".53" stop-color="#8C8381"/><stop offset=".82" stop-color="#A49F9E"/><stop offset="1" stop-color="#CCCBCA"/></linearGradient><linearGradient id="k" x1="306.866" y1="20.963" x2="305.634" y2="70.671" gradientUnits="userSpaceOnUse"><stop stop-color="#C7C5C5"/><stop offset=".33" stop-color="#958E8C"/><stop offset=".53" stop-color="#8C8381"/><stop offset=".82" stop-color="#A49F9E" stop-opacity=".3"/></linearGradient><linearGradient id="l" x1="373.081" y1="45.214" x2="305.334" y2="43.534" gradientUnits="userSpaceOnUse"><stop stop-color="#C7C5C5" stop-opacity=".2"/><stop offset=".33" stop-color="#958E8C"/><stop offset=".53" stop-color="#8C8381"/><stop offset="1" stop-color="#CCCBCA" stop-opacity=".2"/></linearGradient><linearGradient id="m" x1="367.145" y1="12.498" x2="349.502" y2="12.06" gradientUnits="userSpaceOnUse"><stop stop-color="#C7C5C5"/><stop offset=".33" stop-color="#958E8C"/><stop offset=".53" stop-color="#8C8381"/><stop offset=".82" stop-color="#A49F9E"/><stop offset="1" stop-color="#CCCBCA"/></linearGradient><linearGradient id="n" x1="306.424" y1="10.862" x2="324.067" y2="11.3" gradientUnits="userSpaceOnUse"><stop stop-color="#C7C5C5"/><stop offset=".33" stop-color="#958E8C"/><stop offset=".53" stop-color="#8C8381"/><stop offset=".82" stop-color="#A49F9E"/><stop offset="1" stop-color="#CCCBCA"/></linearGradient><linearGradient id="p" x1="295.336" y1="200.991" x2="339.75" y2="270.172" gradientUnits="userSpaceOnUse"><stop stop-color="#637987" stop-opacity="0"/><stop offset=".58" stop-color="#637987"/><stop offset="1" stop-color="#AFBAC1"/></linearGradient><radialGradient id="b" cx="0" cy="0" r="1" gradientUnits="userSpaceOnUse" gradientTransform="rotate(-180 165.298 79.024) scale(225.082)"><stop stop-color="#637987" stop-opacity="0"/><stop offset="1" stop-color="#637987"/></radialGradient><radialGradient id="c" cx="0" cy="0" r="1" gradientUnits="userSpaceOnUse" gradientTransform="rotate(-180 166.885 83.14) scale(89.3984)"><stop stop-color="#637987" stop-opacity="0"/><stop offset="1" stop-color="#637987"/></radialGradient><radialGradient id="d" cx="0" cy="0" r="1" gradientUnits="userSpaceOnUse" gradientTransform="rotate(180 167.083 98.789) scale(142.079)"><stop stop-color="#637987" stop-opacity="0"/><stop offset="1" stop-color="#333D47"/></radialGradient><radialGradient id="e" cx="0" cy="0" r="1" gradientUnits="userSpaceOnUse" gradientTransform="rotate(-180 166.885 83.14) scale(89.795)"><stop stop-color="#637987" stop-opacity="0"/><stop offset="1" stop-color="#333D47"/></radialGradient><filter id="o" x="362.671" y="191.38" width="38.46" height="61.165" filterUnits="userSpaceOnUse" color-interpolation-filters="sRGB"><feFlood flood-opacity="0" result="BackgroundImageFix"/><feBlend in="SourceGraphic" in2="BackgroundImageFix" result="shape"/><feGaussianBlur stdDeviation="1.8" result="effect1_foregroundBlur_3550_2431"/></filter><filter id="q" x="265.816" y="203.621" width="66.954" height="57.077" filterUnits="userSpaceOnUse" color-interpolation-filters="sRGB"><feFlood flood-opacity="0" result="BackgroundImageFix"/><feBlend in="SourceGraphic" in2="BackgroundImageFix" result="shape"/><feGaussianBlur stdDeviation="2.1" result="effect1_foregroundBlur_3550_2431"/></filter><clipPath id="a"><path fill="#fff" transform="translate(0 .948)" d="M0 0h652v650.105H0z"/></clipPath></defs></svg>