<svg width="18" height="22" viewBox="0 0 18 22" fill="none" xmlns="http://www.w3.org/2000/svg">
<path d="M17.4135 8.0445C17.3562 7.88101 17.2363 7.74698 17.0802 7.67189C16.9241 7.5968 16.7445 7.58681 16.581 7.6441C16.4175 7.7014 16.2835 7.8213 16.2084 7.97742C16.1333 8.13354 16.1233 8.31309 16.1806 8.47658C17.1429 11.2235 16.436 14.3268 14.3801 16.3829C12.5924 18.1704 10.0391 18.9519 7.55002 18.4734C6.55132 18.2794 5.60219 17.8854 4.75976 17.3151L7.18416 17.0335C7.35611 17.0134 7.51307 16.9259 7.62056 16.7902C7.72806 16.6545 7.7773 16.4817 7.75748 16.3097C7.7159 15.9511 7.39118 15.6976 7.03346 15.7359L3.07962 16.1948C2.90754 16.2149 2.75045 16.3024 2.6429 16.4382C2.53535 16.574 2.48613 16.747 2.50608 16.9191L2.965 20.8729C2.98945 21.0412 3.07852 21.1933 3.21331 21.2969C3.3481 21.4006 3.51798 21.4476 3.68688 21.428C3.85578 21.4084 4.01039 21.3238 4.11788 21.192C4.22536 21.0603 4.27727 20.8918 4.26256 20.7224L3.98954 18.3698C5.46388 19.3808 7.21034 19.9207 8.99806 19.9179C10.1691 19.9183 11.3288 19.6879 12.4108 19.2398C13.4928 18.7917 14.4758 18.1348 15.3037 17.3065C17.7127 14.8977 18.5406 11.2624 17.4135 8.0445ZM3.61598 5.61834C5.4037 3.83084 7.95658 3.04896 10.4461 3.5279C11.4537 3.72238 12.3975 4.1197 13.2379 4.6862L10.812 4.9678C10.6436 4.99218 10.4914 5.08125 10.3877 5.21608C10.284 5.35091 10.2369 5.52087 10.2565 5.68984C10.2762 5.85881 10.3609 6.01347 10.4928 6.12094C10.6246 6.22841 10.7932 6.28022 10.9627 6.26536L14.9165 5.80644C15.0886 5.78642 15.2457 5.69888 15.3532 5.56307C15.4608 5.42726 15.51 5.25429 15.49 5.0822L15.0311 1.12836C14.9893 0.769763 14.6637 0.516323 14.3071 0.554603C14.135 0.574625 13.9779 0.662166 13.8704 0.797978C13.7628 0.933789 13.7136 1.10675 13.7336 1.27884L14.0064 3.63042C13.0085 2.94661 11.8808 2.47508 10.6932 2.24508C7.77838 1.68518 4.78704 2.60016 2.69242 4.69478C0.283416 7.10356 -0.544444 10.7388 0.582616 13.9568C0.63996 14.1202 0.759827 14.2541 0.915882 14.3292C1.07194 14.4043 1.25141 14.4144 1.41488 14.3572C1.49583 14.3288 1.5704 14.2848 1.63434 14.2276C1.69827 14.1704 1.75032 14.1012 1.7875 14.0239C1.82468 13.9466 1.84627 13.8627 1.85103 13.7771C1.8558 13.6914 1.84365 13.6057 1.81528 13.5247C0.853216 10.7778 1.56008 7.67468 3.61598 5.61834Z" fill="#C6F806"/>
</svg>
