<svg width="22" height="22" viewBox="0 0 22 22" fill="none" xmlns="http://www.w3.org/2000/svg">
<path d="M16.4508 16.4537L16.4508 16.4537C14.6396 18.2647 12.0527 19.0563 9.53114 18.5716L9.53095 18.5716C8.51901 18.375 7.5573 17.9758 6.70369 17.3979L6.48059 17.2468L6.74822 17.2158L9.17256 16.9342L9.17262 16.9342M16.4508 16.4537L9.75748 16.3097C9.7773 16.4817 9.72806 16.6545 9.62056 16.7902C9.51307 16.9259 9.35611 17.0134 9.18416 17.0335L9.17262 16.9342M16.4508 16.4537C18.534 14.3703 19.25 11.2267 18.275 8.44352L18.1806 8.47658L18.275 8.44351C18.2265 8.30505 18.2349 8.15298 18.2985 8.02076C18.3621 7.88854 18.4756 7.787 18.6141 7.73848C18.7526 7.68995 18.9046 7.69841 19.0368 7.76201C19.1691 7.8256 19.2706 7.93911 19.3191 8.07756C20.4335 11.2593 19.6148 14.8542 17.233 17.2358L17.233 17.2358C16.4144 18.0548 15.4424 18.7044 14.3725 19.1474C13.3027 19.5905 12.156 19.8183 10.9981 19.8179H10.9979C9.23043 19.8206 7.50374 19.2869 6.04609 18.2873L5.86487 18.163L5.8902 18.3813L6.16305 20.7325C6.17511 20.8755 6.13114 21.0176 6.04039 21.1288C5.94935 21.2404 5.81841 21.3121 5.67536 21.3287C5.53231 21.3453 5.38843 21.3054 5.27427 21.2177C5.16047 21.1302 5.08515 21.0019 5.06416 20.8599L4.60541 16.9076C4.58852 16.7618 4.6302 16.6153 4.72129 16.5003C4.81239 16.3853 4.94543 16.3111 5.09117 16.2942L9.0441 15.8354L9.03346 15.7359L9.04499 15.8353L9.04452 15.8353C9.3487 15.803 9.623 16.0184 9.65813 16.3211M16.4508 16.4537L9.65813 16.3211M9.17262 16.9342C9.31823 16.9171 9.45114 16.843 9.54217 16.7281C9.63322 16.6132 9.67492 16.4668 9.65813 16.3211M9.17262 16.9342L9.65813 16.3211M5.54526 5.54764L5.54527 5.54763C7.35651 3.73661 9.94298 2.94451 12.465 3.4297L12.465 3.42972C13.4862 3.62682 14.4425 4.02947 15.2938 4.60328L15.5179 4.75437L15.2494 4.78554L12.825 5.06697C12.6829 5.08789 12.5545 5.16321 12.4669 5.27705C12.3791 5.39124 12.3393 5.53519 12.3559 5.6783C12.3725 5.82142 12.4443 5.9524 12.556 6.04343C12.6673 6.13416 12.8095 6.17806 12.9526 6.16586L16.9049 5.70711C16.9049 5.70711 16.905 5.70711 16.905 5.70711C17.0507 5.69015 17.1837 5.61601 17.2748 5.50099C17.3659 5.38596 17.4076 5.23948 17.3907 5.09373L17.3907 5.09372M5.54526 5.54764L17.49 5.0822L17.3907 5.09372M5.54526 5.54764C3.46217 7.63118 2.74615 10.7746 3.7209 13.5578L3.72091 13.5578C3.74494 13.6263 3.75523 13.699 3.75119 13.7715C3.74715 13.844 3.72887 13.9151 3.69738 13.9805C3.66589 14.046 3.62181 14.1046 3.56767 14.1531C3.51352 14.2015 3.45037 14.2388 3.38181 14.2628C3.24337 14.3112 3.09139 14.3027 2.95924 14.2391C2.82706 14.1755 2.72554 14.0621 2.67697 13.9237C1.56263 10.742 2.38135 7.14706 4.76312 4.7655L4.76313 4.76549C6.83418 2.69444 9.79187 1.78965 12.6741 2.34326C13.8483 2.57065 14.9633 3.03684 15.9498 3.71291L16.131 3.83706L16.1057 3.6189L15.8329 1.26733C15.816 1.12158 15.8577 0.975086 15.9488 0.86006C16.0398 0.745148 16.1726 0.671039 16.3182 0.653984C16.6213 0.621693 16.8965 0.837174 16.9318 1.13989L5.54526 5.54764ZM17.3907 5.09372L16.9318 1.13994L17.3907 5.09372Z" fill="#C6F806" stroke="#2F1F42" stroke-width="0.2"/>
</svg>
