<svg width="112" height="112" viewBox="0 0 112 112" fill="none" xmlns="http://www.w3.org/2000/svg">
<path fill-rule="evenodd" clip-rule="evenodd" d="M1.45838 25.2566C0.65294 20.9123 3.5217 16.7377 7.86595 15.9322L85.9342 1.45807C90.2785 0.652628 94.4531 3.52139 95.2586 7.86564L109.733 85.9339C110.538 90.2782 107.669 94.4528 103.325 95.2583L25.2569 109.732C20.9126 110.538 16.738 107.669 15.9326 103.325L1.45838 25.2566ZM28.2741 72.6354C27.8713 70.4633 29.3057 68.376 31.4778 67.9733L81.1484 58.7642C83.3205 58.3614 85.4079 59.7958 85.8106 61.9679C86.2133 64.1401 84.7789 66.2274 82.6068 66.6301L32.9362 75.8392C30.7641 76.2419 28.6768 74.8076 28.2741 72.6354ZM27.0677 44.192C24.8956 44.5947 23.4612 46.6821 23.8639 48.8542C24.2666 51.0263 26.3539 52.4607 28.5261 52.058L78.1966 42.8488C80.3688 42.4461 81.8031 40.3588 81.4004 38.1867C80.9977 36.0146 78.9104 34.5802 76.7383 34.9829L27.0677 44.192Z" fill="url(#paint0_linear_2746_1367)"/>
<defs>
<linearGradient id="paint0_linear_2746_1367" x1="46.9001" y1="8.69516" x2="64.291" y2="102.495" gradientUnits="userSpaceOnUse">
<stop stop-color="#471C77"/>
<stop offset="1" stop-color="#310C5A"/>
</linearGradient>
</defs>
</svg>
