<svg width="127" height="127" viewBox="0 0 127 127" fill="none" xmlns="http://www.w3.org/2000/svg">
<path fill-rule="evenodd" clip-rule="evenodd" d="M7.25256 36.8892C3.24708 38.7539 1.51169 43.5127 3.37645 47.5182L36.8872 119.499C38.7519 123.504 43.5107 125.24 47.5162 123.375L119.497 89.8641C123.502 87.9993 125.238 83.2406 123.373 79.2351L89.8621 7.25459C87.9973 3.24911 83.2385 1.51372 79.2331 3.37848L7.25256 36.8892ZM38.3626 71.1706C36.3598 72.103 35.4921 74.4824 36.4245 76.4851C37.3569 78.4878 39.7363 79.3555 41.739 78.4232L87.5362 57.1021C89.539 56.1698 90.4067 53.7904 89.4743 51.7876C88.5419 49.7849 86.1625 48.9172 84.1598 49.8496L38.3626 71.1706Z" fill="white"/>
<path fill-rule="evenodd" clip-rule="evenodd" d="M7.25256 36.8892C3.24708 38.7539 1.51169 43.5127 3.37645 47.5182L36.8872 119.499C38.7519 123.504 43.5107 125.24 47.5162 123.375L119.497 89.8641C123.502 87.9993 125.238 83.2406 123.373 79.2351L89.8621 7.25459C87.9973 3.24911 83.2385 1.51372 79.2331 3.37848L7.25256 36.8892ZM38.3626 71.1706C36.3598 72.103 35.4921 74.4824 36.4245 76.4851C37.3569 78.4878 39.7363 79.3555 41.739 78.4232L87.5362 57.1021C89.539 56.1698 90.4067 53.7904 89.4743 51.7876C88.5419 49.7849 86.1625 48.9172 84.1598 49.8496L38.3626 71.1706Z" fill="url(#paint0_linear_2746_1374)"/>
<defs>
<linearGradient id="paint0_linear_2746_1374" x1="43.2428" y1="20.1338" x2="83.5064" y2="106.619" gradientUnits="userSpaceOnUse">
<stop stop-color="#471C77"/>
<stop offset="1" stop-color="#310C5A"/>
</linearGradient>
</defs>
</svg>
