<svg width="176" height="176" viewBox="0 0 176 176" fill="none" xmlns="http://www.w3.org/2000/svg">
<path fill-rule="evenodd" clip-rule="evenodd" d="M49.6067 38.8423C50.5472 34.5253 54.8093 31.7882 59.1263 32.7287L136.705 49.6309C141.022 50.5715 143.759 54.8335 142.819 59.1505L125.917 136.729C124.976 141.046 120.714 143.784 116.397 142.843L38.8181 125.941C34.5011 125 31.7639 120.738 32.7045 116.421L49.6067 38.8423ZM112.305 73.5062C113.41 75.4194 112.754 77.8657 110.841 78.9703L92.4325 89.5984L103.06 108.005C104.164 109.918 103.509 112.365 101.596 113.469C99.6824 114.574 97.236 113.918 96.1314 112.005L85.5043 93.5984L67.0919 104.229C65.1787 105.333 62.7323 104.678 61.6278 102.765C60.5232 100.852 61.1787 98.4052 63.0919 97.3006L81.5043 86.6702L70.8729 68.2562C69.7683 66.343 70.4239 63.8966 72.337 62.7921C74.2502 61.6875 76.6966 62.343 77.8011 64.2562L88.4325 82.6702L106.841 72.0421C108.754 70.9375 111.2 71.593 112.305 73.5062Z" fill="url(#paint0_linear_2746_1361)"/>
<defs>
<linearGradient id="paint0_linear_2746_1361" x1="143.257" y1="55.7455" x2="32.2661" y2="119.826" gradientUnits="userSpaceOnUse">
<stop stop-color="#471C77"/>
<stop offset="1" stop-color="#310C5A"/>
</linearGradient>
</defs>
</svg>
