<svg width="21" height="22" viewBox="0 0 21 22" fill="none" xmlns="http://www.w3.org/2000/svg">
<path d="M9.55271 3.45312H2.9006C2.39653 3.45313 1.91311 3.65337 1.55667 4.0098C1.20024 4.36623 1 4.84966 1 5.35373V18.6579C1 19.162 1.20024 19.6454 1.55667 20.0019C1.91311 20.3583 2.39653 20.5586 2.9006 20.5586H16.2048C16.7089 20.5586 17.1923 20.3583 17.5488 20.0019C17.9052 19.6454 18.1054 19.162 18.1054 18.6579V12.0058" stroke="#C6F806" stroke-linecap="round" stroke-linejoin="round"/>
<path d="M16.6813 2.02794C17.0593 1.64989 17.5721 1.4375 18.1067 1.4375C18.6414 1.4375 19.1541 1.64989 19.5322 2.02794C19.9102 2.406 20.1226 2.91875 20.1226 3.45339C20.1226 3.98804 19.9102 4.50079 19.5322 4.87885L10.5043 13.9067L6.70312 14.857L7.65343 11.0558L16.6813 2.02794Z" stroke="#C6F806" stroke-linecap="round" stroke-linejoin="round"/>
</svg>
