<svg width="114" height="114" viewBox="0 0 114 114" fill="none" xmlns="http://www.w3.org/2000/svg">
<path fill-rule="evenodd" clip-rule="evenodd" d="M18.6056 7.81664C19.5461 3.49963 23.8082 0.762466 28.1252 1.70302L105.704 18.6052C110.021 19.5457 112.758 23.8078 111.818 28.1248L94.9155 105.704C93.975 110.021 89.7129 112.758 85.3959 111.817L7.81703 94.9151C3.50002 93.9746 0.762853 89.7125 1.7034 85.3955L18.6056 7.81664ZM62.1992 28.5175C64.3577 28.9877 65.7262 31.1188 65.256 33.2773L60.7306 54.048L81.4958 58.5722C83.6543 59.0424 85.0229 61.1735 84.5526 63.332C84.0824 65.4905 81.9513 66.8591 79.7928 66.3888L59.0276 61.8647L54.5021 82.6364C54.0318 84.7949 51.9007 86.1635 49.7422 85.6933C47.5837 85.223 46.2151 83.0919 46.6854 80.9334L51.211 60.1617L30.4336 55.6349C28.2751 55.1646 26.9066 53.0336 27.3768 50.8751C27.8471 48.7166 29.9782 47.348 32.1367 47.8182L52.914 52.345L57.4393 31.5743C57.9096 29.4158 60.0407 28.0472 62.1992 28.5175Z" fill="white"/>
<path fill-rule="evenodd" clip-rule="evenodd" d="M18.6056 7.81664C19.5461 3.49963 23.8082 0.762466 28.1252 1.70302L105.704 18.6052C110.021 19.5457 112.758 23.8078 111.818 28.1248L94.9155 105.704C93.975 110.021 89.7129 112.758 85.3959 111.817L7.81703 94.9151C3.50002 93.9746 0.762853 89.7125 1.7034 85.3955L18.6056 7.81664ZM62.1992 28.5175C64.3577 28.9877 65.7262 31.1188 65.256 33.2773L60.7306 54.048L81.4958 58.5722C83.6543 59.0424 85.0229 61.1735 84.5526 63.332C84.0824 65.4905 81.9513 66.8591 79.7928 66.3888L59.0276 61.8647L54.5021 82.6364C54.0318 84.7949 51.9007 86.1635 49.7422 85.6933C47.5837 85.223 46.2151 83.0919 46.6854 80.9334L51.211 60.1617L30.4336 55.6349C28.2751 55.1646 26.9066 53.0336 27.3768 50.8751C27.8471 48.7166 29.9782 47.348 32.1367 47.8182L52.914 52.345L57.4393 31.5743C57.9096 29.4158 60.0407 28.0472 62.1992 28.5175Z" fill="url(#paint0_linear_2746_1353)"/>
<defs>
<linearGradient id="paint0_linear_2746_1353" x1="66.9147" y1="10.1541" x2="46.6064" y2="103.366" gradientUnits="userSpaceOnUse">
<stop stop-color="#471C77"/>
<stop offset="1" stop-color="#310C5A"/>
</linearGradient>
</defs>
</svg>
