<svg width="21" height="22" viewBox="0 0 21 22" fill="none" xmlns="http://www.w3.org/2000/svg">
<path d="M10.6246 13.6202C12.0741 13.6202 13.2491 12.4452 13.2491 10.9957C13.2491 9.54615 12.0741 8.37109 10.6246 8.37109C9.17506 8.37109 8 9.54615 8 10.9957C8 12.4452 9.17506 13.6202 10.6246 13.6202Z" stroke="#C6F806" stroke-linecap="round" stroke-linejoin="round"/>
<path d="M17.0974 13.623C16.9809 13.8869 16.9462 14.1796 16.9976 14.4634C17.0491 14.7472 17.1844 15.009 17.3861 15.2152L17.4385 15.2677C17.6012 15.4302 17.7303 15.6232 17.8183 15.8356C17.9064 16.048 17.9517 16.2757 17.9517 16.5056C17.9517 16.7356 17.9064 16.9633 17.8183 17.1757C17.7303 17.3881 17.6012 17.5811 17.4385 17.7436C17.276 17.9062 17.0831 18.0353 16.8707 18.1234C16.6582 18.2114 16.4306 18.2567 16.2006 18.2567C15.9707 18.2567 15.743 18.2114 15.5306 18.1234C15.3182 18.0353 15.1252 17.9062 14.9627 17.7436L14.9102 17.6911C14.704 17.4894 14.4422 17.3541 14.1584 17.3026C13.8746 17.2512 13.5818 17.2859 13.318 17.4024C13.0592 17.5133 12.8385 17.6974 12.6831 17.9321C12.5277 18.1668 12.4442 18.4419 12.4431 18.7234V18.8721C12.4431 19.3362 12.2588 19.7812 11.9306 20.1094C11.6025 20.4375 11.1575 20.6218 10.6934 20.6218C10.2294 20.6218 9.78431 20.4375 9.45617 20.1094C9.12804 19.7812 8.94369 19.3362 8.94369 18.8721V18.7934C8.93692 18.5038 8.84319 18.223 8.67468 17.9874C8.50618 17.7518 8.2707 17.5723 7.99885 17.4724C7.73498 17.3559 7.44227 17.3212 7.15847 17.3726C6.87467 17.4241 6.6128 17.5594 6.40661 17.7611L6.35412 17.8135C6.19162 17.9762 5.99865 18.1053 5.78623 18.1933C5.57382 18.2814 5.34614 18.3267 5.1162 18.3267C4.88626 18.3267 4.65857 18.2814 4.44616 18.1933C4.23375 18.1053 4.04078 17.9762 3.87828 17.8135C3.71559 17.651 3.58654 17.4581 3.49848 17.2457C3.41043 17.0332 3.36511 16.8056 3.36511 16.5756C3.36511 16.3457 3.41043 16.118 3.49848 15.9056C3.58654 15.6932 3.71559 15.5002 3.87828 15.3377L3.93077 15.2852C4.13245 15.079 4.26775 14.8172 4.31921 14.5334C4.37067 14.2496 4.33593 13.9568 4.21947 13.693C4.10857 13.4342 3.92443 13.2135 3.68971 13.0581C3.455 12.9027 3.17995 12.8192 2.89844 12.8181H2.74971C2.28566 12.8181 1.84061 12.6338 1.51248 12.3056C1.18434 11.9775 1 11.5325 1 11.0684C1 10.6044 1.18434 10.1593 1.51248 9.83117C1.84061 9.50304 2.28566 9.31869 2.74971 9.31869H2.82845C3.11802 9.31192 3.39886 9.21819 3.63445 9.04968C3.87005 8.88118 4.0495 8.6457 4.14948 8.37385C4.26594 8.10998 4.30068 7.81727 4.24922 7.53347C4.19776 7.24967 4.06247 6.9878 3.86078 6.78161L3.80829 6.72912C3.64561 6.56662 3.51655 6.37365 3.4285 6.16123C3.34044 5.94882 3.29512 5.72114 3.29512 5.4912C3.29512 5.26126 3.34044 5.03357 3.4285 4.82116C3.51655 4.60875 3.64561 4.41578 3.80829 4.25328C3.97079 4.09059 4.16376 3.96154 4.37617 3.87348C4.58859 3.78543 4.81627 3.74011 5.04621 3.74011C5.27615 3.74011 5.50383 3.78543 5.71625 3.87348C5.92866 3.96154 6.12163 4.09059 6.28413 4.25328L6.33662 4.30577C6.54281 4.50745 6.80468 4.64275 7.08848 4.69421C7.37228 4.74567 7.66499 4.71093 7.92886 4.59447H7.99885C8.2576 4.48357 8.47829 4.29943 8.63373 4.06471C8.78917 3.83 8.87258 3.55495 8.87371 3.27344V3.12471C8.87371 2.66066 9.05805 2.21561 9.38618 1.88748C9.71432 1.55934 10.1594 1.375 10.6234 1.375C11.0875 1.375 11.5325 1.55934 11.8607 1.88748C12.1888 2.21561 12.3731 2.66066 12.3731 3.12471V3.20345C12.3743 3.48497 12.4577 3.76001 12.6131 3.99473C12.7686 4.22944 12.9892 4.41358 13.248 4.52448C13.5119 4.64094 13.8046 4.67568 14.0884 4.62422C14.3722 4.57276 14.634 4.43747 14.8402 4.23578L14.8927 4.18329C15.0552 4.02061 15.2482 3.89155 15.4606 3.8035C15.673 3.71544 15.9007 3.67012 16.1306 3.67012C16.3606 3.67012 16.5883 3.71544 16.8007 3.8035C17.0131 3.89155 17.2061 4.02061 17.3686 4.18329C17.5312 4.34579 17.6603 4.53876 17.7484 4.75117C17.8364 4.96359 17.8817 5.19127 17.8817 5.42121C17.8817 5.65115 17.8364 5.87883 17.7484 6.09125C17.6603 6.30366 17.5312 6.49663 17.3686 6.65913L17.3161 6.71162C17.1144 6.91781 16.9791 7.17968 16.9276 7.46348C16.8762 7.74728 16.9109 8.03999 17.0274 8.30386V8.37385C17.1383 8.6326 17.3224 8.85329 17.5571 9.00873C17.7918 9.16417 18.0669 9.24758 18.3484 9.24871H18.4971C18.9612 9.24871 19.4062 9.43305 19.7344 9.76118C20.0625 10.0893 20.2468 10.5344 20.2468 10.9984C20.2468 11.4625 20.0625 11.9075 19.7344 12.2357C19.4062 12.5638 18.9612 12.7481 18.4971 12.7481H18.4184C18.1369 12.7493 17.8618 12.8327 17.6271 12.9881C17.3924 13.1436 17.2083 13.3642 17.0974 13.623Z" stroke="#C6F806" stroke-linecap="round" stroke-linejoin="round"/>
</svg>
