<svg width="646" height="322" viewBox="0 0 646 322" fill="none" xmlns="http://www.w3.org/2000/svg">
<g clip-path="url(#clip0_3545_230)">
<rect width="646" height="322" rx="22" fill="#2D1D3F"/>
<rect x="38.5" y="30.5" width="404" height="265" rx="11.5" stroke="white"/>
<rect x="52.5" y="46.5" width="179" height="110" rx="5.5" stroke="white"/>
<rect x="52.5" y="171.5" width="179" height="110" rx="5.5" stroke="white"/>
<rect x="247.5" y="46.5" width="180" height="110" rx="5.5" stroke="white"/>
<rect x="247.5" y="171.5" width="180" height="110" rx="5.5" stroke="white"/>
<path d="M142.5 96.5002C144.64 96.5002 146.466 95.7431 147.98 94.2295C149.493 92.716 150.25 90.8895 150.25 88.7499C150.25 86.6107 149.493 84.7842 147.98 83.2702C146.466 81.7567 144.639 81 142.5 81C140.361 81 138.534 81.7567 137.02 83.2702C135.507 84.7842 134.75 86.6106 134.75 88.7499C134.75 90.8895 135.507 92.716 137.02 94.2295C138.534 95.7431 140.361 96.5002 142.5 96.5002Z" fill="white"/>
<path d="M156.638 104.684C156.59 104.004 156.496 103.271 156.355 102.484C156.214 101.697 156.035 100.967 155.82 100.294C155.605 99.6213 155.315 98.9653 154.952 98.3261C154.589 97.687 154.172 97.1422 153.701 96.6912C153.229 96.2404 152.654 95.8808 151.975 95.6117C151.295 95.3427 150.545 95.208 149.724 95.208C149.603 95.208 149.321 95.3526 148.877 95.642C148.433 95.9313 147.932 96.2543 147.373 96.611C146.815 96.9671 146.088 97.2903 145.194 97.5791C144.299 97.8685 143.401 98.0132 142.499 98.0132C141.598 98.0132 140.7 97.8685 139.805 97.5791C138.91 97.2903 138.184 96.9671 137.625 96.611C137.067 96.2543 136.566 95.9314 136.122 95.642C135.678 95.3526 135.395 95.208 135.274 95.208C134.454 95.208 133.703 95.3427 133.024 95.6117C132.344 95.8808 131.769 96.2407 131.298 96.6912C130.827 97.1422 130.41 97.687 130.047 98.3261C129.684 98.9653 129.395 99.6216 129.179 100.294C128.964 100.967 128.786 101.697 128.645 102.484C128.503 103.271 128.409 104.004 128.362 104.684C128.315 105.363 128.291 106.06 128.291 106.773C128.291 108.387 128.782 109.662 129.765 110.598C130.747 111.532 132.052 112 133.68 112H151.32C152.948 112 154.253 111.532 155.235 110.598C156.218 109.662 156.709 108.387 156.709 106.773C156.709 106.06 156.685 105.363 156.638 104.684Z" fill="white"/>
<path d="M142.5 226.5C144.64 226.5 146.466 225.743 147.98 224.23C149.493 222.716 150.25 220.89 150.25 218.75C150.25 216.611 149.493 214.784 147.98 213.27C146.466 211.757 144.639 211 142.5 211C140.361 211 138.534 211.757 137.02 213.27C135.507 214.784 134.75 216.611 134.75 218.75C134.75 220.89 135.507 222.716 137.02 224.23C138.534 225.743 140.361 226.5 142.5 226.5Z" fill="white"/>
<path d="M156.638 234.684C156.59 234.004 156.496 233.271 156.355 232.484C156.214 231.697 156.035 230.967 155.82 230.294C155.605 229.621 155.315 228.965 154.952 228.326C154.589 227.687 154.172 227.142 153.701 226.691C153.229 226.24 152.654 225.881 151.975 225.612C151.295 225.343 150.545 225.208 149.724 225.208C149.603 225.208 149.321 225.353 148.877 225.642C148.433 225.931 147.932 226.254 147.373 226.611C146.815 226.967 146.088 227.29 145.194 227.579C144.299 227.868 143.401 228.013 142.499 228.013C141.598 228.013 140.7 227.868 139.805 227.579C138.91 227.29 138.184 226.967 137.625 226.611C137.067 226.254 136.566 225.931 136.122 225.642C135.678 225.353 135.395 225.208 135.274 225.208C134.454 225.208 133.703 225.343 133.024 225.612C132.344 225.881 131.769 226.241 131.298 226.691C130.827 227.142 130.41 227.687 130.047 228.326C129.684 228.965 129.395 229.622 129.179 230.294C128.964 230.967 128.786 231.697 128.645 232.484C128.503 233.271 128.409 234.004 128.362 234.684C128.315 235.363 128.291 236.06 128.291 236.773C128.291 238.387 128.782 239.662 129.765 240.598C130.747 241.532 132.052 242 133.68 242H151.32C152.948 242 154.253 241.532 155.235 240.598C156.218 239.662 156.709 238.387 156.709 236.773C156.709 236.06 156.685 235.363 156.638 234.684Z" fill="white"/>
<path d="M337.5 96.5002C339.64 96.5002 341.466 95.7431 342.98 94.2295C344.493 92.716 345.25 90.8895 345.25 88.7499C345.25 86.6107 344.493 84.7842 342.98 83.2702C341.466 81.7567 339.639 81 337.5 81C335.361 81 333.534 81.7567 332.02 83.2702C330.507 84.7842 329.75 86.6106 329.75 88.7499C329.75 90.8895 330.507 92.716 332.02 94.2295C333.534 95.7431 335.361 96.5002 337.5 96.5002Z" fill="white"/>
<path d="M351.638 104.684C351.59 104.004 351.496 103.271 351.355 102.484C351.214 101.697 351.035 100.967 350.82 100.294C350.605 99.6213 350.315 98.9653 349.952 98.3261C349.589 97.687 349.172 97.1422 348.701 96.6912C348.229 96.2404 347.654 95.8808 346.975 95.6117C346.295 95.3427 345.545 95.208 344.724 95.208C344.603 95.208 344.321 95.3526 343.877 95.642C343.433 95.9313 342.932 96.2543 342.373 96.611C341.815 96.9671 341.088 97.2903 340.194 97.5791C339.299 97.8685 338.401 98.0132 337.499 98.0132C336.598 98.0132 335.7 97.8685 334.805 97.5791C333.91 97.2903 333.184 96.9671 332.625 96.611C332.067 96.2543 331.566 95.9314 331.122 95.642C330.678 95.3526 330.395 95.208 330.274 95.208C329.454 95.208 328.703 95.3427 328.024 95.6117C327.344 95.8808 326.769 96.2407 326.298 96.6912C325.827 97.1422 325.41 97.687 325.047 98.3261C324.684 98.9653 324.395 99.6216 324.179 100.294C323.964 100.967 323.786 101.697 323.645 102.484C323.503 103.271 323.409 104.004 323.362 104.684C323.315 105.363 323.291 106.06 323.291 106.773C323.291 108.387 323.782 109.662 324.765 110.598C325.747 111.532 327.052 112 328.68 112H346.32C347.948 112 349.253 111.532 350.235 110.598C351.218 109.662 351.709 108.387 351.709 106.773C351.709 106.06 351.685 105.363 351.638 104.684Z" fill="white"/>
<path d="M337.5 226.5C339.64 226.5 341.466 225.743 342.98 224.23C344.493 222.716 345.25 220.89 345.25 218.75C345.25 216.611 344.493 214.784 342.98 213.27C341.466 211.757 339.639 211 337.5 211C335.361 211 333.534 211.757 332.02 213.27C330.507 214.784 329.75 216.611 329.75 218.75C329.75 220.89 330.507 222.716 332.02 224.23C333.534 225.743 335.361 226.5 337.5 226.5Z" fill="white"/>
<path d="M351.638 234.684C351.59 234.004 351.496 233.271 351.355 232.484C351.214 231.697 351.035 230.967 350.82 230.294C350.605 229.621 350.315 228.965 349.952 228.326C349.589 227.687 349.172 227.142 348.701 226.691C348.229 226.24 347.654 225.881 346.975 225.612C346.295 225.343 345.545 225.208 344.724 225.208C344.603 225.208 344.321 225.353 343.877 225.642C343.433 225.931 342.932 226.254 342.373 226.611C341.815 226.967 341.088 227.29 340.194 227.579C339.299 227.868 338.401 228.013 337.499 228.013C336.598 228.013 335.7 227.868 334.805 227.579C333.91 227.29 333.184 226.967 332.625 226.611C332.067 226.254 331.566 225.931 331.122 225.642C330.678 225.353 330.395 225.208 330.274 225.208C329.454 225.208 328.703 225.343 328.024 225.612C327.344 225.881 326.769 226.241 326.298 226.691C325.827 227.142 325.41 227.687 325.047 228.326C324.684 228.965 324.395 229.622 324.179 230.294C323.964 230.967 323.786 231.697 323.645 232.484C323.503 233.271 323.409 234.004 323.362 234.684C323.315 235.363 323.291 236.06 323.291 236.773C323.291 238.387 323.782 239.662 324.765 240.598C325.747 241.532 327.052 242 328.68 242H346.32C347.948 242 349.253 241.532 350.235 240.598C351.218 239.662 351.709 238.387 351.709 236.773C351.709 236.06 351.685 235.363 351.638 234.684Z" fill="white"/>
<rect x="376.282" y="105" width="254" height="287" rx="12" transform="rotate(15 376.282 105)" fill="#463856"/>
<rect x="429.697" y="145.194" width="161" height="12" rx="6" transform="rotate(15 429.697 145.194)" fill="white" fill-opacity="0.27"/>
<rect x="416.24" y="195.422" width="161" height="12" rx="6" transform="rotate(15 416.24 195.422)" fill="white" fill-opacity="0.27"/>
<rect x="402.781" y="245.649" width="161" height="12" rx="6" transform="rotate(15 402.781 245.649)" fill="white" fill-opacity="0.27"/>
<rect x="389.323" y="295.878" width="161" height="12" rx="6" transform="rotate(15 389.323 295.878)" fill="white" fill-opacity="0.27"/>
<rect x="424.781" y="163.546" width="130" height="12" rx="6" transform="rotate(15 424.781 163.546)" fill="white" fill-opacity="0.27"/>
<rect x="411.322" y="213.774" width="100" height="12" rx="6" transform="rotate(15 411.322 213.774)" fill="white" fill-opacity="0.27"/>
<rect x="397.864" y="264.002" width="139" height="12" rx="6" transform="rotate(15 397.864 264.002)" fill="white" fill-opacity="0.27"/>
<rect x="384.405" y="314.23" width="75" height="12" rx="6" transform="rotate(15 384.405 314.23)" fill="white" fill-opacity="0.27"/>
<path d="M410.692 148.311L400.739 153.855L398.081 149.411" stroke="#C6F806" stroke-linecap="round" stroke-linejoin="round"/>
<rect x="396.244" y="136.747" width="22" height="22" rx="3.5" transform="rotate(15 396.244 136.747)" stroke="#C6F806"/>
<path d="M397.233 198.54L387.28 204.084L384.622 199.64" stroke="#C6F806" stroke-linecap="round" stroke-linejoin="round"/>
<rect x="382.786" y="186.976" width="22" height="22" rx="3.5" transform="rotate(15 382.786 186.976)" stroke="#C6F806"/>
<path d="M383.775 248.768L373.822 254.311L371.164 249.867" stroke="#C6F806" stroke-linecap="round" stroke-linejoin="round"/>
<rect x="369.327" y="237.203" width="22" height="22" rx="3.5" transform="rotate(15 369.327 237.203)" stroke="#C6F806"/>
<path d="M370.316 298.996L360.363 304.54L357.705 300.096" stroke="#C6F806" stroke-linecap="round" stroke-linejoin="round"/>
<rect x="355.869" y="287.432" width="22" height="22" rx="3.5" transform="rotate(15 355.869 287.432)" stroke="#C6F806"/>
<path d="M150 151C150 148.239 152.239 146 155 146H237C239.761 146 242 148.239 242 151V197C242 199.761 239.761 202 237 202H156.754C155.619 202 154.517 202.386 153.63 203.096L150 206V151Z" fill="#463856"/>
<rect x="158" y="154" width="76" height="7" rx="3.5" fill="white" fill-opacity="0.27"/>
<rect x="158" y="165" width="55" height="7" rx="3.5" fill="white" fill-opacity="0.27"/>
<rect x="158" y="176" width="67" height="7" rx="3.5" fill="white" fill-opacity="0.27"/>
<rect x="158" y="187" width="72" height="7" rx="3.5" fill="white" fill-opacity="0.27"/>
</g>
<defs>
<clipPath id="clip0_3545_230">
<rect width="646" height="322" rx="22" fill="white"/>
</clipPath>
</defs>
</svg>
