<svg width="646" height="322" viewBox="0 0 646 322" fill="none" xmlns="http://www.w3.org/2000/svg">
<g clip-path="url(#clip0_3545_290)">
<rect width="646" height="322" rx="22" fill="#2D1D3F"/>
<path d="M47 324.996C61.5 291.496 76.5 192.996 174.5 192.996C248 192.996 247.458 253.595 315.5 249.496C398.5 244.496 391.172 174.602 428.5 147.996C475.5 114.496 561.5 170.497 590.5 124.497C613.7 87.6971 620.833 90.327 645 93.9937" stroke="url(#paint0_linear_3545_290)"/>
<path d="M174.501 192.996C76.5005 192.996 61.5 291.496 47 324.996H645L645.001 93.9937C620.834 90.327 613.701 87.6971 590.501 124.497C561.501 170.497 475.501 114.496 428.501 147.996C391.173 174.602 398.501 244.496 315.501 249.496C247.459 253.595 248.001 192.996 174.501 192.996Z" fill="url(#paint1_linear_3545_290)"/>
<rect x="34" y="152" width="240.285" height="128.242" rx="12" fill="#463856"/>
<rect x="50.6985" y="168.699" width="101.594" height="92.1443" rx="5.5" stroke="white"/>
<path d="M100.642 215C102.23 215 103.585 214.463 104.708 213.389C105.831 212.315 106.392 211.018 106.392 209.5C106.392 207.982 105.831 206.686 104.708 205.611C103.584 204.537 102.229 204 100.642 204C99.0548 204 97.6994 204.537 96.5765 205.611C95.4534 206.686 94.8918 207.982 94.8918 209.5C94.8918 211.018 95.4534 212.315 96.5765 213.389C97.6998 214.463 99.0548 215 100.642 215Z" fill="white"/>
<path d="M111.131 220.808C111.096 220.326 111.026 219.805 110.922 219.246C110.817 218.688 110.684 218.17 110.525 217.692C110.365 217.215 110.15 216.749 109.881 216.296C109.611 215.842 109.302 215.456 108.952 215.136C108.603 214.816 108.176 214.56 107.672 214.37C107.168 214.179 106.611 214.083 106.002 214.083C105.912 214.083 105.703 214.186 105.373 214.391C105.044 214.596 104.672 214.826 104.258 215.079C103.844 215.331 103.304 215.561 102.641 215.766C101.977 215.971 101.311 216.074 100.641 216.074C99.9727 216.074 99.3064 215.971 98.6426 215.766C97.9788 215.561 97.4396 215.331 97.0253 215.079C96.6111 214.826 96.2393 214.596 95.9099 214.391C95.5804 214.186 95.3709 214.083 95.281 214.083C94.6721 214.083 94.1155 214.179 93.6114 214.37C93.1073 214.56 92.6805 214.816 92.3311 215.136C91.9817 215.456 91.6722 215.842 91.4028 216.296C91.1334 216.749 90.9188 217.215 90.759 217.692C90.5993 218.17 90.467 218.688 90.3622 219.246C90.2573 219.805 90.1874 220.325 90.1524 220.808C90.1175 221.29 90.1001 221.784 90.1001 222.29C90.1001 223.436 90.4646 224.341 91.1932 225.005C91.922 225.668 92.8904 226 94.0983 226H107.186C108.394 226 109.362 225.668 110.091 225.005C110.82 224.341 111.184 223.436 111.184 222.29C111.184 221.784 111.167 221.29 111.131 220.808Z" fill="white"/>
<rect x="167.643" y="168.199" width="91.7944" height="9.44942" rx="4.72471" fill="white" fill-opacity="0.27"/>
<rect x="311" y="143" width="91.7944" height="9.44942" rx="4.72471" fill="white" fill-opacity="0.27"/>
<rect x="167.643" y="184.398" width="70.1957" height="9.44942" rx="4.72471" fill="white" fill-opacity="0.27"/>
<rect x="311" y="159.199" width="70.1957" height="9.44942" rx="4.72471" fill="white" fill-opacity="0.27"/>
<rect x="101" y="112" width="31" height="9" rx="4.5" fill="white" fill-opacity="0.27"/>
<rect x="101" y="124" width="43" height="3" rx="1.5" fill="white" fill-opacity="0.27"/>
<rect x="101" y="129" width="43" height="3" rx="1.5" fill="white" fill-opacity="0.27"/>
<rect x="167.642" y="200.597" width="83.6949" height="9.44942" rx="4.72471" fill="white" fill-opacity="0.27"/>
<rect x="167.642" y="216.796" width="49.947" height="9.44942" rx="4.72471" fill="white" fill-opacity="0.27"/>
<rect x="167.642" y="235.695" width="26.9984" height="25.6484" rx="4" fill="white" fill-opacity="0.27"/>
<rect x="200.04" y="235.695" width="26.9984" height="25.6484" rx="4" fill="white" fill-opacity="0.27"/>
<rect x="232.438" y="235.695" width="26.9984" height="25.6484" rx="4" fill="white" fill-opacity="0.27"/>
<rect x="480" y="47" width="240.285" height="128.242" rx="12" fill="#463856"/>
<rect x="496.698" y="63.6992" width="101.594" height="92.1443" rx="5.5" stroke="white"/>
<path d="M546.642 110C548.23 110 549.585 109.463 550.708 108.389C551.831 107.315 552.392 106.018 552.392 104.5C552.392 102.982 551.831 101.686 550.708 100.611C549.584 99.537 548.229 99 546.642 99C545.055 99 543.699 99.537 542.577 100.611C541.453 101.686 540.892 102.982 540.892 104.5C540.892 106.018 541.453 107.315 542.577 108.389C543.7 109.463 545.055 110 546.642 110Z" fill="white"/>
<path d="M557.131 115.808C557.096 115.326 557.026 114.805 556.922 114.246C556.817 113.688 556.684 113.17 556.525 112.692C556.365 112.215 556.15 111.749 555.881 111.296C555.611 110.842 555.302 110.456 554.952 110.136C554.603 109.816 554.176 109.56 553.672 109.37C553.168 109.179 552.611 109.083 552.002 109.083C551.912 109.083 551.703 109.186 551.373 109.391C551.044 109.596 550.672 109.826 550.258 110.079C549.844 110.331 549.304 110.561 548.641 110.766C547.977 110.971 547.311 111.074 546.641 111.074C545.973 111.074 545.306 110.971 544.643 110.766C543.979 110.561 543.44 110.331 543.025 110.079C542.611 109.826 542.239 109.596 541.91 109.391C541.58 109.186 541.371 109.083 541.281 109.083C540.672 109.083 540.116 109.179 539.611 109.37C539.107 109.56 538.681 109.816 538.331 110.136C537.982 110.456 537.672 110.842 537.403 111.296C537.133 111.749 536.919 112.215 536.759 112.692C536.599 113.17 536.467 113.688 536.362 114.246C536.257 114.805 536.187 115.325 536.152 115.808C536.118 116.29 536.1 116.784 536.1 117.29C536.1 118.436 536.465 119.341 537.193 120.005C537.922 120.668 538.89 121 540.098 121H553.186C554.394 121 555.362 120.668 556.091 120.005C556.82 119.341 557.184 118.436 557.184 117.29C557.184 116.784 557.167 116.29 557.131 115.808Z" fill="white"/>
<rect x="613.642" y="63.1992" width="91.7944" height="9.44942" rx="4.72471" fill="white" fill-opacity="0.27"/>
<rect x="613.642" y="79.3984" width="70.1957" height="9.44942" rx="4.72471" fill="white" fill-opacity="0.27"/>
<rect x="613.642" y="95.5967" width="83.6949" height="9.44942" rx="4.72471" fill="white" fill-opacity="0.27"/>
<rect x="613.642" y="111.796" width="49.947" height="9.44942" rx="4.72471" fill="white" fill-opacity="0.27"/>
<rect x="613.642" y="130.695" width="26.9984" height="25.6484" rx="4" fill="white" fill-opacity="0.27"/>
<circle cx="395" cy="197" r="3" fill="#C6F806"/>
<mask id="path-31-inside-1_3545_290" fill="white">
<path d="M364 36.3197C364 24.0469 361.152 11.9415 355.68 0.955914C350.209 -10.0297 342.263 -19.5957 332.467 -26.9895C322.671 -34.3833 311.294 -39.4033 299.229 -41.6543C287.164 -43.9054 274.742 -43.3262 262.939 -39.9623L275.357 3.60601C280.418 2.16339 285.746 1.91499 290.92 2.88037C296.094 3.84574 300.973 5.99855 305.174 9.16941C309.375 12.3403 312.782 16.4427 315.129 21.1539C317.475 25.8651 318.697 31.0565 318.697 36.3197H364Z"/>
</mask>
<path d="M364 36.3197C364 24.0469 361.152 11.9415 355.68 0.955914C350.209 -10.0297 342.263 -19.5957 332.467 -26.9895C322.671 -34.3833 311.294 -39.4033 299.229 -41.6543C287.164 -43.9054 274.742 -43.3262 262.939 -39.9623L275.357 3.60601C280.418 2.16339 285.746 1.91499 290.92 2.88037C296.094 3.84574 300.973 5.99855 305.174 9.16941C309.375 12.3403 312.782 16.4427 315.129 21.1539C317.475 25.8651 318.697 31.0565 318.697 36.3197H364Z" stroke="#D9D9D9" stroke-width="2" mask="url(#path-31-inside-1_3545_290)"/>
<mask id="path-32-inside-2_3545_290" fill="white">
<path d="M256.006 -37.6358C246.294 -33.8703 237.419 -28.2288 229.888 -21.0333C222.356 -13.8378 216.315 -5.22926 212.11 4.30077L253.555 22.5868C255.358 18.4994 257.949 14.8072 261.18 11.721C264.41 8.63488 268.217 6.21521 272.382 4.60019L256.006 -37.6358Z"/>
</mask>
<path d="M256.006 -37.6358C246.294 -33.8703 237.419 -28.2288 229.888 -21.0333C222.356 -13.8378 216.315 -5.22926 212.11 4.30077L253.555 22.5868C255.358 18.4994 257.949 14.8072 261.18 11.721C264.41 8.63488 268.217 6.21521 272.382 4.60019L256.006 -37.6358Z" stroke="#D9D9D9" stroke-width="2" mask="url(#path-32-inside-2_3545_290)"/>
<mask id="path-33-inside-3_3545_290" fill="white">
<path d="M209.231 11.8436C205.535 23.2374 204.467 35.3204 206.108 47.1859C207.749 59.0513 212.056 70.391 218.706 80.354C225.356 90.317 234.176 98.6446 244.504 104.712C254.832 110.779 266.4 114.428 278.34 115.386L281.961 70.2311C276.84 69.8205 271.878 68.2553 267.449 65.6531C263.019 63.0509 259.236 59.4792 256.384 55.206C253.532 50.9329 251.685 46.0693 250.981 40.9802C250.277 35.8911 250.735 30.7087 252.32 25.8219L209.231 11.8436Z"/>
</mask>
<path d="M209.231 11.8436C205.535 23.2374 204.467 35.3204 206.108 47.1859C207.749 59.0513 212.056 70.391 218.706 80.354C225.356 90.317 234.176 98.6446 244.504 104.712C254.832 110.779 266.4 114.428 278.34 115.386L281.961 70.2311C276.84 69.8205 271.878 68.2553 267.449 65.6531C263.019 63.0509 259.236 59.4792 256.384 55.206C253.532 50.9329 251.685 46.0693 250.981 40.9802C250.277 35.8911 250.735 30.7087 252.32 25.8219L209.231 11.8436Z" stroke="#C6F806" stroke-width="2" mask="url(#path-33-inside-3_3545_290)"/>
<mask id="path-34-inside-4_3545_290" fill="white">
<path d="M284.68 115.639C304.466 115.639 323.537 108.245 338.151 94.9072C352.765 81.5694 361.867 63.2514 363.67 43.5482L318.559 39.42C317.786 47.8707 313.882 55.7273 307.614 61.4479C301.346 67.1685 293.166 70.34 284.68 70.34V115.639Z"/>
</mask>
<path d="M284.68 115.639C304.466 115.639 323.537 108.245 338.151 94.9072C352.765 81.5694 361.867 63.2514 363.67 43.5482L318.559 39.42C317.786 47.8707 313.882 55.7273 307.614 61.4479C301.346 67.1685 293.166 70.34 284.68 70.34V115.639Z" stroke="#D9D9D9" stroke-width="2" mask="url(#path-34-inside-4_3545_290)"/>
<path d="M227.211 66.6055C227.211 68.0782 228.405 69.2721 229.878 69.2721C231.35 69.2721 232.544 68.0782 232.544 66.6055C232.544 65.1327 231.35 63.9388 229.878 63.9388C228.405 63.9388 227.211 65.1327 227.211 66.6055ZM229.878 66.6055H229.378V111.408H229.878H230.378V66.6055H229.878ZM219.878 121.408V120.908H152V121.408V121.908H219.878V121.408ZM229.878 111.408H229.378C229.378 116.655 225.124 120.908 219.878 120.908V121.408V121.908C225.677 121.908 230.378 117.207 230.378 111.408H229.878Z" fill="#C6F806"/>
<path d="M419.958 215.988L409.842 205.966C411.561 203.255 412.558 200.051 412.558 196.613C412.558 186.885 404.598 179 394.779 179C384.96 179 377 186.885 377 196.613C377 206.341 384.959 214.225 394.779 214.225C398.556 214.225 402.055 213.055 404.934 211.067L414.929 220.97C415.624 221.658 416.534 222 417.444 222C418.354 222 419.264 221.658 419.959 220.97C421.347 219.594 421.347 217.364 419.958 215.988ZM394.779 208.519C388.142 208.519 382.761 203.189 382.761 196.613C382.761 190.038 388.142 184.708 394.779 184.708C401.416 184.708 406.797 190.038 406.797 196.613C406.797 203.189 401.416 208.519 394.779 208.519Z" fill="white"/>
</g>
<defs>
<linearGradient id="paint0_linear_3545_290" x1="446" y1="136.5" x2="330" y2="245.5" gradientUnits="userSpaceOnUse">
<stop stop-color="#C6F806" stop-opacity="0.29"/>
<stop offset="0.481202" stop-color="#C6F806"/>
<stop offset="1" stop-color="#C6F806" stop-opacity="0.33"/>
</linearGradient>
<linearGradient id="paint1_linear_3545_290" x1="346.5" y1="132.496" x2="346" y2="324.996" gradientUnits="userSpaceOnUse">
<stop stop-color="#C6F806" stop-opacity="0.25"/>
<stop offset="1" stop-color="#C6F806" stop-opacity="0"/>
</linearGradient>
<clipPath id="clip0_3545_290">
<rect width="646" height="322" rx="22" fill="white"/>
</clipPath>
</defs>
</svg>
