<svg width="646" height="322" viewBox="0 0 646 322" fill="none" xmlns="http://www.w3.org/2000/svg">
<g clip-path="url(#clip0_3545_347)">
<rect width="646" height="322" rx="22" fill="#2D1D3F"/>
<rect x="21.5662" y="154.833" width="225.531" height="330.589" rx="11.5" transform="rotate(-7.97031 21.5662 154.833)" stroke="white"/>
<rect x="126.455" y="169.983" width="106.247" height="98.5863" rx="5.5" transform="rotate(-7.97031 126.455 169.983)" stroke="white"/>
<rect x="56.5962" y="302.422" width="60.2839" height="55.9064" rx="5.5" transform="rotate(-7.97031 56.5962 302.422)" stroke="white"/>
<rect x="188.816" y="283.911" width="60.2839" height="55.9064" rx="5.5" transform="rotate(-7.97031 188.816 283.911)" stroke="white"/>
<rect x="122.706" y="293.166" width="60.2839" height="55.9064" rx="5.5" transform="rotate(-7.97031 122.706 293.166)" stroke="white"/>
<rect x="43.2834" y="210.961" width="68.9443" height="13.1323" rx="6.56613" transform="rotate(-7.97031 43.2834 210.961)" fill="white" fill-opacity="0.27"/>
<rect x="46.1667" y="231.553" width="41.5855" height="6.56613" rx="3.28306" transform="rotate(-7.97031 46.1667 231.553)" fill="white" fill-opacity="0.27"/>
<rect x="47.5325" y="241.308" width="41.5855" height="6.56613" rx="3.28306" transform="rotate(-7.97031 47.5325 241.308)" fill="white" fill-opacity="0.27"/>
<rect x="35.6763" y="164.511" width="19.6984" height="6.56613" rx="3.28306" transform="rotate(-7.97031 35.6763 164.511)" fill="white" fill-opacity="0.27"/>
<rect x="210.164" y="140.08" width="19.6984" height="6.56613" rx="3.28306" transform="rotate(-7.97031 210.164 140.08)" fill="white" fill-opacity="0.27"/>
<rect x="97.4517" y="155.863" width="12.0379" height="6.56613" rx="3.28306" transform="rotate(-7.97031 97.4517 155.863)" fill="white" fill-opacity="0.27"/>
<rect x="111.54" y="153.888" width="12.0379" height="6.56613" rx="3.28306" transform="rotate(-7.97031 111.54 153.888)" fill="white" fill-opacity="0.27"/>
<rect x="125.629" y="151.917" width="12.0379" height="6.56613" rx="3.28306" transform="rotate(-7.97031 125.629 151.917)" fill="white" fill-opacity="0.27"/>
<rect x="435.187" y="-149.43" width="232.417" height="340.669" rx="11.5" transform="rotate(8.20526 435.187 -149.43)" stroke="white"/>
<rect x="534.638" y="-104.329" width="109.507" height="101.613" rx="5.5" transform="rotate(8.20526 534.638 -104.329)" stroke="white"/>
<rect x="427.488" y="6.67952" width="62.1467" height="57.6363" rx="5.5" transform="rotate(8.20526 427.488 6.67952)" stroke="white"/>
<rect x="510.434" y="110.923" width="102.741" height="65.5296" rx="5.5" transform="rotate(8.20526 510.434 110.923)" stroke="white"/>
<rect x="563.648" y="26.3153" width="62.1467" height="57.6363" rx="5.5" transform="rotate(8.20526 563.648 26.3153)" stroke="white"/>
<rect x="495.568" y="16.4979" width="62.1467" height="57.6363" rx="5.5" transform="rotate(8.20526 495.568 16.4979)" stroke="white"/>
<rect x="412.257" y="108.789" width="80.061" height="6.76572" rx="3.38286" transform="rotate(8.20526 412.257 108.789)" fill="white" fill-opacity="0.27"/>
<rect x="410.81" y="118.836" width="80.061" height="6.76572" rx="3.38286" transform="rotate(8.20526 410.81 118.836)" fill="white" fill-opacity="0.27"/>
<rect x="409.2" y="129.996" width="80.061" height="6.76572" rx="3.38286" transform="rotate(8.20526 409.2 129.996)" fill="white" fill-opacity="0.27"/>
<rect x="407.591" y="141.156" width="80.061" height="6.76572" rx="3.38286" transform="rotate(8.20526 407.591 141.156)" fill="white" fill-opacity="0.27"/>
<rect x="196" y="64" width="254" height="287" rx="12" fill="#463856"/>
<path d="M251.677 233.844L251.654 233.868C251.339 233.179 251.14 232.398 251.059 231.534C251.14 232.386 251.362 233.156 251.677 233.844Z" fill="white"/>
<path d="M259.167 223.775C260.701 223.775 261.944 222.532 261.944 220.998C261.944 219.465 260.701 218.222 259.167 218.222C257.634 218.222 256.391 219.465 256.391 220.998C256.391 222.532 257.634 223.775 259.167 223.775Z" fill="white"/>
<path d="M267.556 213.999H257.779C253.532 213.999 251.001 216.531 251.001 220.777V230.554C251.001 231.826 251.222 232.934 251.654 233.867C252.657 236.084 254.804 237.332 257.779 237.332H267.556C271.802 237.332 274.334 234.801 274.334 230.554V227.882V220.777C274.334 216.531 271.802 213.999 267.556 213.999ZM272.432 226.249C271.522 225.467 270.052 225.467 269.142 226.249L264.289 230.414C263.379 231.196 261.909 231.196 260.999 230.414L260.602 230.087C259.774 229.364 258.456 229.294 257.522 229.924L253.159 232.852C252.902 232.199 252.751 231.441 252.751 230.554V220.777C252.751 217.487 254.489 215.749 257.779 215.749H267.556C270.846 215.749 272.584 217.487 272.584 220.777V226.377L272.432 226.249Z" fill="white"/>
<rect x="210.5" y="80.5" width="224" height="95" rx="5.5" stroke="#C6F806"/>
<rect x="291" y="113" width="63" height="12" rx="6" fill="white" fill-opacity="0.27"/>
<rect x="279" y="129" width="87" height="2" rx="1" fill="white" fill-opacity="0.27"/>
<rect x="286" y="134" width="73" height="2" rx="1" fill="white" fill-opacity="0.27"/>
<rect x="284" y="139" width="77" height="2" rx="1" fill="white" fill-opacity="0.27"/>
<rect x="218" y="87" width="12" height="2" rx="1" fill="white" fill-opacity="0.27"/>
<rect x="414" y="87" width="12" height="2" rx="1" fill="white" fill-opacity="0.27"/>
<rect x="280" y="87" width="12" height="2" rx="1" fill="white" fill-opacity="0.27"/>
<rect x="298" y="87" width="12" height="2" rx="1" fill="white" fill-opacity="0.27"/>
<rect x="316" y="87" width="12" height="2" rx="1" fill="white" fill-opacity="0.27"/>
<rect x="334" y="87" width="12" height="2" rx="1" fill="white" fill-opacity="0.27"/>
<rect x="352" y="87" width="12" height="2" rx="1" fill="white" fill-opacity="0.27"/>
<rect x="311" y="144" width="23" height="7" rx="3.5" fill="white" fill-opacity="0.27"/>
<rect x="210.5" y="194.5" width="105" height="63" rx="5.5" stroke="white" stroke-opacity="0.26"/>
<rect x="210.5" y="271.5" width="224" height="63" rx="5.5" stroke="white" stroke-opacity="0.26"/>
<rect x="329.5" y="194.5" width="105" height="16" rx="5.5" stroke="white" stroke-opacity="0.26"/>
<rect x="329.5" y="217.5" width="105" height="16" rx="5.5" stroke="white" stroke-opacity="0.26"/>
<rect x="329.5" y="240.5" width="105" height="16" rx="5.5" stroke="white" stroke-opacity="0.26"/>
</g>
<defs>
<clipPath id="clip0_3545_347">
<rect width="646" height="322" rx="22" fill="white"/>
</clipPath>
</defs>
</svg>
