<svg width="646" height="322" viewBox="0 0 646 322" fill="none" xmlns="http://www.w3.org/2000/svg">
<g clip-path="url(#clip0_3545_585)">
<rect width="646" height="322" rx="22" fill="#2D1D3F"/>
<path d="M393.785 287.834L393.75 287.878C393.074 286.768 392.578 285.475 392.265 284.02C392.576 285.455 393.109 286.724 393.785 287.834Z" fill="white"/>
<path d="M404.529 269.156C407.144 268.847 409.013 266.477 408.704 263.862C408.395 261.247 406.025 259.378 403.41 259.687C400.795 259.996 398.926 262.366 399.235 264.981C399.544 267.595 401.914 269.465 404.529 269.156Z" fill="white"/>
<path d="M416.862 250.797L400.191 252.767C392.95 253.622 389.143 258.449 389.999 265.69L391.968 282.36C392.224 284.529 392.825 286.374 393.749 287.878C395.906 291.456 399.818 293.152 404.891 292.553L421.561 290.584C428.802 289.728 432.609 284.902 431.754 277.66L431.216 273.105L429.785 260.99C428.929 253.749 424.103 249.942 416.862 250.797ZM427.644 270.703C425.935 269.553 423.429 269.849 422.034 271.366L414.598 279.445C413.204 280.961 410.697 281.257 408.988 280.108L408.246 279.631C406.688 278.564 404.426 278.71 402.961 279.972L396.111 285.844C395.542 284.782 395.13 283.52 394.952 282.008L392.983 265.337C392.32 259.727 394.934 256.413 400.544 255.751L417.214 253.781C422.824 253.119 426.138 255.733 426.801 261.343L427.929 270.891L427.644 270.703Z" fill="white"/>
<rect x="315.251" y="228.725" width="181" height="108.887" rx="5.5" transform="rotate(-6.73677 315.251 228.725)" stroke="white" stroke-opacity="0.26"/>
<path d="M332.78 183.931L332.745 183.976C332.069 182.866 331.573 181.573 331.26 180.117C331.571 181.553 332.104 182.821 332.78 183.931Z" fill="white"/>
<path d="M343.524 165.254C346.138 164.945 348.008 162.575 347.699 159.96C347.39 157.345 345.02 155.476 342.405 155.784C339.79 156.093 337.921 158.463 338.23 161.078C338.539 163.693 340.909 165.562 343.524 165.254Z" fill="white"/>
<path d="M355.857 146.895L339.186 148.864C331.945 149.72 328.138 154.546 328.993 161.787L330.963 178.458C331.219 180.626 331.82 182.471 332.744 183.976C334.901 187.553 338.813 189.25 343.886 188.65L360.556 186.681C367.797 185.826 371.604 180.999 370.749 173.758L370.211 169.203L368.78 157.088C367.924 149.847 363.098 146.04 355.857 146.895ZM366.639 166.801C364.93 165.651 362.424 165.947 361.029 167.463L353.593 175.543C352.198 177.059 349.692 177.355 347.983 176.205L347.241 175.728C345.683 174.662 343.421 174.808 341.956 176.07L335.106 181.942C334.537 180.88 334.125 179.617 333.947 178.105L331.977 161.435C331.315 155.825 333.929 152.511 339.539 151.848L356.209 149.879C361.819 149.216 365.133 151.83 365.796 157.44L366.924 166.989L366.639 166.801Z" fill="white"/>
<rect x="303.403" y="128.42" width="84" height="89" rx="5.5" transform="rotate(-6.73677 303.403 128.42)" stroke="white" stroke-opacity="0.26"/>
<path d="M369.593 77.8827L369.558 77.9271C368.882 76.8169 368.387 75.524 368.074 74.0684C368.385 75.5041 368.918 76.7724 369.593 77.8827Z" fill="white"/>
<path d="M380.337 59.2048C382.952 58.8959 384.821 56.5258 384.512 53.911C384.204 51.2961 381.834 49.4268 379.219 49.7357C376.604 50.0445 374.735 52.4147 375.043 55.0295C375.352 57.6443 377.722 59.5137 380.337 59.2048Z" fill="white"/>
<path d="M392.67 40.8462L376 42.8154C368.759 43.6707 364.952 48.4975 365.807 55.7386L367.776 72.409C368.032 74.5774 368.634 76.4226 369.558 77.9271C371.715 81.5047 375.627 83.2009 380.699 82.6016L397.37 80.6325C404.611 79.7771 408.418 74.9504 407.563 67.7093L407.024 63.1538L405.593 51.0389C404.738 43.7978 399.911 39.9909 392.67 40.8462ZM403.453 60.7518C401.744 59.6022 399.237 59.8983 397.843 61.4144L390.406 69.4938C389.012 71.0099 386.506 71.306 384.797 70.1565L384.054 69.6794C382.496 68.6128 380.234 68.759 378.77 70.0212L371.919 75.8932C371.35 74.8309 370.939 73.5684 370.76 72.0565L368.791 55.3861C368.128 49.7762 370.742 46.462 376.352 45.7994L393.023 43.8302C398.633 43.1675 401.947 45.7815 402.609 51.3913L403.737 60.94L403.453 60.7518Z" fill="white"/>
<rect x="291.555" y="28.1195" width="181" height="89" rx="5.5" transform="rotate(-6.73677 291.555 28.1195)" stroke="white" stroke-opacity="0.26"/>
<path d="M429.11 172.553L429.075 172.597C428.399 171.487 427.903 170.194 427.59 168.738C427.901 170.174 428.434 171.442 429.11 172.553Z" fill="white"/>
<path d="M439.854 153.875C442.468 153.566 444.338 151.196 444.029 148.581C443.72 145.966 441.35 144.097 438.735 144.406C436.12 144.714 434.251 147.085 434.56 149.699C434.869 152.314 437.239 154.184 439.854 153.875Z" fill="white"/>
<path d="M452.187 135.516L435.516 137.485C428.275 138.341 424.468 143.167 425.324 150.408L427.293 167.079C427.549 169.247 428.15 171.092 429.074 172.597C431.231 176.175 435.143 177.871 440.216 177.272L456.886 175.302C464.127 174.447 467.934 169.62 467.079 162.379L466.541 157.824L465.11 145.709C464.254 138.468 459.428 134.661 452.187 135.516ZM462.969 155.422C461.26 154.272 458.754 154.568 457.359 156.084L449.923 164.164C448.529 165.68 446.022 165.976 444.313 164.826L443.571 164.349C442.013 163.283 439.751 163.429 438.286 164.691L431.436 170.563C430.867 169.501 430.455 168.238 430.277 166.726L428.307 150.056C427.645 144.446 430.259 141.132 435.869 140.469L452.539 138.5C458.149 137.837 461.463 140.451 462.126 146.061L463.254 155.61L462.969 155.422Z" fill="white"/>
<rect x="399.733" y="117.041" width="84" height="89" rx="5.5" transform="rotate(-6.73677 399.733 117.041)" stroke="white" stroke-opacity="0.26"/>
<path d="M584.459 265.31L584.423 265.355C583.748 264.245 583.252 262.952 582.939 261.496C583.25 262.932 583.783 264.2 584.459 265.31Z" fill="white"/>
<path d="M595.202 246.633C597.817 246.324 599.687 243.954 599.378 241.339C599.069 238.724 596.699 236.855 594.084 237.163C591.469 237.472 589.6 239.842 589.909 242.457C590.218 245.072 592.588 246.941 595.202 246.633Z" fill="white"/>
<path d="M607.535 228.274L590.865 230.243C583.624 231.098 579.817 235.925 580.672 243.166L582.642 259.837C582.898 262.005 583.499 263.85 584.423 265.355C586.58 268.932 590.492 270.629 595.565 270.029L612.235 268.06C619.476 267.205 623.283 262.378 622.428 255.137L621.89 250.582L620.459 238.467C619.603 231.226 614.777 227.419 607.535 228.274ZM618.318 248.18C616.609 247.03 614.103 247.326 612.708 248.842L605.272 256.922C603.877 258.438 601.371 258.734 599.662 257.584L598.92 257.107C597.362 256.041 595.099 256.187 593.635 257.449L586.785 263.321C586.215 262.259 585.804 260.996 585.626 259.484L583.656 242.814C582.994 237.204 585.608 233.89 591.218 233.227L607.888 231.258C613.498 230.595 616.812 233.209 617.475 238.819L618.603 248.368L618.318 248.18Z" fill="white"/>
<rect x="505.924" y="206.202" width="181" height="108.887" rx="5.5" transform="rotate(-6.73677 505.924 206.202)" stroke="white" stroke-opacity="0.26"/>
<path d="M563.89 91.1786L563.855 91.223C563.18 90.1128 562.684 88.8199 562.371 87.3643C562.682 88.8 563.215 90.0683 563.89 91.1786Z" fill="white"/>
<path d="M574.634 72.5007C577.249 72.1918 579.118 69.8217 578.81 67.2069C578.501 64.592 576.131 62.7227 573.516 63.0316C570.901 63.3404 569.032 65.7106 569.341 68.3254C569.649 70.9402 572.02 72.8096 574.634 72.5007Z" fill="white"/>
<path d="M586.967 54.1421L570.297 56.1113C563.056 56.9666 559.249 61.7934 560.104 69.0345L562.073 85.7049C562.33 87.8733 562.931 89.7185 563.855 91.223C566.012 94.8006 569.924 96.4968 574.997 95.8975L591.667 93.9284C598.908 93.073 602.715 88.2463 601.86 81.0052L601.322 76.4497L599.891 64.3348C599.035 57.0937 594.208 53.2868 586.967 54.1421ZM597.75 74.0477C596.041 72.8981 593.534 73.1942 592.14 74.7103L584.704 82.7897C583.309 84.3058 580.803 84.6019 579.094 83.4524L578.351 82.9753C576.793 81.9087 574.531 82.0549 573.067 83.3171L566.217 89.1891C565.647 88.1268 565.236 86.8643 565.057 85.3524L563.088 68.682C562.426 63.0721 565.04 59.7579 570.649 59.0953L587.32 57.1261C592.93 56.4634 596.244 59.0774 596.907 64.6872L598.034 74.2359L597.75 74.0477Z" fill="white"/>
<rect x="478.944" y="-22.2125" width="181" height="217" rx="5.5" transform="rotate(-6.73677 478.944 -22.2125)" stroke="white" stroke-opacity="0.26"/>
<rect x="37" y="173" width="47.0781" height="31.0026" rx="6" fill="#C6F806"/>
<rect x="93.2629" y="173" width="47.0781" height="31.0026" rx="6" fill="white"/>
<rect opacity="0.7" x="37" y="206.3" width="47.0781" height="31.0026" rx="6" fill="#C6F806"/>
<rect opacity="0.7" x="93.2629" y="206.3" width="47.0781" height="31.0026" rx="6" fill="white"/>
<rect opacity="0.4" x="37" y="239.6" width="47.0781" height="31.0026" rx="6" fill="#C6F806"/>
<rect opacity="0.4" x="93.2629" y="239.6" width="47.0781" height="31.0026" rx="6" fill="white"/>
<rect opacity="0.2" x="37" y="272.899" width="47.0781" height="31.0026" rx="6" fill="#C6F806"/>
<rect opacity="0.2" x="93.2629" y="272.899" width="47.0781" height="31.0026" rx="6" fill="white"/>
<rect x="160" y="216" width="115" height="18" rx="6" fill="white" fill-opacity="0.26"/>
<rect x="160" y="240" width="114" height="14" rx="6" fill="white" fill-opacity="0.26"/>
<rect x="160" y="259" width="110" height="11" rx="5.5" fill="white" fill-opacity="0.26"/>
<rect x="160" y="275" width="105" height="8" rx="4" fill="white" fill-opacity="0.26"/>
<rect x="160" y="288" width="102" height="6" rx="3" fill="white" fill-opacity="0.26"/>
<rect x="160" y="299" width="99" height="5" rx="2.5" fill="white" fill-opacity="0.26"/>
<rect x="33" y="34" width="80.061" height="6.76572" rx="3.38286" fill="white" fill-opacity="0.27"/>
<rect x="33" y="44.0469" width="80.061" height="6.76572" rx="3.38286" fill="white" fill-opacity="0.27"/>
<rect x="33" y="55.207" width="80.061" height="6.76572" rx="3.38286" fill="white" fill-opacity="0.27"/>
<rect x="33" y="66.3672" width="80.061" height="6.76572" rx="3.38286" fill="white" fill-opacity="0.27"/>
<rect x="137" y="34" width="80.061" height="6.76572" rx="3.38286" fill="white" fill-opacity="0.27"/>
<rect x="137" y="44.0469" width="80.061" height="6.76572" rx="3.38286" fill="white" fill-opacity="0.27"/>
<rect x="137" y="55.207" width="80.061" height="6.76572" rx="3.38286" fill="white" fill-opacity="0.27"/>
<rect x="137" y="66.3672" width="80.061" height="6.76572" rx="3.38286" fill="white" fill-opacity="0.27"/>
<rect x="199.5" y="90.5" width="74" height="64" rx="5.5" stroke="white" stroke-opacity="0.26"/>
<rect x="37.5" y="90.5" width="74" height="64" rx="5.5" stroke="white" stroke-opacity="0.26"/>
<rect x="118.5" y="90.5" width="74" height="64" rx="5.5" stroke="white" stroke-opacity="0.26"/>
<path d="M80.4747 122.068H80.1239C80.0948 120.925 79.7219 119.817 79.0539 118.89C78.3859 117.962 77.4537 117.257 76.379 116.867H79.2857C79.3279 117.03 79.4282 117.173 79.5679 117.267C79.7076 117.362 79.8771 117.403 80.0445 117.381C80.212 117.36 80.3659 117.279 80.4775 117.152C80.5891 117.025 80.6506 116.862 80.6506 116.693C80.6506 116.525 80.5891 116.362 80.4775 116.235C80.3659 116.108 80.212 116.027 80.0445 116.006C79.8771 115.984 79.7076 116.025 79.5679 116.12C79.4282 116.214 79.3279 116.357 79.2857 116.52H75.1001V116.173C75.1001 116.127 75.0818 116.083 75.0493 116.051C75.0168 116.018 74.9727 116 74.9267 116H73.8865C73.8405 116 73.7964 116.018 73.7639 116.051C73.7314 116.083 73.7131 116.127 73.7131 116.173V116.52H69.5276C69.4854 116.357 69.385 116.214 69.2453 116.12C69.1056 116.025 68.9362 115.984 68.7687 116.006C68.6013 116.027 68.4473 116.108 68.3357 116.235C68.2242 116.362 68.1626 116.525 68.1626 116.693C68.1626 116.862 68.2242 117.025 68.3357 117.152C68.4473 117.279 68.6013 117.36 68.7687 117.381C68.9362 117.403 69.1056 117.362 69.2453 117.267C69.385 117.173 69.4854 117.03 69.5276 116.867H72.4342C71.3595 117.257 70.4273 117.962 69.7593 118.89C69.0913 119.817 68.7184 120.925 68.6893 122.068H68.3386C68.2926 122.068 68.2485 122.086 68.216 122.119C68.1835 122.151 68.1652 122.195 68.1652 122.241V123.282C68.1652 123.328 68.1835 123.372 68.216 123.404C68.2485 123.437 68.2926 123.455 68.3386 123.455H69.3788C69.4248 123.455 69.4689 123.437 69.5014 123.404C69.5339 123.372 69.5522 123.328 69.5522 123.282V122.241C69.5522 122.195 69.5339 122.151 69.5014 122.119C69.4689 122.086 69.4248 122.068 69.3788 122.068H69.0361C69.0709 120.792 69.5618 119.57 70.4197 118.624C71.2777 117.678 72.4461 117.071 73.7131 116.912V117.214C73.7131 117.26 73.7314 117.304 73.7639 117.336C73.7964 117.369 73.8405 117.387 73.8865 117.387H74.9267C74.9727 117.387 75.0168 117.369 75.0493 117.336C75.0818 117.304 75.1001 117.26 75.1001 117.214V116.912C76.3672 117.071 77.5355 117.678 78.3935 118.624C79.2515 119.57 79.7423 120.792 79.7771 122.068H79.4344C79.3884 122.068 79.3444 122.086 79.3118 122.119C79.2793 122.151 79.2611 122.195 79.2611 122.241V123.282C79.2611 123.328 79.2793 123.372 79.3118 123.404C79.3444 123.437 79.3884 123.455 79.4344 123.455H80.4747C80.5206 123.455 80.5647 123.437 80.5973 123.404C80.6298 123.372 80.648 123.328 80.648 123.282V122.241C80.648 122.195 80.6298 122.151 80.5973 122.119C80.5647 122.086 80.5206 122.068 80.4747 122.068Z" fill="#6D6D6D"/>
<path d="M74.9078 118.176C74.8904 118.141 74.8616 118.113 74.8262 118.096C74.7909 118.08 74.7509 118.076 74.7129 118.085C74.6749 118.094 74.641 118.115 74.6168 118.146C74.5925 118.177 74.5794 118.214 74.5794 118.253V123.873C74.5794 123.906 74.5891 123.939 74.6074 123.967C74.6257 123.995 74.6518 124.017 74.6825 124.031C74.8287 124.095 74.9485 124.206 75.0218 124.348C75.0951 124.49 75.1174 124.652 75.085 124.808C75.0525 124.964 74.9673 125.104 74.8436 125.205C74.72 125.306 74.5654 125.36 74.406 125.36C74.2466 125.36 74.0921 125.306 73.9684 125.205C73.8447 125.104 73.7595 124.964 73.727 124.808C73.6946 124.652 73.7169 124.49 73.7902 124.348C73.8635 124.206 73.9833 124.095 74.1295 124.031C74.1602 124.017 74.1863 123.995 74.2046 123.967C74.2229 123.939 74.2326 123.906 74.2326 123.873V118.253C74.2326 118.214 74.2195 118.177 74.1952 118.146C74.171 118.115 74.1371 118.094 74.0991 118.085C74.0611 118.076 74.0211 118.08 73.9858 118.096C73.9504 118.113 73.9216 118.141 73.9042 118.176L70.6101 124.764C70.5981 124.788 70.5918 124.815 70.5918 124.842C70.5918 124.869 70.5981 124.895 70.6101 124.919L71.8716 127.442H76.9404L78.2019 124.919C78.2139 124.895 78.2202 124.869 78.2202 124.842C78.2202 124.815 78.2139 124.788 78.2019 124.764L74.9078 118.176Z" fill="#6D6D6D"/>
<path d="M77.3525 127.788H71.4578C71.362 127.788 71.2844 127.866 71.2844 127.961V129.002C71.2844 129.097 71.362 129.175 71.4578 129.175H77.3525C77.4482 129.175 77.5258 129.097 77.5258 129.002V127.961C77.5258 127.866 77.4482 127.788 77.3525 127.788Z" fill="#6D6D6D"/>
<path d="M71.8054 130.739C71.8054 130.785 71.8237 130.829 71.8562 130.862C71.8887 130.894 71.9328 130.912 71.9788 130.912H76.8332C76.8792 130.912 76.9233 130.894 76.9558 130.862C76.9883 130.829 77.0066 130.785 77.0066 130.739V129.525H71.8054V130.739Z" fill="#6D6D6D"/>
<path d="M161.313 122.068H160.962C160.933 120.925 160.56 119.817 159.892 118.89C159.224 117.962 158.292 117.257 157.217 116.867H160.124C160.166 117.03 160.266 117.173 160.406 117.267C160.546 117.362 160.715 117.403 160.882 117.381C161.05 117.36 161.204 117.279 161.315 117.152C161.427 117.025 161.489 116.862 161.489 116.693C161.489 116.525 161.427 116.362 161.315 116.235C161.204 116.108 161.05 116.027 160.882 116.006C160.715 115.984 160.546 116.025 160.406 116.12C160.266 116.214 160.166 116.357 160.124 116.52H155.938V116.173C155.938 116.127 155.92 116.083 155.887 116.051C155.855 116.018 155.811 116 155.765 116H154.724C154.678 116 154.634 116.018 154.602 116.051C154.569 116.083 154.551 116.127 154.551 116.173V116.52H150.365C150.323 116.357 150.223 116.214 150.083 116.12C149.943 116.025 149.774 115.984 149.607 116.006C149.439 116.027 149.285 116.108 149.174 116.235C149.062 116.362 149 116.525 149 116.693C149 116.862 149.062 117.025 149.174 117.152C149.285 117.279 149.439 117.36 149.607 117.381C149.774 117.403 149.943 117.362 150.083 117.267C150.223 117.173 150.323 117.03 150.365 116.867H153.272C152.197 117.257 151.265 117.962 150.597 118.89C149.929 119.817 149.556 120.925 149.527 122.068H149.176C149.13 122.068 149.086 122.086 149.054 122.119C149.021 122.151 149.003 122.195 149.003 122.241V123.282C149.003 123.328 149.021 123.372 149.054 123.404C149.086 123.437 149.13 123.455 149.176 123.455H150.217C150.263 123.455 150.307 123.437 150.339 123.404C150.372 123.372 150.39 123.328 150.39 123.282V122.241C150.39 122.195 150.372 122.151 150.339 122.119C150.307 122.086 150.263 122.068 150.217 122.068H149.874C149.909 120.792 150.4 119.57 151.258 118.624C152.116 117.678 153.284 117.071 154.551 116.912V117.214C154.551 117.26 154.569 117.304 154.602 117.336C154.634 117.369 154.678 117.387 154.724 117.387H155.765C155.811 117.387 155.855 117.369 155.887 117.336C155.92 117.304 155.938 117.26 155.938 117.214V116.912C157.205 117.071 158.373 117.678 159.231 118.624C160.089 119.57 160.58 120.792 160.615 122.068H160.272C160.226 122.068 160.182 122.086 160.15 122.119C160.117 122.151 160.099 122.195 160.099 122.241V123.282C160.099 123.328 160.117 123.372 160.15 123.404C160.182 123.437 160.226 123.455 160.272 123.455H161.313C161.359 123.455 161.403 123.437 161.435 123.404C161.468 123.372 161.486 123.328 161.486 123.282V122.241C161.486 122.195 161.468 122.151 161.435 122.119C161.403 122.086 161.359 122.068 161.313 122.068Z" fill="#6D6D6D"/>
<path d="M155.746 118.176C155.728 118.141 155.7 118.113 155.664 118.096C155.629 118.08 155.589 118.076 155.551 118.085C155.513 118.094 155.479 118.115 155.455 118.146C155.43 118.177 155.417 118.214 155.417 118.253V123.873C155.417 123.906 155.427 123.939 155.445 123.967C155.464 123.995 155.49 124.017 155.52 124.031C155.667 124.095 155.786 124.206 155.86 124.348C155.933 124.49 155.955 124.652 155.923 124.808C155.89 124.964 155.805 125.104 155.682 125.205C155.558 125.306 155.403 125.36 155.244 125.36C155.084 125.36 154.93 125.306 154.806 125.205C154.683 125.104 154.597 124.964 154.565 124.808C154.532 124.652 154.555 124.49 154.628 124.348C154.701 124.206 154.821 124.095 154.967 124.031C154.998 124.017 155.024 123.995 155.042 123.967C155.061 123.939 155.071 123.906 155.071 123.873V118.253C155.071 118.214 155.057 118.177 155.033 118.146C155.009 118.115 154.975 118.094 154.937 118.085C154.899 118.076 154.859 118.08 154.824 118.096C154.788 118.113 154.76 118.141 154.742 118.176L151.448 124.764C151.436 124.788 151.43 124.815 151.43 124.842C151.43 124.869 151.436 124.895 151.448 124.919L152.709 127.442H157.778L159.04 124.919C159.052 124.895 159.058 124.869 159.058 124.842C159.058 124.815 159.052 124.788 159.04 124.764L155.746 118.176Z" fill="#6D6D6D"/>
<path d="M158.19 127.788H152.296C152.2 127.788 152.122 127.866 152.122 127.961V129.002C152.122 129.097 152.2 129.175 152.296 129.175H158.19C158.286 129.175 158.364 129.097 158.364 129.002V127.961C158.364 127.866 158.286 127.788 158.19 127.788Z" fill="#6D6D6D"/>
<path d="M152.643 130.739C152.643 130.785 152.662 130.829 152.694 130.862C152.727 130.894 152.771 130.912 152.817 130.912H157.671C157.717 130.912 157.761 130.894 157.794 130.862C157.826 130.829 157.844 130.785 157.844 130.739V129.525H152.643V130.739Z" fill="#6D6D6D"/>
<path d="M242.313 122.068H241.962C241.933 120.925 241.56 119.817 240.892 118.89C240.224 117.962 239.292 117.257 238.217 116.867H241.124C241.166 117.03 241.266 117.173 241.406 117.267C241.546 117.362 241.715 117.403 241.882 117.381C242.05 117.36 242.204 117.279 242.315 117.152C242.427 117.025 242.489 116.862 242.489 116.693C242.489 116.525 242.427 116.362 242.315 116.235C242.204 116.108 242.05 116.027 241.882 116.006C241.715 115.984 241.546 116.025 241.406 116.12C241.266 116.214 241.166 116.357 241.124 116.52H236.938V116.173C236.938 116.127 236.92 116.083 236.887 116.051C236.855 116.018 236.811 116 236.765 116H235.724C235.678 116 235.634 116.018 235.602 116.051C235.569 116.083 235.551 116.127 235.551 116.173V116.52H231.365C231.323 116.357 231.223 116.214 231.083 116.12C230.943 116.025 230.774 115.984 230.607 116.006C230.439 116.027 230.285 116.108 230.174 116.235C230.062 116.362 230 116.525 230 116.693C230 116.862 230.062 117.025 230.174 117.152C230.285 117.279 230.439 117.36 230.607 117.381C230.774 117.403 230.943 117.362 231.083 117.267C231.223 117.173 231.323 117.03 231.365 116.867H234.272C233.197 117.257 232.265 117.962 231.597 118.89C230.929 119.817 230.556 120.925 230.527 122.068H230.176C230.13 122.068 230.086 122.086 230.054 122.119C230.021 122.151 230.003 122.195 230.003 122.241V123.282C230.003 123.328 230.021 123.372 230.054 123.404C230.086 123.437 230.13 123.455 230.176 123.455H231.217C231.263 123.455 231.307 123.437 231.339 123.404C231.372 123.372 231.39 123.328 231.39 123.282V122.241C231.39 122.195 231.372 122.151 231.339 122.119C231.307 122.086 231.263 122.068 231.217 122.068H230.874C230.909 120.792 231.4 119.57 232.258 118.624C233.116 117.678 234.284 117.071 235.551 116.912V117.214C235.551 117.26 235.569 117.304 235.602 117.336C235.634 117.369 235.678 117.387 235.724 117.387H236.765C236.811 117.387 236.855 117.369 236.887 117.336C236.92 117.304 236.938 117.26 236.938 117.214V116.912C238.205 117.071 239.373 117.678 240.231 118.624C241.089 119.57 241.58 120.792 241.615 122.068H241.272C241.226 122.068 241.182 122.086 241.15 122.119C241.117 122.151 241.099 122.195 241.099 122.241V123.282C241.099 123.328 241.117 123.372 241.15 123.404C241.182 123.437 241.226 123.455 241.272 123.455H242.313C242.359 123.455 242.403 123.437 242.435 123.404C242.468 123.372 242.486 123.328 242.486 123.282V122.241C242.486 122.195 242.468 122.151 242.435 122.119C242.403 122.086 242.359 122.068 242.313 122.068Z" fill="#6D6D6D"/>
<path d="M236.746 118.176C236.728 118.141 236.7 118.113 236.664 118.096C236.629 118.08 236.589 118.076 236.551 118.085C236.513 118.094 236.479 118.115 236.455 118.146C236.43 118.177 236.417 118.214 236.417 118.253V123.873C236.417 123.906 236.427 123.939 236.445 123.967C236.464 123.995 236.49 124.017 236.52 124.031C236.667 124.095 236.786 124.206 236.86 124.348C236.933 124.49 236.955 124.652 236.923 124.808C236.89 124.964 236.805 125.104 236.682 125.205C236.558 125.306 236.403 125.36 236.244 125.36C236.084 125.36 235.93 125.306 235.806 125.205C235.683 125.104 235.597 124.964 235.565 124.808C235.532 124.652 235.555 124.49 235.628 124.348C235.701 124.206 235.821 124.095 235.967 124.031C235.998 124.017 236.024 123.995 236.042 123.967C236.061 123.939 236.071 123.906 236.071 123.873V118.253C236.071 118.214 236.057 118.177 236.033 118.146C236.009 118.115 235.975 118.094 235.937 118.085C235.899 118.076 235.859 118.08 235.824 118.096C235.788 118.113 235.76 118.141 235.742 118.176L232.448 124.764C232.436 124.788 232.43 124.815 232.43 124.842C232.43 124.869 232.436 124.895 232.448 124.919L233.709 127.442H238.778L240.04 124.919C240.052 124.895 240.058 124.869 240.058 124.842C240.058 124.815 240.052 124.788 240.04 124.764L236.746 118.176Z" fill="#6D6D6D"/>
<path d="M239.19 127.788H233.296C233.2 127.788 233.122 127.866 233.122 127.961V129.002C233.122 129.097 233.2 129.175 233.296 129.175H239.19C239.286 129.175 239.364 129.097 239.364 129.002V127.961C239.364 127.866 239.286 127.788 239.19 127.788Z" fill="#6D6D6D"/>
<path d="M233.643 130.739C233.643 130.785 233.662 130.829 233.694 130.862C233.727 130.894 233.771 130.912 233.817 130.912H238.671C238.717 130.912 238.761 130.894 238.794 130.862C238.826 130.829 238.844 130.785 238.844 130.739V129.525H233.643V130.739Z" fill="#6D6D6D"/>
</g>
<defs>
<clipPath id="clip0_3545_585">
<rect width="646" height="322" rx="22" fill="white"/>
</clipPath>
</defs>
</svg>
