<svg width="646" height="322" viewBox="0 0 646 322" fill="none" xmlns="http://www.w3.org/2000/svg">
<g clip-path="url(#clip0_3545_481)">
<rect x="8" width="646" height="322" rx="22" fill="#2D1D3F"/>
<rect x="116.5" y="149.5" width="225.531" height="330.589" rx="11.5" stroke="white"/>
<rect x="319" y="19" width="254" height="287" rx="12" fill="#463856"/>
<path d="M374.677 188.844L374.654 188.868C374.339 188.179 374.14 187.398 374.059 186.534C374.14 187.386 374.362 188.156 374.677 188.844Z" fill="#C6F806"/>
<path d="M382.167 178.775C383.701 178.775 384.944 177.532 384.944 175.998C384.944 174.465 383.701 173.222 382.167 173.222C380.634 173.222 379.391 174.465 379.391 175.998C379.391 177.532 380.634 178.775 382.167 178.775Z" fill="#C6F806"/>
<path d="M390.556 168.999H380.779C376.532 168.999 374.001 171.531 374.001 175.777V185.554C374.001 186.826 374.222 187.934 374.654 188.867C375.657 191.084 377.804 192.332 380.779 192.332H390.556C394.802 192.332 397.334 189.801 397.334 185.554V182.882V175.777C397.334 171.531 394.802 168.999 390.556 168.999ZM395.432 181.249C394.522 180.467 393.052 180.467 392.142 181.249L387.289 185.414C386.379 186.196 384.909 186.196 383.999 185.414L383.602 185.087C382.774 184.364 381.456 184.294 380.522 184.924L376.159 187.852C375.902 187.199 375.751 186.441 375.751 185.554V175.777C375.751 172.487 377.489 170.749 380.779 170.749H390.556C393.846 170.749 395.584 172.487 395.584 175.777V181.377L395.432 181.249Z" fill="#C6F806"/>
<rect x="333.5" y="35.5" width="224" height="95" rx="5.5" stroke="#C6F806"/>
<rect x="414" y="68" width="63" height="12" rx="6" fill="white" fill-opacity="0.27"/>
<rect x="402" y="84" width="87" height="2" rx="1" fill="white" fill-opacity="0.27"/>
<rect x="409" y="89" width="73" height="2" rx="1" fill="white" fill-opacity="0.27"/>
<rect x="407" y="94" width="77" height="2" rx="1" fill="white" fill-opacity="0.27"/>
<rect x="341" y="42" width="12" height="2" rx="1" fill="white" fill-opacity="0.27"/>
<rect x="537" y="42" width="12" height="2" rx="1" fill="white" fill-opacity="0.27"/>
<rect x="403" y="42" width="12" height="2" rx="1" fill="white" fill-opacity="0.27"/>
<rect x="421" y="42" width="12" height="2" rx="1" fill="white" fill-opacity="0.27"/>
<rect x="439" y="42" width="12" height="2" rx="1" fill="white" fill-opacity="0.27"/>
<rect x="457" y="42" width="12" height="2" rx="1" fill="white" fill-opacity="0.27"/>
<rect x="475" y="42" width="12" height="2" rx="1" fill="white" fill-opacity="0.27"/>
<rect x="434" y="99" width="23" height="7" rx="3.5" fill="#C6F806"/>
<rect x="333.5" y="149.5" width="105" height="63" rx="5.5" stroke="white" stroke-opacity="0.26"/>
<rect x="333.5" y="226.5" width="224" height="63" rx="5.5" stroke="white" stroke-opacity="0.26"/>
<rect x="452.5" y="149.5" width="105" height="16" rx="5.5" stroke="#C6F806"/>
<rect x="452.5" y="172.5" width="105" height="16" rx="5.5" stroke="white" stroke-opacity="0.26"/>
<rect x="452.5" y="195.5" width="105" height="16" rx="5.5" stroke="white" stroke-opacity="0.26"/>
<path d="M177.754 87.1103L159.037 93.9245C149.679 97.3316 146.704 103.714 150.111 113.073L154.37 124.77C158.628 136.468 164.159 137.104 173.518 133.697L174.687 133.271C175.054 133.161 175.439 133.126 175.82 133.17C176.2 133.214 176.568 133.335 176.9 133.526L182.113 136.927C182.585 137.291 183.141 137.529 183.73 137.621C184.319 137.712 184.922 137.653 185.482 137.449C186.042 137.245 186.542 136.903 186.934 136.454C187.327 136.005 187.6 135.465 187.728 134.883L189.533 128.926C189.645 128.556 189.842 128.217 190.108 127.937C190.374 127.656 190.701 127.441 191.064 127.309L192.234 126.883C201.592 123.476 204.568 117.093 201.161 107.735L196.902 96.037C193.495 86.6787 187.112 83.7032 177.754 87.1103ZM168.965 117.337C169.196 117.434 169.405 117.578 169.579 117.758C169.754 117.938 169.89 118.152 169.98 118.386C170.07 118.62 170.112 118.87 170.103 119.121C170.094 119.371 170.035 119.618 169.929 119.845C169.823 120.072 169.672 120.276 169.486 120.443C169.3 120.611 169.082 120.74 168.844 120.821C168.607 120.903 168.356 120.936 168.106 120.919C167.856 120.901 167.612 120.833 167.388 120.719L161.006 117.744C160.783 117.64 160.584 117.494 160.418 117.314C160.252 117.133 160.124 116.921 160.04 116.691C159.956 116.461 159.919 116.216 159.929 115.971C159.94 115.726 159.999 115.486 160.103 115.264L163.078 108.881C163.176 108.65 163.32 108.442 163.5 108.267C163.68 108.093 163.894 107.957 164.128 107.867C164.362 107.777 164.612 107.735 164.862 107.744C165.113 107.753 165.359 107.812 165.587 107.918C165.814 108.024 166.018 108.174 166.185 108.361C166.353 108.547 166.482 108.765 166.563 109.002C166.645 109.239 166.678 109.49 166.66 109.741C166.643 109.991 166.575 110.235 166.461 110.458L164.277 115.149L168.965 117.337ZM178.047 104.735L177.343 117.357C177.334 117.605 177.274 117.848 177.17 118.073C177.065 118.298 176.916 118.499 176.733 118.666C176.549 118.832 176.334 118.961 176.101 119.044C175.867 119.126 175.619 119.162 175.372 119.148C175.124 119.134 174.882 119.071 174.659 118.962C174.436 118.853 174.237 118.701 174.074 118.515C173.91 118.329 173.786 118.112 173.707 117.877C173.628 117.642 173.597 117.393 173.615 117.146L174.319 104.524C174.355 104.035 174.582 103.581 174.95 103.258C175.318 102.935 175.798 102.769 176.287 102.797C176.776 102.825 177.234 103.043 177.564 103.406C177.893 103.768 178.067 104.246 178.047 104.735ZM191.56 106.62L188.585 113.002C188.365 113.433 187.986 113.762 187.529 113.92C187.071 114.077 186.571 114.051 186.132 113.846C185.694 113.642 185.352 113.275 185.178 112.824C185.005 112.372 185.013 111.871 185.202 111.425L187.387 106.735L182.698 104.547C182.467 104.449 182.258 104.306 182.084 104.125C181.91 103.945 181.773 103.731 181.683 103.497C181.594 103.263 181.552 103.013 181.56 102.763C181.569 102.512 181.628 102.266 181.734 102.039C181.84 101.811 181.991 101.608 182.177 101.44C182.363 101.272 182.582 101.144 182.819 101.062C183.056 100.98 183.307 100.947 183.557 100.965C183.807 100.982 184.051 101.05 184.275 101.164L190.657 104.14C190.88 104.243 191.079 104.389 191.245 104.57C191.411 104.751 191.539 104.962 191.623 105.192C191.707 105.423 191.745 105.667 191.734 105.912C191.723 106.157 191.664 106.398 191.56 106.62Z" fill="#C6F806"/>
<circle cx="130" cy="162" r="3" fill="white"/>
<circle cx="139" cy="162" r="3" fill="white"/>
<circle cx="148" cy="162" r="3" fill="white"/>
<rect x="133" y="179" width="105" height="5" rx="2.5" fill="white" fill-opacity="0.26"/>
<rect x="133" y="254" width="134" height="5" rx="2.5" fill="white" fill-opacity="0.26"/>
<rect x="140" y="188" width="62" height="5" rx="2.5" fill="white" fill-opacity="0.26"/>
<rect x="142" y="263" width="79" height="5" rx="2.5" fill="white" fill-opacity="0.26"/>
<rect x="148" y="212" width="62" height="5" rx="2.5" fill="white" fill-opacity="0.26"/>
<rect x="152" y="287" width="79" height="5" rx="2.5" fill="white" fill-opacity="0.26"/>
<rect x="148" y="220" width="71" height="5" rx="2.5" fill="white" fill-opacity="0.26"/>
<rect x="152" y="295" width="91" height="5" rx="2.5" fill="white" fill-opacity="0.26"/>
<rect x="148" y="228" width="71" height="5" rx="2.5" fill="white" fill-opacity="0.26"/>
<rect x="152" y="303" width="96" height="5" rx="2.5" fill="white" fill-opacity="0.26"/>
<rect x="140" y="196" width="76" height="5" rx="2.5" fill="white" fill-opacity="0.26"/>
<rect x="142" y="271" width="97" height="5" rx="2.5" fill="white" fill-opacity="0.26"/>
<rect x="140" y="236" width="76" height="5" rx="2.5" fill="white" fill-opacity="0.26"/>
<rect x="142" y="311" width="97" height="5" rx="2.5" fill="white" fill-opacity="0.26"/>
<rect x="140" y="204" width="67" height="5" rx="2.5" fill="white" fill-opacity="0.26"/>
<rect x="142" y="279" width="85" height="5" rx="2.5" fill="white" fill-opacity="0.26"/>
<rect x="140" y="244" width="67" height="5" rx="2.5" fill="white" fill-opacity="0.26"/>
<rect x="140" y="319" width="67" height="5" rx="2.5" fill="white" fill-opacity="0.26"/>
<path d="M224.237 227L221.637 234H221L223.6 227H224.237Z" fill="white"/>
<path d="M224.955 228.391L229 230.36V231.174L224.955 233.142V232.425L228.456 230.78L224.955 229.126V228.391Z" fill="white"/>
<path d="M254.237 302L251.637 309H251L253.6 302H254.237Z" fill="white"/>
<path d="M254.955 303.391L259 305.36V306.174L254.955 308.142V307.425L258.456 305.78L254.955 304.126V303.391Z" fill="white"/>
<path d="M243.237 178L240.637 185H240L242.6 178H243.237Z" fill="white"/>
<path d="M243.955 179.391L248 181.36V182.174L243.955 184.142V183.425L247.456 181.78L243.955 180.126V179.391Z" fill="white"/>
<path d="M273.237 253L270.637 260H270L272.6 253H273.237Z" fill="white"/>
<path d="M273.955 254.391L278 256.36V257.174L273.955 259.142V258.425L277.456 256.78L273.955 255.126V254.391Z" fill="white"/>
<path d="M211.237 243L208.637 250H208L210.6 243H211.237Z" fill="white"/>
<path d="M211.955 244.391L216 246.36V247.174L211.955 249.142V248.425L215.456 246.78L211.955 245.126V244.391Z" fill="white"/>
<path d="M241.237 318L238.637 325H238L240.6 318H241.237Z" fill="white"/>
<path d="M241.955 319.391L246 321.36V322.174L241.955 324.142V323.425L245.456 321.78L241.955 320.126V319.391Z" fill="white"/>
<path d="M131 184L127 181.928V181.072L131 179V179.755L127.538 181.486L131 183.227V184Z" fill="white"/>
<path d="M131 259L127 256.928V256.072L131 254V254.755L127.538 256.486L131 258.227V259Z" fill="white"/>
<path d="M138 193L134 190.928V190.072L138 188V188.755L134.538 190.486L138 192.227V193Z" fill="white"/>
<path d="M138 268L134 265.928V265.072L138 263V263.755L134.538 265.486L138 267.227V268Z" fill="white"/>
<path d="M146 217L142 214.928V214.072L146 212V212.755L142.538 214.486L146 216.227V217Z" fill="white"/>
<path d="M146 292L142 289.928V289.072L146 287V287.755L142.538 289.486L146 291.227V292Z" fill="white"/>
</g>
<defs>
<clipPath id="clip0_3545_481">
<rect width="646" height="322" rx="22" fill="white"/>
</clipPath>
</defs>
</svg>
