<svg width="646" height="322" viewBox="0 0 646 322" fill="none" xmlns="http://www.w3.org/2000/svg">
<g clip-path="url(#clip0_3545_545)">
<rect width="646" height="322" rx="22" fill="#2D1D3F"/>
<path d="M229.208 36.5H269.81C283.067 36.5 294.291 46.2745 296.166 59.3584L296.248 59.9844L296.249 59.9883L300.581 94.0088L300.621 94.3232L300.923 94.4209C309.562 97.2221 317.875 100.674 325.772 104.704L326.056 104.849L326.307 104.653L353.367 83.6113C363.987 75.3928 378.874 76.2015 388.24 85.4199L388.682 85.8652L388.688 85.8711L417.235 114.418L417.241 114.424C426.637 123.522 427.74 138.384 419.791 149.119L419.405 149.627L398.361 176.724L398.167 176.975L398.312 177.258C402.342 185.155 405.793 193.468 408.595 202.089L408.692 202.391L409.007 202.431L443.083 206.763H443.087C456.221 208.339 466.201 219.379 466.493 232.569L466.5 233.199V273.8C466.5 287.056 456.725 298.28 443.641 300.155L443.015 300.237H443.011L409.007 304.569L408.691 304.609L408.594 304.912C405.811 313.532 402.359 321.845 398.312 329.741L398.166 330.024L398.361 330.276L419.405 357.354C427.641 367.973 426.816 382.842 417.596 392.225L417.15 392.667L417.145 392.673L388.597 421.22L388.591 421.226C379.492 430.621 364.63 431.723 353.895 423.774L353.387 423.39L326.288 402.347L326.037 402.151L325.754 402.296C317.857 406.326 309.543 409.778 300.922 412.579L300.621 412.677L300.581 412.991L296.249 447.066L296.248 447.069C294.647 460.411 283.278 470.5 269.81 470.5H229.208C215.951 470.5 204.726 460.726 202.852 447.606L202.77 446.979V446.976L198.438 412.973L198.397 412.658L198.095 412.561L196.482 412.031C188.437 409.344 180.668 406.073 173.265 402.278L172.981 402.133L172.729 402.328L145.649 423.371C135.03 431.589 120.161 430.78 110.778 421.578L110.336 421.134L110.33 421.129L81.7822 392.582L81.7764 392.576L81.3359 392.139C72.3483 383.007 71.4046 368.446 79.2275 357.881L79.6123 357.373L100.656 330.276L100.852 330.025L100.707 329.742C96.677 321.845 93.2252 313.532 90.4238 304.911L90.3252 304.609L90.0107 304.569L55.9346 300.237H55.9316C42.5889 298.636 32.5 287.268 32.5 273.8V233.2C32.5 219.944 42.2748 208.72 55.3594 206.845L55.9854 206.763H55.9893L90.0107 202.431L90.3252 202.391L90.4238 202.089C93.2254 193.468 96.6586 185.155 100.706 177.259L100.852 176.976L100.656 176.724L79.6123 149.646C71.3766 139.027 72.2022 124.14 81.4229 114.757L81.8682 114.314L81.873 114.31L110.421 85.7803L110.427 85.7754C119.543 76.3795 134.407 75.2937 145.125 83.2256L145.632 83.6104L172.712 104.653L172.963 104.849L173.246 104.704C181.142 100.657 189.456 97.2223 198.096 94.4209L198.397 94.3232L198.438 94.0088L202.77 59.9336V59.9307C204.346 46.7971 215.387 36.8167 228.578 36.5078L229.208 36.5ZM249.509 162.375C199.26 162.375 158.38 203.253 158.38 253.5C158.38 303.747 199.26 344.625 249.509 344.625C299.758 344.625 340.638 303.747 340.638 253.5C340.638 203.253 299.758 162.375 249.509 162.375Z" stroke="white"/>
<rect x="273" y="80.2451" width="254" height="287" rx="12" transform="rotate(-6.38457 273 80.2451)" fill="#463856"/>
<rect x="337.394" y="98.1953" width="161" height="12" rx="6" transform="rotate(-6.38457 337.394 98.1953)" fill="white" fill-opacity="0.27"/>
<rect x="343.177" y="149.872" width="161" height="12" rx="6" transform="rotate(-6.38457 343.177 149.872)" fill="white" fill-opacity="0.27"/>
<rect x="348.96" y="201.549" width="161" height="12" rx="6" transform="rotate(-6.38457 348.96 201.549)" fill="white" fill-opacity="0.27"/>
<rect x="354.742" y="253.227" width="161" height="12" rx="6" transform="rotate(-6.38457 354.742 253.227)" fill="white" fill-opacity="0.27"/>
<rect x="360.525" y="304.904" width="161" height="12" rx="6" transform="rotate(-6.38457 360.525 304.904)" fill="#786E84"/>
<rect x="339.508" y="117.076" width="130" height="12" rx="6" transform="rotate(-6.38457 339.508 117.076)" fill="white" fill-opacity="0.27"/>
<rect x="345.29" y="168.754" width="100" height="12" rx="6" transform="rotate(-6.38457 345.29 168.754)" fill="white" fill-opacity="0.27"/>
<rect x="351.073" y="220.432" width="139" height="12" rx="6" transform="rotate(-6.38457 351.073 220.432)" fill="white" fill-opacity="0.27"/>
<rect x="356.855" y="272.109" width="75" height="12" rx="6" transform="rotate(-6.38457 356.855 272.109)" fill="white" fill-opacity="0.27"/>
<rect x="362.638" y="323.786" width="117" height="12" rx="6" transform="rotate(-6.38457 362.638 323.786)" fill="#786E84"/>
<path d="M320.834 108.028L313.588 116.819L309.493 113.65" stroke="#C6F806" stroke-linecap="round" stroke-linejoin="round"/>
<rect x="303.165" y="102.527" width="22" height="22" rx="3.5" transform="rotate(-6.38457 303.165 102.527)" stroke="#C6F806"/>
<path d="M326.617 159.705L319.371 168.497L315.275 165.328" stroke="#C6F806" stroke-linecap="round" stroke-linejoin="round"/>
<rect x="308.947" y="154.205" width="22" height="22" rx="3.5" transform="rotate(-6.38457 308.947 154.205)" stroke="#C6F806"/>
<path d="M332.399 211.383L325.153 220.174L321.057 217.005" stroke="#C6F806" stroke-linecap="round" stroke-linejoin="round"/>
<rect x="314.73" y="205.883" width="22" height="22" rx="3.5" transform="rotate(-6.38457 314.73 205.883)" stroke="#C6F806"/>
<path d="M338.182 263.061L330.935 271.852L326.84 268.683" stroke="#C6F806" stroke-linecap="round" stroke-linejoin="round"/>
<rect x="320.512" y="257.56" width="22" height="22" rx="3.5" transform="rotate(-6.38457 320.512 257.56)" stroke="#C6F806"/>
<path d="M343.964 314.738L336.718 323.529L332.622 320.36" stroke="#C6F806" stroke-linecap="round" stroke-linejoin="round"/>
<rect x="326.295" y="309.237" width="22" height="22" rx="3.5" transform="rotate(-6.38457 326.295 309.237)" stroke="#C6F806"/>
<circle cx="230.276" cy="248.276" r="21.877" transform="rotate(-16.8381 230.276 248.276)" fill="white"/>
<path d="M234.869 240.253L226.144 256.551" stroke="#222222" stroke-width="4" stroke-linecap="round" stroke-linejoin="round"/>
<path d="M222.357 244.039L238.655 252.764" stroke="#222222" stroke-width="4" stroke-linecap="round" stroke-linejoin="round"/>
<circle cx="526.95" cy="47.9494" r="25.5513" transform="rotate(17.1492 526.95 47.9494)" fill="#C6F806"/>
<path d="M537.317 45.1126L523.085 52.7972L519.709 46.2663" stroke="#202020" stroke-width="4" stroke-linecap="round" stroke-linejoin="round"/>
</g>
<defs>
<clipPath id="clip0_3545_545">
<rect width="646" height="322" rx="22" fill="white"/>
</clipPath>
</defs>
</svg>
