<svg width="48" height="70" fill="none" xmlns="http://www.w3.org/2000/svg"><path d="M31.567 17.37a1.592 1.592 0 0 0-.725-.253.887.887 0 0 0-.605.165l-12.07 9.17L2.672 1.86a2.442 2.442 0 0 0-.807-.777C1.555.904 1.236.832.96.877a.807.807 0 0 0-.612.455c-.121.25-.141.573-.057.92l14.459 49.5c.072.274.206.548.389.795.182.247.405.457.647.61.242.153.494.242.73.258a.888.888 0 0 0 .61-.166l11.889-9.033 15.94 24.31c.218.32.505.585.814.755.31.17.625.234.895.182a.807.807 0 0 0 .596-.469c.116-.251.132-.575.045-.92L32.607 18.762a2.395 2.395 0 0 0-.393-.789 2.42 2.42 0 0 0-.647-.603Z" fill="#fff"/></svg>