<svg width="1521" height="1161" fill="none" xmlns="http://www.w3.org/2000/svg"><g opacity=".23"><mask id="b" style="mask-type:alpha" maskUnits="userSpaceOnUse" x="0" y="0" width="1521" height="1161"><path stroke="#fff" d="M758.498 0v1161M709.924 0v1161M1487.14 0v1161M661.346 0v1161M1438.57 0v1161M612.771 0v1161M1389.99 0v1161M564.193 0v1161M1341.41 0v1161M515.615 0v1161M1292.84 0v1161M467.043 0v1161M1244.26 0v1161M418.465 0v1161M1195.69 0v1161M369.887 0v1161M1147.11 0v1161M321.312 0v1161M1098.54 0v1161M272.734 0v1161M1049.96 0v1161M224.16 0v1161M1001.38 0v1161M175.584 0v1161M952.805 0v1161M127.008 0v1161M904.227 0v1161M78.43 0v1161M855.652 0v1161M29.855 0v1161M807.076 0v1161m712.964-82.62H0m1520.04-84.884H0m1520.04-84.883H0m1520.04-84.886L0 823.726m1520.04-84.89H0m1520.04-84.883H0m1520.04-84.891H0m1520.04-84.882H0m1520.04-84.887H0m1520.04-84.887H0m1520.04-84.886L0 229.519m1520.04-84.886H0m1520.04-84.887H0"/></mask><g filter="url(#a)" mask="url(#b)"><ellipse cx="760.023" cy="580.498" rx="670.961" ry="477.045" fill="url(#c)"/></g></g><defs><radialGradient id="c" cx="0" cy="0" r="1" gradientUnits="userSpaceOnUse" gradientTransform="matrix(0 477.045 -670.961 0 760.023 580.498)"><stop stop-color="#D9D9D9" stop-opacity=".4"/><stop offset="1" stop-color="#D9D9D9" stop-opacity=".13"/></radialGradient><filter id="a" x="-302.337" y="-287.947" width="2124.72" height="1736.89" filterUnits="userSpaceOnUse" color-interpolation-filters="sRGB"><feFlood flood-opacity="0" result="BackgroundImageFix"/><feBlend in="SourceGraphic" in2="BackgroundImageFix" result="shape"/><feGaussianBlur stdDeviation="195.7" result="effect1_foregroundBlur_5074_239"/></filter></defs></svg>